<svg xmlns="http://www.w3.org/2000/svg" width="32.525" height="30" viewBox="254 765 32.525 30"><path d="m286.373 774.355-5.371 17.695a3.975 3.975 0 0 1-1.29 1.937 4.962 4.962 0 0 1-.205.163 4.331 4.331 0 0 1-1.14.63 3.655 3.655 0 0 1-1.252.22h-18.027a4.47 4.47 0 0 1-2.106-.54 5.97 5.97 0 0 1-.794-.505 5.801 5.801 0 0 1-1.36-1.41 5.256 5.256 0 0 1-.584-1.158c-.312-.873-.325-1.7-.038-2.481a.613.613 0 0 1 .002-.042 8.38 8.38 0 0 1 .04-.362 33.448 33.448 0 0 1 .017-.123 21.496 21.496 0 0 0 .026-.214c.022-.174.037-.324.047-.449a6.136 6.136 0 0 0 .005-.06.517.517 0 0 0 .003-.048.993.993 0 0 0-.028-.24 1.971 1.971 0 0 0-.034-.131 1.075 1.075 0 0 1-.062-.361.27.27 0 0 1 .003-.02 1.208 1.208 0 0 1 .156-.41 3.366 3.366 0 0 1 .1-.157l.103-.145a7.015 7.015 0 0 1 .12-.158 4.84 4.84 0 0 0 .321-.459 10.483 10.483 0 0 0 .39-.707c.165-.328.328-.688.49-1.08.286-.696.481-1.292.585-1.787a.67.67 0 0 0 .021-.096 1.72 1.72 0 0 0-.001-.409 3.454 3.454 0 0 0-.01-.08 2.002 2.002 0 0 1-.017-.51.445.445 0 0 1 .007-.037.79.79 0 0 1 .054-.138 2.21 2.21 0 0 1 .278-.409 10.103 10.103 0 0 0 .11-.135 3.01 3.01 0 0 0 .201-.276.561.561 0 0 0 .022-.038 7.829 7.829 0 0 0 .205-.376c.137-.267.273-.566.41-.898a17.636 17.636 0 0 0 .205-.523 13.84 13.84 0 0 0 .22-.627c.143-.446.233-.823.269-1.13a.679.679 0 0 0 .003-.042 2.628 2.628 0 0 0-.03-.426 7.589 7.589 0 0 0-.022-.157c-.042-.282-.042-.46.002-.534a.107.107 0 0 1 .008-.013c.046-.148.162-.319.347-.511a3.406 3.406 0 0 1 .083-.084 7.4 7.4 0 0 0 .422-.43.614.614 0 0 0 .008-.01c.205-.281.431-.71.678-1.283a17.205 17.205 0 0 0 .152-.367 12.018 12.018 0 0 0 .25-.676c.148-.447.242-.836.28-1.168a3.37 3.37 0 0 0 .005-.043.506.506 0 0 0 .004-.04 1.618 1.618 0 0 0-.043-.369 4.048 4.048 0 0 0-.02-.089c-.052-.227-.065-.4-.038-.518a.75.75 0 0 1 .043-.122c.017-.04.039-.082.065-.125a1.67 1.67 0 0 1 .067-.104 4.779 4.779 0 0 1 .114-.155c.043-.056.09-.116.142-.178a9.463 9.463 0 0 1 .096-.116 17.272 17.272 0 0 0 .101-.121c.095-.115.172-.211.231-.29a3.16 3.16 0 0 0 .119-.193 5.31 5.31 0 0 0 .203-.402 14.4 14.4 0 0 0 .192-.436 11.76 11.76 0 0 0 .1-.247 8.309 8.309 0 0 1 .142-.338 11.178 11.178 0 0 1 .172-.365 4.448 4.448 0 0 1 .152-.287 3.09 3.09 0 0 1 .156-.243 2.34 2.34 0 0 1 .073-.095c.129-.162.3-.314.513-.456a3.127 3.127 0 0 1 .005-.003 1.311 1.311 0 0 1 .703-.225 2.316 2.316 0 0 1 .061 0c.183 0 .392.02.628.06a6.252 6.252 0 0 1 .238.047l-.02.059a15.789 15.789 0 0 1 .302-.069c.273-.059.478-.093.616-.104a1.064 1.064 0 0 1 .08-.003h14.862a3.038 3.038 0 0 1 .99.154 2.487 2.487 0 0 1 1.237.94 2.62 2.62 0 0 1 .504 1.558c0 .312-.051.639-.153.98l-5.351 17.696a19.796 19.796 0 0 1-.33.999c-.357.988-.713 1.655-1.067 1.999a1.894 1.894 0 0 1-.61.383c-.386.159-.882.252-1.485.281a8.768 8.768 0 0 1-.415.01h-16.972a1.486 1.486 0 0 0-.268.023c-.213.039-.37.129-.474.27-.131.19-.148.442-.05.753a1.89 1.89 0 0 0 .03.087c.244.71.868 1.144 1.873 1.3a6.14 6.14 0 0 0 .94.067h18.027a2.141 2.141 0 0 0 .995-.249 2.552 2.552 0 0 0 .1-.054 1.67 1.67 0 0 0 .367-.28 1.297 1.297 0 0 0 .316-.53l5.86-19.277c.09-.287.123-.658.097-1.113a2.976 2.976 0 0 1 .623.33 2.32 2.32 0 0 1 .529.51v-.001a2.658 2.658 0 0 1 .503 1.558c0 .308-.05.628-.152.961ZM265.67 772.5h11.875a.736.736 0 0 0 .327-.08 1.031 1.031 0 0 0 .17-.106 1.023 1.023 0 0 0 .188-.182.803.803 0 0 0 .136-.257l.41-1.25a.737.737 0 0 0 .024-.103.58.58 0 0 0 .007-.089.455.455 0 0 0-.07-.247.38.38 0 0 0-.245-.17.636.636 0 0 0-.146-.016h-11.875a.736.736 0 0 0-.327.08 1.031 1.031 0 0 0-.17.106 1.023 1.023 0 0 0-.188.182.803.803 0 0 0-.136.257l-.41 1.25a.655.655 0 0 0-.031.192.455.455 0 0 0 .07.247.38.38 0 0 0 .245.17.636.636 0 0 0 .146.016Zm-1.622 5h11.876a.736.736 0 0 0 .327-.08 1.031 1.031 0 0 0 .17-.106 1.023 1.023 0 0 0 .187-.182.803.803 0 0 0 .136-.257l.41-1.25a.737.737 0 0 0 .025-.103.58.58 0 0 0 .007-.089.455.455 0 0 0-.07-.247.38.38 0 0 0-.246-.17.636.636 0 0 0-.145-.016H264.85a.736.736 0 0 0-.327.08 1.031 1.031 0 0 0-.171.106.881.881 0 0 0-.323.439l-.41 1.25a.655.655 0 0 0-.032.192.455.455 0 0 0 .07.247c.078.124.208.186.391.186Z" fill="#f22a73" fill-rule="evenodd" data-name="book"/></svg>