<svg xmlns="http://www.w3.org/2000/svg" width="46.155" height="40.001" viewBox="330.154 872 46.155 40.001"><path d="M376.308 884.308v21.538a5.925 5.925 0 0 1-1.747 4.295 7.174 7.174 0 0 1-.055.056 5.915 5.915 0 0 1-4.269 1.803h-.08a5.459 5.459 0 0 1-.003 0h-33.846a5.925 5.925 0 0 1-4.295-1.747 7.174 7.174 0 0 1-.056-.056c-1.202-1.2-1.803-2.65-1.803-4.347a8.19 8.19 0 0 1 0-.004v-21.538c0-1.699.601-3.149 1.803-4.352a5.915 5.915 0 0 1 4.268-1.802h.08a5.459 5.459 0 0 1 .003 0h5.385l1.225-3.27a4.117 4.117 0 0 1 .978-1.458 5.5 5.5 0 0 1 .693-.572 5.014 5.014 0 0 1 1.103-.594 3.895 3.895 0 0 1 1.385-.26h12.308a3.984 3.984 0 0 1 1.762.422 5.301 5.301 0 0 1 .726.432 5.247 5.247 0 0 1 .938.832 4.02 4.02 0 0 1 .733 1.199l1.226 3.269h5.384a5.925 5.925 0 0 1 4.295 1.747 7.174 7.174 0 0 1 .057.055c1.201 1.201 1.802 2.65 1.802 4.348a8.188 8.188 0 0 1 0 .004Zm-23.077 21.538c2.965 0 5.501-1.054 7.608-3.161a10.367 10.367 0 0 0 3.16-7.47 12.43 12.43 0 0 0 .001-.138c.001-2.964-1.053-5.5-3.161-7.608a10.363 10.363 0 0 0-7.47-3.16 12.419 12.419 0 0 0-.138-.001c-2.963 0-5.499 1.054-7.608 3.161-2.108 2.108-3.162 4.644-3.161 7.608a10.364 10.364 0 0 0 3.063 7.509 12.631 12.631 0 0 0 .098.099 10.357 10.357 0 0 0 7.47 3.16 12.433 12.433 0 0 0 .138.001Zm4.829-15.724a6.662 6.662 0 0 0-4.829-1.968 8.006 8.006 0 0 0-.089 0 6.664 6.664 0 0 0-4.803 2.03 8.095 8.095 0 0 0-.063.064c-1.313 1.341-1.969 2.951-1.968 4.829a8.018 8.018 0 0 0 0 .09 6.667 6.667 0 0 0 2.03 4.802 8.081 8.081 0 0 0 .064.063 6.657 6.657 0 0 0 4.83 1.968 8.02 8.02 0 0 0 .088 0 6.658 6.658 0 0 0 4.803-2.03 8.102 8.102 0 0 0 .063-.064 6.666 6.666 0 0 0 1.968-4.83v-.092a6.654 6.654 0 0 0-2.03-4.8 8.108 8.108 0 0 0-.064-.062Z" fill="#f22a73" fill-rule="evenodd" data-name="camera"/></svg>