<svg xmlns="http://www.w3.org/2000/svg" width="49.999" height="50" viewBox="35 34.654 49.999 50"><path d="M84.999 52.037v15.234c0 .721-.283 1.292-.847 1.714a2.67 2.67 0 0 1-.102.073L61.2 84.292c-.391.241-.791.362-1.2.362a2.162 2.162 0 0 1-.94-.22 2.725 2.725 0 0 1-.26-.142L35.948 69.056a2.202 2.202 0 0 1-.632-.63 2.048 2.048 0 0 1-.314-1.033A2.666 2.666 0 0 1 35 67.27V52.037c0-.72.282-1.292.847-1.713a2.67 2.67 0 0 1 .102-.073l22.85-15.234a2.494 2.494 0 0 1 .612-.278 2.086 2.086 0 0 1 .588-.085 2.162 2.162 0 0 1 .94.22 2.725 2.725 0 0 1 .26.143L84.05 50.25a2.202 2.202 0 0 1 .632.631c.21.329.317.714.317 1.155ZM41.026 67.27l16.825 11.216V68.47l-9.32-6.222-7.505 5.022Zm7.506-10.21 9.319-6.223V40.821L41.026 52.037l7.506 5.022Zm22.935 0 7.505-5.023-16.824-11.216v10.016l9.319 6.222Zm-9.32 21.426L78.97 67.27l-7.505-5.022-9.32 6.222v10.016Zm-2.15-13.755 7.59-5.077-7.59-5.078-7.588 5.078 7.589 5.077Zm15.32-5.077 5.385 3.6v-7.2l-5.385 3.6Zm-36.021 3.598 5.384-3.6-5.384-3.6v7.2Z" fill="#f22a73" fill-rule="evenodd" data-name="codepen"/></svg>