<svg xmlns="http://www.w3.org/2000/svg" width="120.001" height="107.247" viewBox="332 838.877 120.001 107.247"><g data-name="data_center"><g data-name="Group 110"><path d="M412.194 915.991h-42.029a.666.666 0 0 1-.131-.014c-.313-.064-.759-.338-.829-.822a.926.926 0 0 1-.01-.134v-15.194a.666.666 0 0 1 .015-.132c.064-.313.338-.758.822-.829a.926.926 0 0 1 .133-.01h42.029a.666.666 0 0 1 .131.015c.313.064.758.338.829.822a.926.926 0 0 1 .01.134v15.194a.884.884 0 0 1-.076.362c-.168.38-.58.581-.842.606a.56.56 0 0 1-.052.002Zm-41.059-1.616h40.089v-13.579h-40.089v13.579Z" fill="#0c0c0d" fill-rule="evenodd" data-name="Path 140"/></g><g data-name="Group 111"><path d="M411.224 902.7v-29.743h-40.089V902.7a.666.666 0 0 1-.014.132c-.064.313-.338.758-.822.829a.926.926 0 0 1-.134.01.666.666 0 0 1-.131-.015c-.34-.07-.839-.388-.839-.956v-30.39a.666.666 0 0 1 .015-.13c.064-.313.338-.76.822-.83a.926.926 0 0 1 .133-.01h42.029c.3 0 .879.28.96.837a.926.926 0 0 1 .01.134v30.39a4.17 4.17 0 0 1-.205.365c-.15.235-.298.402-.447.5a.577.577 0 0 1-.318.104.666.666 0 0 1-.132-.014c-.34-.07-.838-.388-.838-.956Z" fill="#0c0c0d" fill-rule="evenodd" data-name="Path 141"/></g><g data-name="Group 112"><path d="M412.194 929.352h-42.029c-.3 0-.879-.28-.96-.837a.926.926 0 0 1-.01-.133v-15.195c0-.3.28-.88.837-.96a.926.926 0 0 1 .133-.01c.3 0 .88.279.96.836a.926.926 0 0 1 .01.134v14.548h40.089v-14.548a.666.666 0 0 1 .014-.132c.07-.34.388-.838.956-.838a.666.666 0 0 1 .131.015c.34.069.838.387.838.955v15.195c-.29.58-.58.9-.871.96a.494.494 0 0 1-.098.01Z" fill="#0c0c0d" fill-rule="evenodd" data-name="Path 142"/></g><g data-name="Group 113"><path d="M382.983 894.916h-3.88a.666.666 0 0 1-.131-.014c-.34-.07-.838-.388-.838-.955 0-.3.278-.88.836-.96a.926.926 0 0 1 .133-.01h3.88a.666.666 0 0 1 .131.014c.34.07.839.388.839.956-.29.58-.581.9-.872.96a.494.494 0 0 1-.098.01Z" fill="#0c0c0d" fill-rule="evenodd" data-name="Path 143"/></g><g data-name="Group 114"><path d="M393.075 894.916h-3.88c-.323 0-.97-.323-.97-.97a.666.666 0 0 1 .015-.13c.07-.341.388-.84.955-.84h3.88c.3 0 .879.28.96.837a.926.926 0 0 1 .01.134c0 .646-.647.97-.97.97Z" fill="#0c0c0d" fill-rule="evenodd" data-name="Path 144"/></g><g data-name="Group 115"><path d="M382.983 881.32h-3.88a.666.666 0 0 1-.131-.015c-.313-.064-.758-.338-.829-.822a.926.926 0 0 1-.01-.134c0-.646.324-.97.97-.97h3.88a.666.666 0 0 1 .131.015c.313.064.759.338.83.822a.926.926 0 0 1 .009.133.884.884 0 0 1-.075.362c-.169.38-.58.581-.843.606a.56.56 0 0 1-.052.002Z" fill="#0c0c0d" fill-rule="evenodd" data-name="Path 145"/></g><g data-name="Group 116"><path d="M393.075 881.32h-3.88a.666.666 0 0 1-.131-.015c-.313-.064-.759-.338-.83-.822a.926.926 0 0 1-.009-.134c0-.513.204-.822.611-.928a1.429 1.429 0 0 1 .36-.042h3.879c.3 0 .879.28.96.837a.926.926 0 0 1 .01.133.884.884 0 0 1-.076.362c-.18.405-.638.608-.894.608Z" fill="#0c0c0d" fill-rule="evenodd" data-name="Path 146"/></g><g data-name="Group 117"><path d="M382.983 908.514h-3.88c-.323 0-.97-.324-.97-.97 0-.3.28-.88.837-.96a.926.926 0 0 1 .133-.01h3.88a.666.666 0 0 1 .131.014c.34.07.839.388.839.956a4.516 4.516 0 0 1-.144.266c-.275.47-.55.704-.826.704Z" fill="#0c0c0d" fill-rule="evenodd" data-name="Path 147"/></g><g data-name="Group 118"><path d="M393.075 908.514h-3.88c-.323 0-.97-.324-.97-.97a.666.666 0 0 1 .015-.132c.07-.34.388-.838.955-.838h3.88a.666.666 0 0 1 .131.014c.34.07.839.388.839.956a.884.884 0 0 1-.076.362c-.18.405-.638.608-.894.608Z" fill="#0c0c0d" fill-rule="evenodd" data-name="Path 148"/></g><g data-name="Group 119"><path d="M382.983 922.111h-3.88a.666.666 0 0 1-.131-.015c-.34-.069-.838-.387-.838-.955 0-.3.278-.88.836-.96a.926.926 0 0 1 .133-.01h3.88c.3 0 .88.279.96.837a.926.926 0 0 1 .01.133c-.29.581-.581.901-.872.96a.494.494 0 0 1-.098.01Z" fill="#0c0c0d" fill-rule="evenodd" data-name="Path 149"/></g><g data-name="Group 120"><path d="M393.075 922.111h-3.88c-.323 0-.97-.323-.97-.97a.666.666 0 0 1 .015-.131c.07-.34.388-.839.955-.839h3.88c.3 0 .879.279.96.837a.926.926 0 0 1 .01.133.884.884 0 0 1-.076.362c-.18.405-.638.608-.894.608Z" fill="#0c0c0d" fill-rule="evenodd" data-name="Path 150"/></g><g data-name="Group 121"><path d="M412.194 888.262h-42.029c-.3 0-.879-.278-.96-.836a.926.926 0 0 1-.01-.133c0-.3.28-.88.837-.96a.926.926 0 0 1 .133-.01h42.029a.666.666 0 0 1 .131.014c.313.064.758.338.829.822a.926.926 0 0 1 .01.134 2.115 2.115 0 0 0-.142.159c-.276.339-.552.81-.828.81Z" fill="#0c0c0d" fill-rule="evenodd" data-name="Path 151"/></g><g data-name="Group 122"><path d="M430.799 923.895h-15.195c-.323 0-.97-.324-.97-.97a.666.666 0 0 1 .015-.132c.07-.34.388-.838.955-.838h14.548V878.31h-14.548a.666.666 0 0 1-.131-.014c-.313-.064-.759-.338-.83-.822a.926.926 0 0 1-.009-.134 1.396 1.396 0 0 1 .048-.383.742.742 0 0 1 .563-.545 1.429 1.429 0 0 1 .36-.041h15.194c.3 0 .88.278.96.836a.926.926 0 0 1 .01.133v45.908a13.446 13.446 0 0 1-.194.192c-.198.19-.395.355-.592.422a.565.565 0 0 1-.184.033Z" fill="#0c0c0d" fill-rule="evenodd" data-name="Path 152"/></g><g data-name="Group 123"><path d="M430.799 891.445h-15.195a.666.666 0 0 1-.131-.015c-.34-.07-.839-.388-.839-.955a.666.666 0 0 1 .015-.132c.064-.312.338-.758.822-.828a.926.926 0 0 1 .133-.01H430.8a.666.666 0 0 1 .131.015c.313.063.759.337.83.821a.926.926 0 0 1 .009.134c-.278.556-.556.873-.834.95a.502.502 0 0 1-.136.02Z" fill="#0c0c0d" fill-rule="evenodd" data-name="Path 153"/></g><g data-name="Group 124"><path d="M430.799 901.86h-15.195c-.3 0-.879-.28-.96-.837a.926.926 0 0 1-.01-.133c0-.3.279-.88.837-.96a.926.926 0 0 1 .133-.01H430.8a.666.666 0 0 1 .131.014c.313.064.759.338.83.822a.926.926 0 0 1 .009.134 4.836 4.836 0 0 1-.091.173c-.293.531-.586.797-.879.797Z" fill="#0c0c0d" fill-rule="evenodd" data-name="Path 154"/></g><g data-name="Group 125"><path d="M430.799 911.985h-15.195a.666.666 0 0 1-.131-.014c-.34-.07-.839-.388-.839-.956a.666.666 0 0 1 .015-.131c.064-.313.338-.758.822-.829a.926.926 0 0 1 .133-.01H430.8c.323 0 .97.324.97.97-.278.557-.556.874-.834.951a.502.502 0 0 1-.136.02Z" fill="#0c0c0d" fill-rule="evenodd" data-name="Path 155"/></g><g data-name="Group 126"><path d="M366.971 923.895h-15.195c-.3 0-.879-.279-.96-.837a.926.926 0 0 1-.01-.133V877.34c0-.323.324-.97.97-.97h15.195a.666.666 0 0 1 .132.015c.312.064.758.338.828.822a.926.926 0 0 1 .01.133 1.396 1.396 0 0 1-.048.384.742.742 0 0 1-.563.545 1.429 1.429 0 0 1-.359.041h-14.548v43.968h14.548a.666.666 0 0 1 .132.015c.312.064.758.338.828.822a.926.926 0 0 1 .01.133 7.156 7.156 0 0 1-.349.334c-.207.18-.414.313-.621.313Z" fill="#0c0c0d" fill-rule="evenodd" data-name="Path 156"/></g><g data-name="Group 127"><path d="M366.971 891.445h-15.195c-.3 0-.879-.279-.96-.837a.926.926 0 0 1-.01-.133c0-.3.28-.88.837-.96a.926.926 0 0 1 .133-.01h15.195a.666.666 0 0 1 .132.015c.312.063.758.337.828.821a.926.926 0 0 1 .01.134c-.323.646-.647.97-.97.97Z" fill="#0c0c0d" fill-rule="evenodd" data-name="Path 157"/></g><g data-name="Group 128"><path d="M366.971 901.86h-15.195a.666.666 0 0 1-.131-.015c-.313-.064-.759-.338-.83-.822a.926.926 0 0 1-.009-.133.666.666 0 0 1 .015-.132c.07-.34.388-.838.955-.838h15.195a.666.666 0 0 1 .132.014c.312.064.758.338.828.822a.926.926 0 0 1 .01.134 4.516 4.516 0 0 1-.144.266c-.243.413-.485.645-.728.694a.494.494 0 0 1-.098.01Z" fill="#0c0c0d" fill-rule="evenodd" data-name="Path 158"/></g><g data-name="Group 129"><path d="M366.971 911.985h-15.195c-.3 0-.879-.278-.96-.836a.926.926 0 0 1-.01-.134c0-.3.28-.879.837-.96a.926.926 0 0 1 .133-.01h15.195a.666.666 0 0 1 .132.015c.312.064.758.338.828.822a.926.926 0 0 1 .01.133c-.323.647-.647.97-.97.97Z" fill="#0c0c0d" fill-rule="evenodd" data-name="Path 159"/></g><g data-name="Group 130"><path d="M443.271 925.402v-3.556a5.147 5.147 0 0 0-1.65-3.827 5.167 5.167 0 0 0-3.523-1.346h-2.91a.666.666 0 0 1-.13-.014c-.313-.064-.76-.338-.83-.822a.926.926 0 0 1-.01-.134c0-.3.28-.879.837-.96a.926.926 0 0 1 .134-.01h2.91a6.848 6.848 0 0 1 4.305 1.455c1.416 1.126 2.332 2.828 2.466 4.821a7.621 7.621 0 0 1 .018.514v3.556c0 .97-.324 1.293-.647 1.293s-.97-.323-.97-.97Z" fill="#0c0c0d" fill-rule="evenodd" data-name="Path 160"/></g><g data-name="Group 131"><path d="m443.594 925.903-3.233-3.233a.868.868 0 0 1-.23-.489 1 1 0 0 1 .154-.714.72.72 0 0 1 .076-.09.868.868 0 0 1 .489-.231c.29-.044.608.033.805.23l2.586 2.587 2.586-2.587a.868.868 0 0 1 .489-.23 1 1 0 0 1 .714.154.72.72 0 0 1 .09.076.868.868 0 0 1 .231.489c.043.29-.034.608-.23.805l-3.233 3.233a.77.77 0 0 0-.371.115c-.161.093-.276.208-.276.208a8.085 8.085 0 0 1-.083 0c-.243-.003-.27-.03-.564-.323Z" fill="#0c0c0d" fill-rule="evenodd" data-name="Path 161"/></g><g data-name="Group 132"><path d="m437.128 919.568-2.263-2.263c-.295-.295-.32-.86-.076-1.203a.72.72 0 0 1 .076-.09l2.263-2.263c.296-.295.862-.32 1.204-.076a.72.72 0 0 1 .09.076c.323.323.323.97 0 1.293l-1.94 1.94 1.94 1.94c.295.295.32.861.076 1.203a.72.72 0 0 1-.076.09 4.153 4.153 0 0 0-.057-.11c-.268-.497-.287-.213-.59-.213a8.086 8.086 0 0 1-.083 0c-.243-.003-.27-.03-.564-.324Z" fill="#0c0c0d" fill-rule="evenodd" data-name="Path 162"/></g><g data-name="Group 133"><path d="M447.15 945.153H436.16c-.324 0-.97-.323-.97-.97a.666.666 0 0 1 .014-.131c.064-.313.338-.758.822-.829a.926.926 0 0 1 .134-.01h10.992c.323 0 .97.324.97.97a1.396 1.396 0 0 1-.049.384.742.742 0 0 1-.562.545 1.429 1.429 0 0 1-.36.041Z" fill="#0c0c0d" fill-rule="evenodd" data-name="Path 163"/></g><g data-name="Group 134"><path d="M440.685 944.183v-3.232c0-.3.278-.88.836-.96a.926.926 0 0 1 .134-.01 1.396 1.396 0 0 1 .383.048c.287.082.469.27.545.562a1.429 1.429 0 0 1 .041.36v3.232a1.396 1.396 0 0 1-.048.384.742.742 0 0 1-.562.545 1.429 1.429 0 0 1-.36.041c-.323 0-.97-.323-.97-.97Z" fill="#0c0c0d" fill-rule="evenodd" data-name="Path 164"/></g><g data-name="Group 135"><path d="M432.28 935.455h19.073v1.616H432.28v-1.616" fill="#0c0c0d" fill-rule="evenodd" data-name="Rectangle 42"/></g><g data-name="Group 136"><path d="M448.767 941.92h-14.225c-1.616 0-3.233-1.616-3.233-3.232v-7.76a3.274 3.274 0 0 1 2.117-3.039 3.241 3.241 0 0 1 1.116-.194h14.225c1.617 0 3.233 1.294 3.233 3.233v7.76a3.543 3.543 0 0 1-.357 1.605c-.423.838-1.198 1.402-2.208 1.573a4.002 4.002 0 0 1-.668.054Zm-15.841-10.992v7.76c0 .853.5 1.457 1.282 1.589a2.001 2.001 0 0 0 .334.027h14.225c.97 0 1.617-.647 1.617-1.617v-7.759a1.772 1.772 0 0 0-.179-.802c-.256-.508-.77-.814-1.438-.814h-14.225c-.97 0-1.616.647-1.616 1.616Z" fill="#0c0c0d" fill-rule="evenodd" data-name="Path 165"/></g><g data-name="Group 137"><path d="M400.406 855.365h-16.812a.666.666 0 0 1-.131-.015c-.313-.064-.759-.337-.829-.822a.926.926 0 0 1-.01-.133v-7.113c0-.3.28-.879.837-.96a.926.926 0 0 1 .133-.01h16.812a.666.666 0 0 1 .131.015c.313.064.758.338.829.822a.926.926 0 0 1 .01.133v7.436c-.278.278-.556.556-.834.628a.538.538 0 0 1-.136.019Zm-15.842-1.617h15.195v-5.819h-15.195v5.82Z" fill="#0c0c0d" fill-rule="evenodd" data-name="Path 166"/></g><g data-name="Group 138"><path d="M399.475 846.96v-6.467H384.28v6.466c0 .3-.279.88-.837.96a.926.926 0 0 1-.133.01.666.666 0 0 1-.132-.015c-.312-.063-.758-.337-.828-.821a.926.926 0 0 1-.01-.134v-7.112c0-.3.279-.88.836-.96a.926.926 0 0 1 .134-.01h16.811a.666.666 0 0 1 .132.014c.34.07.838.388.838.956v7.435a.68.68 0 0 1-.293.523.61.61 0 0 1-.354.124.666.666 0 0 1-.131-.015c-.313-.063-.758-.337-.829-.821a.926.926 0 0 1-.01-.134Z" fill="#0c0c0d" fill-rule="evenodd" data-name="Path 167"/></g><g data-name="Group 139"><path d="M400.386 862.8h-16.811a.666.666 0 0 1-.132-.014c-.312-.064-.758-.338-.829-.822a.926.926 0 0 1-.01-.133v-7.113a.666.666 0 0 1 .015-.131c.064-.313.338-.759.822-.83a.926.926 0 0 1 .134-.009c.3 0 .879.28.96.837a.926.926 0 0 1 .01.133v6.466h15.195v-6.466c0-.3.278-.879.836-.96a.926.926 0 0 1 .133-.01c.513 0 .823.204.929.611a1.429 1.429 0 0 1 .041.36v7.435a5.4 5.4 0 0 0-.011.006c-.492.247-.796.493-1.056.594a.626.626 0 0 1-.226.047Z" fill="#0c0c0d" fill-rule="evenodd" data-name="Path 168"/></g><g data-name="Group 140"><path d="M389.504 844.373h-1.94a.666.666 0 0 1-.132-.015c-.34-.07-.838-.388-.838-.955a1.396 1.396 0 0 1 .048-.384.742.742 0 0 1 .563-.545 1.429 1.429 0 0 1 .359-.041h1.94c.323 0 .97.323.97.97 0 .513-.204.822-.611.928a1.429 1.429 0 0 1-.36.042Z" fill="#0c0c0d" fill-rule="evenodd" data-name="Path 169"/></g><g data-name="Group 141"><path d="M394.414 844.373h-1.94a.666.666 0 0 1-.131-.015c-.313-.064-.759-.337-.829-.822a.926.926 0 0 1-.01-.133 1.396 1.396 0 0 1 .049-.384.742.742 0 0 1 .562-.545 1.429 1.429 0 0 1 .36-.041h1.94a.666.666 0 0 1 .13.015c.341.069.839.387.839.955a1.396 1.396 0 0 1-.048.384.742.742 0 0 1-.563.544 1.429 1.429 0 0 1-.359.042Z" fill="#0c0c0d" fill-rule="evenodd" data-name="Path 170"/></g><g data-name="Group 142"><path d="M389.504 851.809h-1.94a.666.666 0 0 1-.132-.015c-.34-.07-.838-.388-.838-.955a.753.753 0 0 1 .027-.21c.121-.419.616-.436.906-.437a14.636 14.636 0 0 1 .037 0h1.94c.3 0 .879.279.96.836a.926.926 0 0 1 .01.134 1.25 1.25 0 0 1-.021.244c-.066.33-.29.39-.672.4a10.045 10.045 0 0 1-.277.003Z" fill="#0c0c0d" fill-rule="evenodd" data-name="Path 171"/></g><g data-name="Group 143"><path d="M394.396 851.809h-1.94a.666.666 0 0 1-.13-.015c-.314-.064-.76-.338-.83-.822a.926.926 0 0 1-.01-.133.657.657 0 0 1 .058-.287c.137-.286.501-.345.912-.357a11.18 11.18 0 0 1 .324-.003h1.94c.3 0 .879.279.96.836a.926.926 0 0 1 .01.134.657.657 0 0 1-.058.287c-.172.36-.704.36-1.236.36Z" fill="#0c0c0d" fill-rule="evenodd" data-name="Path 172"/></g><g data-name="Group 144"><path d="M389.504 859.244h-1.94c-.3 0-.88-.278-.96-.836a.926.926 0 0 1-.01-.134 1.396 1.396 0 0 1 .048-.383.742.742 0 0 1 .563-.545 1.429 1.429 0 0 1 .359-.041h1.94a.666.666 0 0 1 .131.014c.313.064.758.338.829.822a.926.926 0 0 1 .01.133c0 .513-.204.823-.611.929a1.429 1.429 0 0 1-.36.041Z" fill="#0c0c0d" fill-rule="evenodd" data-name="Path 173"/></g><g data-name="Group 145"><path d="M394.414 859.244h-1.94a.666.666 0 0 1-.131-.014c-.34-.07-.839-.388-.839-.956a1.396 1.396 0 0 1 .049-.383.742.742 0 0 1 .562-.545 1.429 1.429 0 0 1 .36-.041h1.94a.666.666 0 0 1 .13.014c.341.07.839.388.839.955 0 .513-.204.823-.61.929a1.429 1.429 0 0 1-.36.041Z" fill="#0c0c0d" fill-rule="evenodd" data-name="Path 174"/></g><g data-name="Group 146"><path d="M338.466 925.108v-3.556a6.837 6.837 0 0 1 6.294-6.772 6.901 6.901 0 0 1 .495-.017h2.586c.3 0 .88.278.96.836a.926.926 0 0 1 .01.134.666.666 0 0 1-.014.131c-.07.34-.388.838-.956.838h-2.586a4.903 4.903 0 0 0-2.592.708 4.825 4.825 0 0 0-2.257 4.142v3.556a4.516 4.516 0 0 1-.144.267c-.243.413-.486.644-.728.693a.494.494 0 0 1-.098.01.666.666 0 0 1-.132-.015c-.313-.063-.758-.337-.829-.821a.926.926 0 0 1-.01-.134Z" fill="#0c0c0d" fill-rule="evenodd" data-name="Path 175"/></g><g data-name="Group 147"><path d="m338.79 925.614-3.234-3.233c-.295-.295-.32-.86-.076-1.203a.72.72 0 0 1 .076-.09.868.868 0 0 1 .488-.23 1 1 0 0 1 .715.154.72.72 0 0 1 .09.076l2.587 2.586 2.586-2.586a.868.868 0 0 1 .488-.23 1 1 0 0 1 .715.154.72.72 0 0 1 .09.076.868.868 0 0 1 .231.488 1 1 0 0 1-.155.715.72.72 0 0 1-.076.09l-3.233 3.233a1.27 1.27 0 0 1-.165.14.957.957 0 0 1-.464.183.267.267 0 0 1-.017 0 8.086 8.086 0 0 1-.083 0c-.223-.002-.265-.026-.497-.256a30.025 30.025 0 0 1-.067-.067Z" fill="#0c0c0d" fill-rule="evenodd" data-name="Path 176"/></g><g data-name="Group 148"><path d="m344.932 918.328 1.616-1.617-1.616-1.616c-.296-.296-.321-.861-.077-1.203a.72.72 0 0 1 .077-.09c.295-.296.86-.321 1.203-.077a.72.72 0 0 1 .09.076l2.263 2.264c.323.323.323.97 0 1.293l-2.263 2.263h-.647a8.086 8.086 0 0 1-.083 0c-.243-.003-.27-.03-.563-.324a.218.218 0 0 1-.205-.15c-.089-.211-.02-.594.205-.82Z" fill="#0c0c0d" fill-rule="evenodd" data-name="Path 177"/></g><g data-name="Group 149"><path d="M343.962 946.123h-9.376c-1.293 0-2.263-.97-2.263-2.263V929.96a2.283 2.283 0 0 1 .485-1.436 2.217 2.217 0 0 1 1.607-.822 2.54 2.54 0 0 1 .171-.006h9.376a2.283 2.283 0 0 1 1.435.485c.512.408.828 1.04.828 1.779v13.901c.209.837-.259 1.538-.965 1.93a2.713 2.713 0 0 1-1.298.333Zm-10.022-16.488v13.902a.68.68 0 0 0 .293.523.61.61 0 0 0 .353.123h9.376a.578.578 0 0 0 .075.065c.296.208.571-.09.571-.388V929.96a.68.68 0 0 0-.293-.523.61.61 0 0 0-.353-.124h-9.376v-.323a.68.68 0 0 0-.522.293.61.61 0 0 0-.124.353Z" fill="#0c0c0d" fill-rule="evenodd" data-name="Path 178"/></g><g data-name="Group 150"><path d="M345.578 941.597H332.97a.666.666 0 0 1-.132-.014c-.312-.064-.758-.338-.829-.822a.926.926 0 0 1-.01-.134c0-.513.204-.822.612-.928a1.429 1.429 0 0 1 .359-.042h12.608a.666.666 0 0 1 .132.015c.34.07.838.388.838.955a.884.884 0 0 1-.075.362c-.18.405-.639.608-.895.608Z" fill="#0c0c0d" fill-rule="evenodd" data-name="Path 179"/></g><g data-name="Group 151"><path d="M345.578 932.222H332.97a.666.666 0 0 1-.132-.015c-.312-.064-.758-.338-.829-.822a.926.926 0 0 1-.01-.133.666.666 0 0 1 .015-.132c.064-.312.338-.758.822-.829a.926.926 0 0 1 .134-.01h12.608c.3 0 .88.28.96.837a.926.926 0 0 1 .01.134.36.36 0 0 1-.02.11c-.099.302-.542.745-.843.84a.356.356 0 0 1-.107.02Z" fill="#0c0c0d" fill-rule="evenodd" data-name="Path 180"/></g><g data-name="Group 152"><path d="M340.082 943.86h-1.616c-.3 0-.88-.279-.96-.836a.926.926 0 0 1-.01-.134.666.666 0 0 1 .014-.131c.07-.34.388-.839.956-.839h1.616a.666.666 0 0 1 .132.015c.312.064.758.338.829.822a.926.926 0 0 1 .01.133.884.884 0 0 1-.076.362c-.168.38-.58.581-.843.606a.56.56 0 0 1-.052.002Z" fill="#0c0c0d" fill-rule="evenodd" data-name="Path 181"/></g><g data-name="Group 153"><path d="M390.162 870.53v-7.435c0-.3.279-.88.836-.96a.926.926 0 0 1 .134-.01c.3 0 .88.278.96.836a.926.926 0 0 1 .01.134v7.759a.534.534 0 0 1-.163.375c-.157.159-.426.271-.807.271a.666.666 0 0 1-.132-.014c-.34-.07-.838-.388-.838-.956Z" fill="#0c0c0d" fill-rule="evenodd" data-name="Path 182"/></g><g data-name="Group 154"><path d="m392.104 865.21-.97-.97-.97.97c-.323.323-.97.323-1.293 0a.868.868 0 0 1-.23-.489c-.044-.29.033-.608.23-.805l1.617-1.616a.868.868 0 0 1 .488-.231 1 1 0 0 1 .715.155.72.72 0 0 1 .09.076l1.616 1.616c.324.324.324.97 0 1.293-.278.28-.557.318-.629.323a.266.266 0 0 1-.017 0 8.086 8.086 0 0 1-.083 0c-.243-.002-.27-.03-.564-.323Z" fill="#0c0c0d" fill-rule="evenodd" data-name="Path 183"/></g></g></svg>