<svg xmlns="http://www.w3.org/2000/svg" width="100.365" height="76" viewBox="320 925.074 100.365 76"><g data-name="db-as-service"><g data-name="Group 224"><path d="M405.165 972.015H358v-.223a8.475 8.475 0 0 1-.41-.013c-1.373-.071-5.46-.502-8.72-2.841a11.233 11.233 0 0 1-1.152-.946 11.101 11.101 0 0 1-3.117-6.098 16.236 16.236 0 0 1-.236-2.843 13.433 13.433 0 0 1 4.694-10.06c2.906-2.234 6.482-3.352 10.059-2.681a23.33 23.33 0 0 1 23.247-21.236c8.94 0 16.988 5.141 21.011 12.965a16.542 16.542 0 0 1 11.847 4.694c3.353 3.13 5.142 7.6 5.142 12.294a18.93 18.93 0 0 1-.439 4.147c-2.472 11.04-14.56 12.841-14.761 12.841Zm-46.941-1.117h47.164a2.143 2.143 0 0 0 .223-.025c1.822-.266 13.636-2.825 13.636-15.622a15.913 15.913 0 0 0-4.694-11.177c-3.13-2.906-7.153-4.47-11.4-4.247a.432.432 0 0 1-.186-.047 1.34 1.34 0 0 1-.317-.236 7.352 7.352 0 0 1-.168-.164c-3.576-7.6-11.4-12.518-19.894-12.518a22.03 22.03 0 0 0-21.906 20.789 1.64 1.64 0 0 1-.01.23c-.017.111-.06.196-.17.214a.283.283 0 0 1-.043.003.878.878 0 0 1-.114.096c-.18.127-.333.127-.333.127a4.462 4.462 0 0 0-2.278-.666 12.494 12.494 0 0 0-.405-.004 10.544 10.544 0 0 0-7.153 2.682c-2.682 2.235-4.247 5.365-4.247 8.941a14.614 14.614 0 0 0 .381 3.456 9.507 9.507 0 0 0 2.525 4.591 11.284 11.284 0 0 0 2.056 1.518c3.285 1.908 6.966 2.059 7.333 2.059Z" fill="#0c0c0d" fill-rule="evenodd" data-name="Path 356"/></g><g data-name="Group 225"><path d="M395.553 950.557H369.4c-.355 0-.569-.141-.642-.423a.988.988 0 0 1-.029-.248v-6.706c0-.447.224-.67.671-.67h25.93c.354 0 .568.14.641.422a.988.988 0 0 1 .029.248v6.706c.224.447-.224.67-.447.67Zm-25.482-1.342h24.588v-5.364H370.07v5.364Z" fill="#0c0c0d" fill-rule="evenodd" data-name="Path 357"/></g><g data-name="Group 226"><path d="m395.106 943.627-6.706-5.588h-11.847l-6.482 5.588c-.224.224-.671.224-.895 0a.6.6 0 0 1-.16-.337c-.029-.202.024-.42.16-.557l6.706-5.588a.277.277 0 0 0 .068-.008c.159-.04.181-.216.38-.216h12.517c.224 0 .224 0 .447.224l6.706 5.588c.224.224.224.67 0 .894a.532.532 0 0 0-.256.08 1.031 1.031 0 0 0-.187.14.313.313 0 0 0-.004.004c-.207 0-.222 0-.4-.177a20.8 20.8 0 0 1-.047-.047Z" fill="#0c0c0d" fill-rule="evenodd" data-name="Path 358"/></g><g data-name="Group 227"><path d="M384.823 947.65c-.67 0-1.34-.67-1.34-1.34 0-.671.446-1.342 1.34-1.342.895 0 1.342.67 1.342 1.342a2.954 2.954 0 0 1-.187.538 1.639 1.639 0 0 1-.314.465 1.137 1.137 0 0 1-.84.338Zm0-1.117v-.223a.818.818 0 0 0-.025.026c-.172.188.008.197.024.197a.057.057 0 0 0 .002 0Z" fill="#0c0c0d" fill-rule="evenodd" data-name="Path 359"/></g><g data-name="Group 228"><path d="M388.176 947.65c-.67 0-1.34-.67-1.34-1.34a1.304 1.304 0 0 1 .77-1.233 1.46 1.46 0 0 1 .57-.109 1.41 1.41 0 0 1 1.084.609 1.267 1.267 0 0 1 .258.733 2.954 2.954 0 0 1-.187.538c-.251.535-.636.803-1.155.803Zm0-1.117v-.223a.818.818 0 0 0-.025.026c-.18.197.025.197.025.197Z" fill="#0c0c0d" fill-rule="evenodd" data-name="Path 360"/></g><g data-name="Group 229"><path d="M391.53 947.65c-.671 0-1.342-.67-1.342-1.34a1.304 1.304 0 0 1 .77-1.233 1.46 1.46 0 0 1 .571-.109 1.464 1.464 0 0 1 .563.105c.52.215.779.726.779 1.237-.224.894-.671 1.34-1.342 1.34Zm0-1.117v-.223a.818.818 0 0 0-.026.026c-.172.188.008.197.024.197a.057.057 0 0 0 .001 0Z" fill="#0c0c0d" fill-rule="evenodd" data-name="Path 361"/></g><g data-name="Group 230"><path d="M371.308 947.51a1.879 1.879 0 0 0 1.445.811 1.858 1.858 0 0 0 .667-.119 1.781 1.781 0 0 0 1.121-1.669 1.69 1.69 0 0 0-.343-.977 1.879 1.879 0 0 0-1.445-.811 1.69 1.69 0 0 0-.977.343 1.879 1.879 0 0 0-.811 1.445 1.69 1.69 0 0 0 .343.977Zm1.445-1.424a.47.47 0 0 0-.361.203.422.422 0 0 0-.086.244.306.306 0 0 0 .188.28c.263.128.706.035.706-.28 0-.22 0-.439-.423-.447a1.282 1.282 0 0 0-.024 0Z" fill="#0c0c0d" fill-rule="evenodd" data-name="Path 362"/></g><g data-name="Group 231"><path d="M395.553 957.262H369.4c-.447 0-.67-.223-.67-.67v-6.706c0-.447.223-.67.67-.67a.965.965 0 0 1 .265.033c.27.077.406.29.406.637v6.035h24.588v-6.035c0-.447.223-.67.67-.67.355 0 .57.14.642.422a.988.988 0 0 1 .029.248v6.706a.66.66 0 0 1 .033.078c.138.395-.27.592-.48.592Z" fill="#0c0c0d" fill-rule="evenodd" data-name="Path 363"/></g><g data-name="Group 232"><path d="M383.74 953.971a1.41 1.41 0 0 0 1.083.61 1.065 1.065 0 0 0 .741-.32 2.524 2.524 0 0 0 .6-1.022 1.976 1.976 0 0 0-.056-.497c-.106-.405-.357-.664-.754-.778a1.93 1.93 0 0 0-.53-.066 1.779 1.779 0 0 0-.01 0c-.213.001-.4.04-.561.108a1.304 1.304 0 0 0-.77 1.233 1.267 1.267 0 0 0 .257.732Zm1.084-.732h-.224c0 .21.197.223.221.038a.298.298 0 0 0 .003-.038Z" fill="#0c0c0d" fill-rule="evenodd" data-name="Path 364"/></g><g data-name="Group 233"><path d="M387.092 953.971a1.41 1.41 0 0 0 1.084.61 1.065 1.065 0 0 0 .741-.32 2.524 2.524 0 0 0 .6-1.022c0-.894-.67-1.341-1.34-1.341a1.779 1.779 0 0 0-.01 0c-.888.005-1.332.673-1.332 1.34a1.267 1.267 0 0 0 .257.733Zm1.084-.732h-.223c0 .223.223.223.223 0Z" fill="#0c0c0d" fill-rule="evenodd" data-name="Path 365"/></g><g data-name="Group 234"><path d="M390.445 953.971a1.41 1.41 0 0 0 1.084.61 1.065 1.065 0 0 0 .741-.32 2.524 2.524 0 0 0 .6-1.022c0-.695-.27-1.12-.81-1.275a1.93 1.93 0 0 0-.53-.066 1.779 1.779 0 0 0-.01 0c-.888.005-1.332.673-1.332 1.34a1.267 1.267 0 0 0 .257.733Zm1.084-.732h-.223c0 .21.197.223.221.038a.298.298 0 0 0 .002-.038Z" fill="#0c0c0d" fill-rule="evenodd" data-name="Path 366"/></g><g data-name="Group 235"><path d="M371.308 954.216a1.879 1.879 0 0 0 1.445.811 1.858 1.858 0 0 0 .667-.119 1.781 1.781 0 0 0 1.121-1.67 1.69 1.69 0 0 0-.343-.976 1.879 1.879 0 0 0-1.445-.811c-.894 0-1.788.894-1.788 1.788a1.69 1.69 0 0 0 .343.977Zm1.445-1.424a.47.47 0 0 0-.361.203.422.422 0 0 0-.086.244.306.306 0 0 0 .188.28c.263.128.706.035.706-.28 0-.22 0-.44-.423-.447a1.282 1.282 0 0 0-.024 0Z" fill="#0c0c0d" fill-rule="evenodd" data-name="Path 367"/></g><g data-name="Group 236"><path d="M393.094 964.192h-21.459c-1.564 0-2.906-1.341-2.906-2.906v-4.47c0-.448.224-.671.671-.671a.965.965 0 0 1 .265.033c.27.077.406.29.406.637v4.471c0 .894.67 1.565 1.564 1.565h21.46c.893 0 1.564-.67 1.564-1.565v-4.47a.965.965 0 0 1 .033-.266c.077-.27.29-.405.637-.405.447 0 .671.223.671.67v4.471c.162 1.134-.498 2.151-1.555 2.625a3.298 3.298 0 0 1-1.35.28Z" fill="#0c0c0d" fill-rule="evenodd" data-name="Path 368"/></g><g data-name="Group 237"><path d="M383.74 960.677a1.41 1.41 0 0 0 1.083.609c.671 0 1.118-.67 1.342-1.341a1.976 1.976 0 0 0-.057-.497c-.147-.563-.575-.844-1.284-.844a1.779 1.779 0 0 0-.01 0c-.213 0-.4.04-.561.108a1.304 1.304 0 0 0-.77 1.233 1.267 1.267 0 0 0 .257.732Zm1.084-.732h-.224c0 .21.197.223.221.038a.298.298 0 0 0 .003-.038Z" fill="#0c0c0d" fill-rule="evenodd" data-name="Path 369"/></g><g data-name="Group 238"><path d="M387.092 960.677a1.41 1.41 0 0 0 1.084.609 1.065 1.065 0 0 0 .741-.318 2.524 2.524 0 0 0 .6-1.023 1.779 1.779 0 0 0 0-.01c0-.213-.04-.4-.108-.561a1.304 1.304 0 0 0-1.233-.77c-.216 0-.406.039-.57.108a1.304 1.304 0 0 0-.77 1.233 1.267 1.267 0 0 0 .256.732Zm1.084-.732h-.223a.276.276 0 0 0 .006.059c.035.162.217.143.217-.06Z" fill="#0c0c0d" fill-rule="evenodd" data-name="Path 370"/></g><g data-name="Group 239"><path d="M390.445 960.677a1.41 1.41 0 0 0 1.084.609 1.065 1.065 0 0 0 .741-.318 2.524 2.524 0 0 0 .6-1.023 1.976 1.976 0 0 0-.057-.497c-.146-.563-.574-.844-1.284-.844-.216 0-.406.039-.57.108a1.304 1.304 0 0 0-.77 1.233 1.267 1.267 0 0 0 .256.732Zm1.084-.732h-.223c0 .21.197.223.221.038a.298.298 0 0 0 .002-.038Z" fill="#0c0c0d" fill-rule="evenodd" data-name="Path 371"/></g><g data-name="Group 240"><path d="M371.308 960.921a1.879 1.879 0 0 0 1.445.812c1.118 0 2.012-.67 1.788-1.788 0-.894-.894-1.788-1.788-1.788s-1.788.894-1.788 1.788a1.69 1.69 0 0 0 .343.976Zm1.445-1.423a.47.47 0 0 0-.361.203.422.422 0 0 0-.086.244c0 .33.49.417.744.258a.296.296 0 0 0 .15-.258c0-.22 0-.44-.423-.447a1.282 1.282 0 0 0-.024 0Z" fill="#0c0c0d" fill-rule="evenodd" data-name="Path 372"/></g><g data-name="Group 241"><path d="M336.765 1001.074H320.67c-.355 0-.57-.14-.642-.422a.988.988 0 0 1-.029-.248v-28.389c0-.447.224-.67.67-.67h16.318c.447 0 .67.223.67.67v28.389a2.28 2.28 0 0 1-.165.285c-.18.257-.39.385-.728.385Zm-15.424-1.341h14.977v-27.047H321.34v27.047Z" fill="#0c0c0d" fill-rule="evenodd" data-name="Path 373"/></g><g data-name="Group 242"><path d="M405.835 997.05h-69.07c-.447 0-.67-.223-.67-.67a.965.965 0 0 1 .032-.265c.078-.27.29-.405.638-.405h68.176a4.354 4.354 0 0 0-.417-1.112c-2.545-4.803-14.58-9.618-29.312-9.618h-28.165c-.447 0-.67-.223-.67-.67 0-.448.223-.671.67-.671h28.388a64.265 64.265 0 0 1 14.765 1.689c6.23 1.49 11.308 3.853 14.061 6.634a6.706 6.706 0 0 1 2.245 4.642.336.336 0 0 1-.006.01c-.03.056-.195.331-.492.413a.645.645 0 0 1-.173.024Z" fill="#0c0c0d" fill-rule="evenodd" data-name="Path 374"/></g><g data-name="Group 243"><path d="M351.07 976.71h-14.305v-1.342h14.306c8.079 0 12.69 4.198 15.318 6.821a803.542 803.542 0 0 1 .776.78l.67.67-1.117.894a39747.043 39747.043 0 0 1-.336-.335l-.335-.336a61.854 61.854 0 0 1-.037-.037c-2.35-2.353-6.317-6.685-13.81-7.086a21.165 21.165 0 0 0-1.13-.03Z" fill="#0c0c0d" fill-rule="evenodd" data-name="Path 375"/></g></g></svg>