<svg xmlns="http://www.w3.org/2000/svg" width="46.155" height="40" viewBox="330 872 46.155 40"><path d="M376.154 875.846V902a3.699 3.699 0 0 1-1.095 2.681 4.519 4.519 0 0 1-.035.036 3.7 3.7 0 0 1-2.667 1.129 4.433 4.433 0 0 1-.05 0h-13.076a4.613 4.613 0 0 0 .146 1.13 5.961 5.961 0 0 0 .238.733c.24.606.48 1.142.719 1.608a12.633 12.633 0 0 0 .05.098 7.519 7.519 0 0 1 .15.301c.157.334.235.583.235.746a1.478 1.478 0 0 1-.442 1.067 1.878 1.878 0 0 1-.014.015 1.55 1.55 0 0 1-.527.354 1.484 1.484 0 0 1-.555.102h-12.308a1.478 1.478 0 0 1-1.068-.442 1.878 1.878 0 0 1-.014-.014 1.472 1.472 0 0 1-.456-1.079 1.699 1.699 0 0 1 0-.003.922.922 0 0 1 .027-.206c.033-.144.098-.32.193-.525a6.6 6.6 0 0 1 .164-.327 13.19 13.19 0 0 0 .24-.474c.129-.266.257-.551.385-.857a22.489 22.489 0 0 0 .144-.352 5.51 5.51 0 0 0 .311-1.067 4.547 4.547 0 0 0 .074-.808h-13.077c-1.058 0-1.964-.376-2.717-1.13A3.7 3.7 0 0 1 330 902.05a4.433 4.433 0 0 1 0-.049v-26.154a3.699 3.699 0 0 1 1.094-2.681 4.519 4.519 0 0 1 .035-.036 3.7 3.7 0 0 1 2.668-1.129 4.433 4.433 0 0 1 .05 0h38.46a3.699 3.699 0 0 1 2.682 1.094 4.514 4.514 0 0 1 .035.035 3.7 3.7 0 0 1 1.13 2.668 4.433 4.433 0 0 1 0 .05Zm-3.077 20v-20a.738.738 0 0 0-.221-.534.935.935 0 0 0-.007-.007.776.776 0 0 0-.267-.178.747.747 0 0 0-.274-.05h-38.462a.738.738 0 0 0-.534.221.935.935 0 0 0-.007.007.776.776 0 0 0-.178.266.747.747 0 0 0-.05.275v20a.738.738 0 0 0 .221.534.935.935 0 0 0 .007.007.776.776 0 0 0 .266.178.747.747 0 0 0 .275.05h38.462a.738.738 0 0 0 .534-.22.93.93 0 0 0 .007-.008.776.776 0 0 0 .178-.266.747.747 0 0 0 .05-.275Z" fill="#f22a73" fill-rule="evenodd" data-name="desktop"/></svg>