<svg xmlns="http://www.w3.org/2000/svg" width="55" height="48.003" viewBox="889 2978.526 55 48.003"><g data-name="Group 210"><path d="M921.709 3016.28H911.29a50.257 50.257 0 0 0 1.972 3.716c1.232 2.113 2.465 3.907 3.237 4.83a17.618 17.618 0 0 0 .658-.847c1.27-1.728 3.128-4.701 4.55-7.7Z" fill="#f22a73" fill-rule="evenodd" data-name="Path 329"/><path d="M936.188 3016.28h-11.963a52.179 52.179 0 0 1-2.591 5.015c-1.286 2.197-2.587 4.076-3.564 5.234 7.31-.504 13.972-4.356 18.118-10.25Z" fill="#f22a73" fill-rule="evenodd" data-name="Path 330"/><path d="M924.94 2988.78h11.349a24.176 24.176 0 0 0-18.22-10.254c1.865 2.175 4.338 4.83 6.523 9.487a36.37 36.37 0 0 1 .348.766Z" fill="#f22a73" fill-rule="evenodd" data-name="Path 331"/><path d="M942.854 2993.363h-4.107c-.323-.78-.648-1.559-1.042-2.292H925.84a32.022 32.022 0 0 1 .661 2.204 2001.994 2001.994 0 0 0 .024.088h-2.395a100.509 100.509 0 0 1-.118-.413c-.18-.631-.36-1.262-.597-1.88h-13.832c-.289.752-.493 1.525-.715 2.293h-2.395a2475.467 2475.467 0 0 0 .023-.084 32.057 32.057 0 0 1 .662-2.208h-11.864c-.394.733-.72 1.512-1.042 2.292h-4.107c-.633 0-1.146.513-1.146 1.145v16.042c0 .632.513 1.146 1.146 1.146h4.177a24.514 24.514 0 0 0 1.06 2.292h12.43a29.646 29.646 0 0 1-.142-.382 57.192 57.192 0 0 1-.645-1.91h2.425a267.006 267.006 0 0 1 .086.268c.177.548.353 1.095.559 1.642a17.333 17.333 0 0 0 .148.382h12.512c.271-.675.49-1.349.707-2.024a266.96 266.96 0 0 1 .086-.268h2.425a57.078 57.078 0 0 1-.645 1.91 29.642 29.642 0 0 1-.141.382h12.43a24.498 24.498 0 0 0 1.058-2.292h4.178c.633 0 1.146-.514 1.146-1.146v-16.042c0-.632-.513-1.145-1.146-1.145Zm-1.146 16.041h-50.416v-13.75h50.416v13.75Z" fill="#f22a73" fill-rule="evenodd" data-name="Path 332"/><path d="M908.775 3016.28h-11.963c4.146 5.893 10.808 9.745 18.118 10.25a23.113 23.113 0 0 1-.924-1.181c-1.372-1.862-3.072-4.603-4.502-7.515a46.566 46.566 0 0 1-.729-1.555Z" fill="#f22a73" fill-rule="evenodd" data-name="Path 333"/><path d="M910.578 2988.78h11.844c-1.869-3.881-3.788-6.079-5.687-8.277a323.728 323.728 0 0 1-.235-.272 323.224 323.224 0 0 1-.235.272c-1.61 1.864-3.235 3.728-4.831 6.617a33.365 33.365 0 0 0-.856 1.66Z" fill="#f22a73" fill-rule="evenodd" data-name="Path 334"/><path d="M896.711 2988.78h11.349c1.916-4.344 4.098-7.033 5.914-9.145a1176.883 1176.883 0 0 0 .956-1.11 24.176 24.176 0 0 0-18.219 10.254Z" fill="#f22a73" fill-rule="evenodd" data-name="Path 335"/></g></svg>