<svg xmlns="http://www.w3.org/2000/svg" width="58.331" height="50.001" viewBox="30.834 34.654 58.331 50.001"><path d="M58.568 84.066 38.256 64.472a4.995 4.995 0 0 1-.202-.173c-.13-.116-.28-.258-.45-.427a21.712 21.712 0 0 1-.242-.246 11.308 11.308 0 0 1-.327-.353c-.329-.37-.758-.883-1.288-1.54a92.942 92.942 0 0 1-.192-.24 28.746 28.746 0 0 1-2.213-3.174c-.597-.994-1.134-2.181-1.614-3.56a27.816 27.816 0 0 1-.128-.379 15.163 15.163 0 0 1-.657-2.832 12.893 12.893 0 0 1-.108-1.65 11.743 11.743 0 0 1 0-.01 20.024 20.024 0 0 1 .488-4.554 13.273 13.273 0 0 1 3.645-6.643c2.756-2.691 6.565-4.037 11.427-4.037a12.593 12.593 0 0 1 3.268.445 14.722 14.722 0 0 1 .85.255 16.72 16.72 0 0 1 3.906 1.888 50.794 50.794 0 0 1 1.485 1.011c.446.316.861.624 1.247.923a28.845 28.845 0 0 1 .376.296A30.671 30.671 0 0 1 60 41.685a29.952 29.952 0 0 1 2.474-2.213 33.338 33.338 0 0 1 1.236-.94 49.267 49.267 0 0 1 1.873-1.29 16.678 16.678 0 0 1 3.907-1.888 13.566 13.566 0 0 1 2.848-.631 11.898 11.898 0 0 1 1.268-.069 21.259 21.259 0 0 1 4.64.477c2.714.607 4.976 1.794 6.785 3.56a13.273 13.273 0 0 1 3.645 6.643 20.024 20.024 0 0 1 .488 4.555 15.682 15.682 0 0 1-1.638 6.801c-.754 1.58-1.768 3.167-3.043 4.764a37.176 37.176 0 0 1-2.772 3.082l-20.28 19.532a1.949 1.949 0 0 1-1.433.586l.002-.001a2.008 2.008 0 0 1-.889-.195 2.006 2.006 0 0 1-.544-.392Z" fill="#f22a73" fill-rule="evenodd" data-name="heart"/></svg>