<svg xmlns="http://www.w3.org/2000/svg" width="60" height="60" viewBox="456 1105 60 60"><g data-name="icon"><path d="M456 1134.95a30 30 0 1 1 0 .1" fill="#111" fill-rule="evenodd" data-name="Ellipse 15"/><g data-name="icon"><path d="M501 1123.922V1123a2.197 2.197 0 0 0-1.025-1.666c-2.164-1.675-7.536-2.834-13.975-2.834a47.924 47.924 0 0 0-5.892.348c-5.401.675-9.108 2.26-9.108 4.152a.756.756 0 0 0 .165.442c.907 1.248 5.477 2.568 11.42 2.95a53.46 53.46 0 0 0 3.415.108c6.869 0 12.938-1.262 15-2.578Z" fill="#fff" fill-rule="evenodd" data-name="Path 300"/><path d="M471 1129.274v2.638a.756.756 0 0 0 .165.442c.907 1.248 5.476 2.568 11.42 2.95a53.473 53.473 0 0 0 3.415.108 55.71 55.71 0 0 0 6.389-.365c4.03-.47 7.225-1.33 8.611-2.214v-3.252a17.78 17.78 0 0 1-2.637.902c-3.363.899-7.996 1.429-12.363 1.429-5.947 0-12.207-1.008-15-2.638Z" fill="#fff" fill-rule="evenodd" data-name="Path 301"/><path d="M471 1136.895v2.638a.756.756 0 0 0 .165.442c.907 1.247 5.476 2.568 11.42 2.949a53.473 53.473 0 0 0 3.415.109c5.493 0 10.476-.808 13.306-1.804a8.468 8.468 0 0 0 1.694-.774v-3.253c-2.778 1.244-7.746 2.082-12.715 2.284a56.518 56.518 0 0 1-2.285.047c-5.947 0-12.207-1.008-15-2.638Z" fill="#fff" fill-rule="evenodd" data-name="Path 302"/><path d="M471 1144.862V1147a2.197 2.197 0 0 0 1.025 1.666c2.164 1.675 7.536 2.834 13.975 2.834a47.924 47.924 0 0 0 5.892-.348c5.401-.675 9.108-2.26 9.108-4.152v-1.831c-2.778 1.245-7.746 2.083-12.715 2.284a56.518 56.518 0 0 1-2.285.047c-5.947 0-12.207-1.008-15-2.638Z" fill="#fff" fill-rule="evenodd" data-name="Path 303"/></g></g></svg>