<svg xmlns="http://www.w3.org/2000/svg" width="30.722" height="38.403" viewBox="24.505 26.742 30.722 38.403"><path d="M28.742 40.182h-.397a3.84 3.84 0 0 1-3.84-3.84 3.84 3.84 0 0 1 3.84-3.84v-1.92a3.84 3.84 0 0 1 3.84-3.84h15.361a3.84 3.84 0 0 1 3.84 3.84v1.92a3.84 3.84 0 0 1 3.84 3.84 3.84 3.84 0 0 1-3.84 3.84h-.396a10.568 10.568 0 0 1-9.204 7.639v7.723h1.92a3.84 3.84 0 0 1 3.84 3.84v1.92h1.92c1.06 0 1.92.86 1.92 1.92a1.92 1.92 0 0 1-1.92 1.92H30.265a1.92 1.92 0 0 1-1.92-1.92 1.92 1.92 0 0 1 1.92-1.92h1.92v-1.92a3.84 3.84 0 0 1 3.84-3.84h1.92V47.82a10.568 10.568 0 0 1-9.203-7.639Zm3.443-9.6v6.72a6.72 6.72 0 0 0 6.72 6.72h1.92a6.72 6.72 0 0 0 6.721-6.72v-6.72h-15.36Z" fill="#f22a73" fill-rule="evenodd" data-name="trophy"/></svg>