<svg xmlns="http://www.w3.org/2000/svg" width="43.223" height="43.223" viewBox="1486.877 4540 43.223 43.223"><path d="M1527.013 4540h-37.058c-1.698 0-3.078 1.399-3.078 3.116v36.99c0 1.718 1.38 3.117 3.078 3.117h37.058c1.698 0 3.087-1.399 3.087-3.116v-36.99c0-1.718-1.39-3.117-3.087-3.117Zm-3.059 37.048h-6.406v-10.034c0-2.087-.037-4.696-2.224-5.328a3.971 3.971 0 0 0-1.104-.142c-3.339 0-3.85 2.605-3.85 5.297v10.207h-6.406v-20.627h6.146v2.817h.086c.843-1.591 2.876-3.266 5.899-3.327a8.46 8.46 0 0 1 .17-.001c5.03 0 6.884 2.573 7.462 6.322a23.282 23.282 0 0 1 .227 3.509v11.307Zm-24.013 0h-6.407v-20.627h6.416v20.627h-.01Zm-3.204-23.444a3.716 3.716 0 0 1-3.714-3.715 3.716 3.716 0 0 1 3.714-3.714 3.722 3.722 0 0 1 3.715 3.714 3.71 3.71 0 0 1-3.715 3.715Z" fill="#252526" fill-rule="evenodd" data-name="Icon awesome-linkedin"/></svg>