<svg xmlns="http://www.w3.org/2000/svg" width="50" height="50" viewBox="34 34.654 50 50"><path d="m56.222 61.397 15.799 16.406a21.894 21.894 0 0 1-7.161 5.048 21.2 21.2 0 0 1-8.638 1.803c-4.031 0-7.75-1.031-11.154-3.095a22.57 22.57 0 0 1-8.087-8.398C34.994 69.625 34 65.764 34 61.578c0-4.187.994-8.048 2.98-11.583 1.988-3.536 4.683-6.335 8.088-8.399a21.121 21.121 0 0 1 11.154-3.095v22.896Zm25.927-3.666H59.926V34.654c4.032 0 7.75 1.032 11.155 3.095a22.57 22.57 0 0 1 8.087 8.399 23.242 23.242 0 0 1 2.98 11.583Zm-20.516 3.847H84a23.5 23.5 0 0 1-1.736 8.97 22.814 22.814 0 0 1-4.861 7.436l-15.77-16.406Z" fill="#f22a73" fill-rule="evenodd" data-name="pie-chart"/></svg>