<svg xmlns="http://www.w3.org/2000/svg" width="15.429" height="18" viewBox="4.5 2.25 15.429 18"><path d="M19.929 12.536v5.143a2.571 2.571 0 0 1-2.572 2.571H7.071A2.571 2.571 0 0 1 4.5 17.679v-5.143a2.571 2.571 0 0 1 2.571-2.572V7.393a5.143 5.143 0 0 1 5.143-5.143 5.143 5.143 0 0 1 5.143 5.143v2.571a2.571 2.571 0 0 1 2.572 2.572Zm-2.572-.857H7.071a.857.857 0 0 0-.857.857v5.143a.857.857 0 0 0 .857.857h10.286a.857.857 0 0 0 .857-.857v-5.143a.857.857 0 0 0-.857-.857Zm-1.714-4.286v2.571H8.786V7.393a3.429 3.429 0 0 1 3.428-3.429 3.429 3.429 0 0 1 3.429 3.429Z" fill="#fff" fill-rule="evenodd" data-name="Path 138"/></svg>