<svg xmlns="http://www.w3.org/2000/svg" width="65" height="63.004" viewBox="324 2232.833 65 63.004"><g data-name="icon"><g data-name="Group 61"><path d="m332.142 2258.909-3.505-3.046a1.938 1.938 0 0 1-.669-1.343 1.967 1.967 0 0 1-.005-.138 1.93 1.93 0 0 1 .484-1.278l3.042-3.5a1.921 1.921 0 0 1 1.339-.67c.064-.008.129-.012.194-.012a1.888 1.888 0 0 1 1.221.487l3.505 3.042c.811.702.9 1.94.199 2.759l-3.043 3.504a1.97 1.97 0 0 1-1.12.636 1.988 1.988 0 0 1-.364.034 1.94 1.94 0 0 1-1.19-.403 1.962 1.962 0 0 1-.088-.072Zm.823-9.171-.08.004a1.12 1.12 0 0 0-.78.393l-3.046 3.505a1.104 1.104 0 0 0-.283.735 1.086 1.086 0 0 0 .003.088 1.134 1.134 0 0 0 .39.787l3.504 3.046a1.127 1.127 0 0 0 .571.266c.339.052.696-.05.963-.296a1.192 1.192 0 0 0 .085-.087l3.038-3.5a1.142 1.142 0 0 0 .262-.552 1.143 1.143 0 0 0-.351-1.042 1.141 1.141 0 0 0-.025-.021l-3.504-3.042a1.142 1.142 0 0 0-.747-.284Z" fill="#0c0c0d" fill-rule="evenodd" data-name="Path 95"/></g><g data-name="Group 62"><path d="m338.737 2251.308-3.5-3.039a1.952 1.952 0 0 1-.673-1.346 2.003 2.003 0 0 1-.004-.125 1.954 1.954 0 0 1 .482-1.287l3.046-3.505a1.92 1.92 0 0 1 1.335-.669 1.722 1.722 0 0 1 .186-.01 1.863 1.863 0 0 1 1.234.489l3.504 3.038a1.946 1.946 0 0 1 .634 1.094 1.961 1.961 0 0 1-.439 1.664l-3.042 3.505a1.942 1.942 0 0 1-.947.597 1.98 1.98 0 0 1-.53.072 1.942 1.942 0 0 1-1.194-.404 1.998 1.998 0 0 1-.092-.074Zm.824-9.164h-.081a1.136 1.136 0 0 0-.779.394l-3.046 3.504a1.126 1.126 0 0 0-.283.75 1.184 1.184 0 0 0 .003.078c.02.304.162.584.39.787l3.508 3.038c.475.418 1.2.361 1.614-.11l3.043-3.504a1.151 1.151 0 0 0 .26-.555 1.136 1.136 0 0 0-.374-1.055l-3.505-3.043a1.124 1.124 0 0 0-.75-.284Z" fill="#0c0c0d" fill-rule="evenodd" data-name="Path 96"/></g><g data-name="Group 63"><path d="m328.175 2249.308-3.505-3.042a1.952 1.952 0 0 1-.261-2.669 1.976 1.976 0 0 1 .07-.086l3.043-3.504a1.937 1.937 0 0 1 1.334-.67 2.361 2.361 0 0 1 .093-.001 2.006 2.006 0 0 1 1.331.476l3.505 3.046c.778.673.892 1.838.278 2.651a1.976 1.976 0 0 1-.084.103l-3.046 3.505c-.34.394-.82.633-1.338.67l-.138.008c-.47 0-.921-.17-1.282-.487Zm.823-9.163-.085.004a1.116 1.116 0 0 0-.779.39l-3.042 3.504a1.138 1.138 0 0 0-.265.558c-.062.364.053.749.334 1.018a1.15 1.15 0 0 0 .037.034l3.512 3.046a1.212 1.212 0 0 0 .52.258c.077.017.154.026.23.026a.884.884 0 0 0 .078-.004c.304-.02.58-.162.783-.393l3.046-3.505c.41-.479.361-1.2-.114-1.61l-3.504-3.046a1.14 1.14 0 0 0-.75-.28Z" fill="#0c0c0d" fill-rule="evenodd" data-name="Path 97"/></g><g data-name="Group 64"><path d="m331.915 2255.632-1.752-1.522a.405.405 0 0 1-.045-.572l1.265-1.46a1.574 1.574 0 0 1 .804-.495 1.554 1.554 0 0 1 1.407.333 1.573 1.573 0 0 1 .54 1.087 1.619 1.619 0 0 1 .003.11 1.523 1.523 0 0 1-.385 1.018l-1.265 1.46a.397.397 0 0 1-.198.123.425.425 0 0 1-.11.015.407.407 0 0 1-.238-.077.427.427 0 0 1-.026-.02Zm-.917-1.87 1.14.99 1.002-1.153a.725.725 0 0 0 .185-.482.762.762 0 0 0-.003-.061.767.767 0 0 0-.26-.528.765.765 0 0 0-1.066.082l-.998 1.152Z" fill="#0c0c0d" fill-rule="evenodd" data-name="Path 98"/></g><g data-name="Group 65"><path d="m333.667 2257.157-1.752-1.521a.418.418 0 0 1-.127-.2.406.406 0 0 1 .066-.356.413.413 0 0 1 .016-.02l1.266-1.457a1.601 1.601 0 0 1 .761-.48 1.557 1.557 0 0 1 1.408.283 1.561 1.561 0 0 1 .041.035c.317.276.507.657.54 1.075a1.55 1.55 0 0 1 .005.12 1.547 1.547 0 0 1-.386 1.02l-1.266 1.456a.409.409 0 0 1-.308.142.407.407 0 0 1-.238-.077.427.427 0 0 1-.026-.02Zm-.917-1.87 1.14.99 1.006-1.153a.756.756 0 0 0 .181-.487.738.738 0 0 0-.002-.06.742.742 0 0 0-.26-.523.773.773 0 0 0-1.03.043.786.786 0 0 0-.037.038l-.998 1.152Z" fill="#0c0c0d" fill-rule="evenodd" data-name="Path 99"/></g><g data-name="Group 66"><path d="m329.335 2247.714-2.178-4.535a.416.416 0 0 1 .06-.446.408.408 0 0 1 .435-.114l4.717 1.61a.41.41 0 0 1 .268.453.404.404 0 0 1-.016.062.412.412 0 0 1-.422.273.43.43 0 0 1-.094-.017l-3.796-1.302 1.76 3.663a.407.407 0 0 1-.19.543.458.458 0 0 1-.179.04.409.409 0 0 1-.365-.23Z" fill="#0c0c0d" fill-rule="evenodd" data-name="Path 100"/></g><g data-name="Group 67"><path d="m328.674 2245.759 1.687-1.943a.405.405 0 0 1 .568-.045.403.403 0 0 1 .004.004.41.41 0 0 1 .122.189.402.402 0 0 1-.072.372.405.405 0 0 1-.01.01l-1.687 1.944a.41.41 0 0 1-.267.14.376.376 0 0 1-.037.002.411.411 0 0 1-.268-.097.41.41 0 0 1-.124-.196.41.41 0 0 1 .084-.38Z" fill="#0c0c0d" fill-rule="evenodd" data-name="Path 101"/></g><g data-name="Group 68"><path d="M338.226 2248.363a2.708 2.708 0 0 0 1.785.669 5.788 5.788 0 0 0 .094 0 1.866 1.866 0 0 0 .093-.004 2.72 2.72 0 0 0 1.874-.933 2.7 2.7 0 0 0 .668-1.78 2.763 2.763 0 0 0-.007-.2c-.011-.206-.161-.391-.377-.383a.382.382 0 0 0-.053.006.408.408 0 0 0-.378.405.405.405 0 0 0 0 .03 1.916 1.916 0 0 1 .006.137 1.902 1.902 0 0 1-.472 1.254c-.336.385-.803.62-1.314.653a1.887 1.887 0 0 1-.16.006 1.85 1.85 0 0 1-1.227-.473 1.897 1.897 0 0 1-.653-1.31 1.893 1.893 0 0 1 .462-1.391 1.924 1.924 0 0 1 1.241-.65.405.405 0 0 0 .364-.401.403.403 0 0 0-.003-.045.377.377 0 0 0-.208-.302.556.556 0 0 0-.238-.059 2.718 2.718 0 0 0-1.768.925 2.712 2.712 0 0 0-.668 1.79 2.836 2.836 0 0 0 .006.19 2.726 2.726 0 0 0 .933 1.866Z" fill="#0c0c0d" fill-rule="evenodd" data-name="Path 102"/></g><g data-name="Group 69"><path d="m376.124 2258.029-2.555-1.51a.405.405 0 0 1-.142-.555l6.283-10.644a.385.385 0 0 1 .247-.186.39.39 0 0 1 .102-.014.4.4 0 0 1 .182.045.473.473 0 0 1 .025.013l2.555 1.513a.398.398 0 0 1 .172.203.41.41 0 0 1-.02.336.427.427 0 0 1-.01.017l-6.283 10.64a.399.399 0 0 1-.248.186.542.542 0 0 1-.051.01.407.407 0 0 1-.05.003.418.418 0 0 1-.207-.057Zm-1.793-2 1.858 1.095 5.87-9.942-1.858-1.099-5.87 9.946Z" fill="#0c0c0d" fill-rule="evenodd" data-name="Path 103"/></g><g data-name="Group 70"><path d="m386.979 2256.686-7.614-4.117a.404.404 0 0 1-.169-.543.403.403 0 0 1 .003-.005.408.408 0 0 1 .537-.173.423.423 0 0 1 .014.007l7.472 4.04.073-.016a38.722 38.722 0 0 0 .15-.039c.341-.088.6-.167.682-.302.088-.143.083-.445-.012-.9a6.407 6.407 0 0 0-.033-.15l-7.772-3.456a.396.396 0 0 1-.212-.218.413.413 0 0 1 .005-.318.398.398 0 0 1 .268-.227.397.397 0 0 1 .268.024l7.954 3.538a.387.387 0 0 1 .227.267c.24.921.24 1.456.004 1.854-.263.446-.758.572-1.33.714l-.223.057a.402.402 0 0 1-.087.012.472.472 0 0 1-.015 0 .402.402 0 0 1-.179-.043.437.437 0 0 1-.011-.006Z" fill="#0c0c0d" fill-rule="evenodd" data-name="Path 104"/></g><g data-name="Group 71"><path d="m382.537 2249.287 2.511-4.259c.134-.223.166-.519.093-.807a1.197 1.197 0 0 0-.212-.434.984.984 0 0 0-.262-.235.4.4 0 0 1-.198-.347c0-.068.017-.136.052-.199a.4.4 0 0 1 .004-.006.397.397 0 0 1 .555-.142 1.826 1.826 0 0 1 .746.87 2.025 2.025 0 0 1 .098.294 1.977 1.977 0 0 1 .05.264c.01.079.015.158.015.236a1.814 1.814 0 0 1-.243.92l-2.511 4.255a.403.403 0 0 1-.175.16.408.408 0 0 1-.174.039.38.38 0 0 1-.207-.057.404.404 0 0 1-.171-.196.392.392 0 0 1 .017-.334.403.403 0 0 1 .012-.022Z" fill="#0c0c0d" fill-rule="evenodd" data-name="Path 105"/></g><g data-name="Group 72"><path d="m372.944 2259.696.88-1.489c.118-.19.373-.26.556-.142a.398.398 0 0 1 .172.202.41.41 0 0 1-.03.354l-.88 1.489a.416.416 0 0 1-.244.184.397.397 0 0 1-.105.014.405.405 0 0 1-.349-.612Z" fill="#0c0c0d" fill-rule="evenodd" data-name="Path 106"/></g><g data-name="Group 73"><path d="m382.407 2247.381-2.555-1.505a.385.385 0 0 1-.187-.247.374.374 0 0 1-.013-.101.38.38 0 0 1 .058-.203l2.762-4.685a.385.385 0 0 1 .248-.187.375.375 0 0 1 .1-.014.39.39 0 0 1 .017 0 .401.401 0 0 1 .19.059l2.556 1.508a.4.4 0 0 1 .198.348c0 .07-.018.14-.056.204l-2.762 4.681a.403.403 0 0 1-.175.16.408.408 0 0 1-.174.039.38.38 0 0 1-.207-.057Zm-1.793-1.996 1.858 1.096 2.349-3.984-1.858-1.095-2.349 3.983Zm-.962.143v-.003" fill="#0c0c0d" fill-rule="evenodd" data-name="Path 107"/></g><g data-name="Group 74"><path d="m374.607 2259.14-1.278-.754a.399.399 0 0 1-.186-.248.395.395 0 0 1-.014-.102.394.394 0 0 1 .058-.206l.88-1.489a.416.416 0 0 1 .353-.196.385.385 0 0 1 .2.054.406.406 0 0 1 .184.237.4.4 0 0 1-.039.32l-.673 1.139.58.34.673-1.14a.41.41 0 0 1 .35-.198.38.38 0 0 1 .202.057c.193.112.258.36.15.55a.398.398 0 0 1-.004.006l-.88 1.488a.416.416 0 0 1-.244.185.397.397 0 0 1-.105.014.38.38 0 0 1-.207-.057Z" fill="#0c0c0d" fill-rule="evenodd" data-name="Path 108"/></g><g data-name="Group 75"><path d="M370.608 2248.902a5.32 5.32 0 0 0 1.373 1.503c.689.505 1.464.793 2.204.793a2.002 2.002 0 0 0 .223-.012c1.002-.081 1.79-.706 2.227-1.769a2.872 2.872 0 0 0 .194-.741c.013-.115.02-.23.02-.344a2.881 2.881 0 0 0-1.788-2.667c-.405-.166-.864-.19-1.35-.219-1.087-.06-2.028-.113-2.337-1.63a.412.412 0 0 0-.328-.317.321.321 0 0 0-.127-.007.423.423 0 0 0-.291.194 5.639 5.639 0 0 0-.266.485c-.748 1.548-.668 3.246.246 4.731Zm.308-3.95a4.018 4.018 0 0 0-.243 1.234 4.072 4.072 0 0 0 .628 2.29c.703 1.147 1.895 1.908 2.894 1.908a1.886 1.886 0 0 0 .148-.005 1.662 1.662 0 0 0 1.261-.753 2.667 2.667 0 0 0 .277-.517 1.983 1.983 0 0 0 .145-.629c.003-.043.004-.087.004-.13a2.102 2.102 0 0 0-1.277-1.934 1.699 1.699 0 0 0-.348-.094 4.713 4.713 0 0 0-.447-.05 19.458 19.458 0 0 0-.292-.019 11.334 11.334 0 0 1-.632-.045c-.75-.082-1.553-.31-2.06-1.153a2.608 2.608 0 0 1-.058-.104Z" fill="#0c0c0d" fill-rule="evenodd" data-name="Path 109"/></g><g data-name="Group 76"><path d="m376.749 2251.157-1.23-.665a.403.403 0 0 1-.21-.288.458.458 0 0 1-.004-.058.435.435 0 0 1 .105-.287 2.396 2.396 0 0 0 .445-.69 2.535 2.535 0 0 0 .022-.052 1.884 1.884 0 0 0 .08-.254 1.709 1.709 0 0 0 .017-.083.364.364 0 0 1 .003-.01.898.898 0 0 1 .033-.086.296.296 0 0 1 .005-.009.41.41 0 0 1 .15-.173.417.417 0 0 1 .385-.03l1.359.609a.403.403 0 0 1 .204.531.42.42 0 0 1-.001.004.4.4 0 0 1-.368.237c-.014 0-.028 0-.042-.002a.407.407 0 0 1-.122-.032l-.94-.418-.009.02a3.474 3.474 0 0 1-.308.584l.811.439a.414.414 0 0 1 .178.19.399.399 0 0 1-.006.347.407.407 0 0 1-.006.01.403.403 0 0 1-.207.186.404.404 0 0 1-.15.03.41.41 0 0 1-.134-.024.468.468 0 0 1-.011-.004.507.507 0 0 1-.05-.022Z" fill="#0c0c0d" fill-rule="evenodd" data-name="Path 110"/></g><g data-name="Group 77"><path d="M345.767 2292.649v-13.126a.407.407 0 0 1 .406-.406c3.707 0 7.52.812 8.749 2.211a3.87 3.87 0 0 1 1.193-.855c1.747-.87 4.682-1.356 7.556-1.356a.407.407 0 0 1 .406.406v13.126a.407.407 0 0 1-.406.406 24.587 24.587 0 0 0-3.081.19c-3.12.396-5.262 1.344-5.262 2.187a.407.407 0 0 1-.406.405.408.408 0 0 1-.41-.405c0-.95-2.716-2.032-6.482-2.31a25.295 25.295 0 0 0-1.857-.067.407.407 0 0 1-.406-.406Zm17.499-.402v-12.314a24.233 24.233 0 0 0-2.77.198c-3.068.402-5.168 1.34-5.168 2.175a.407.407 0 0 1-.406.405.408.408 0 0 1-.41-.405.612.612 0 0 0-.091-.31c-.488-.836-2.876-1.698-6.083-1.975a24.895 24.895 0 0 0-1.76-.088v12.314c3.3.053 6.602.737 8.025 1.902a2.688 2.688 0 0 1 .319.305c1.18-1.35 4.766-2.15 8.344-2.207Z" fill="#0c0c0d" fill-rule="evenodd" data-name="Path 111"/></g><g data-name="Group 78"><path d="M354.512 2295.33v-13.024a.408.408 0 0 1 .816 0v13.024a.407.407 0 0 1-.406.406.408.408 0 0 1-.41-.406Z" fill="#0c0c0d" fill-rule="evenodd" data-name="Path 112"/></g><g data-name="Group 79"><path d="M352.887 2284.493a.314.314 0 0 0 .043.003.4.4 0 0 0 .165-.036.42.42 0 0 0 .217-.228.395.395 0 0 0 .024-.098.407.407 0 0 0-.26-.425c-1.33-.511-3.208-.868-5.285-1.01a.356.356 0 0 0-.009-.002.325.325 0 0 0-.264.067.43.43 0 0 0-.157.312.414.414 0 0 0-.001.03.399.399 0 0 0 .378.4 25.779 25.779 0 0 1 1.73.177c.687.094 1.334.215 1.92.357a11.565 11.565 0 0 1 1.4.428c.031.01.066.02.099.025Z" fill="#0c0c0d" fill-rule="evenodd" data-name="Path 113"/></g><g data-name="Group 80"><path d="M352.884 2286.878a.39.39 0 0 0 .046.003.41.41 0 0 0 .179-.04.411.411 0 0 0 .203-.22.41.41 0 0 0 .022-.085.404.404 0 0 0 .005-.061.4.4 0 0 0-.263-.377c-1.33-.51-3.208-.872-5.285-1.014a.364.364 0 0 0-.057-.004.345.345 0 0 0-.163.04.412.412 0 0 0-.21.341.414.414 0 0 0-.001.03.399.399 0 0 0 .378.4c1.341.096 2.592.28 3.65.537a11.74 11.74 0 0 1 1.4.425.31.31 0 0 0 .071.021.381.381 0 0 0 .025.004Z" fill="#0c0c0d" fill-rule="evenodd" data-name="Path 114"/></g><g data-name="Group 81"><path d="M352.884 2289.263a.39.39 0 0 0 .046.003.41.41 0 0 0 .177-.04.411.411 0 0 0 .205-.22.41.41 0 0 0 .022-.085.404.404 0 0 0 .005-.06.4.4 0 0 0-.263-.378 11.151 11.151 0 0 0-.913-.302 17.255 17.255 0 0 0-1.792-.403 25.28 25.28 0 0 0-2.58-.305.362.362 0 0 0-.23.042.404.404 0 0 0-.2.331.428.428 0 0 0-.001.03c0 .094.03.179.082.247a.406.406 0 0 0 .296.157 25.822 25.822 0 0 1 1.714.175c1.299.178 2.45.446 3.336.783a.33.33 0 0 0 .096.025Z" fill="#0c0c0d" fill-rule="evenodd" data-name="Path 115"/></g><g data-name="Group 82"><path d="M352.887 2291.652a.314.314 0 0 0 .043.003.4.4 0 0 0 .165-.036.42.42 0 0 0 .217-.227.395.395 0 0 0-.002-.293.399.399 0 0 0-.234-.227 11.134 11.134 0 0 0-.911-.302 17.249 17.249 0 0 0-1.791-.405 25.064 25.064 0 0 0-2.583-.307.394.394 0 0 0-.43.378.414.414 0 0 0-.001.03.399.399 0 0 0 .378.4c1.996.137 3.793.478 5.05.96a.524.524 0 0 0 .071.021.43.43 0 0 0 .028.005Z" fill="#0c0c0d" fill-rule="evenodd" data-name="Path 116"/></g><g data-name="Group 83"><path d="M356.538 2284.247a.405.405 0 0 0 .372.249.422.422 0 0 0 .142-.028 10.595 10.595 0 0 1 .912-.3 16.8 16.8 0 0 1 1.746-.384 24.738 24.738 0 0 1 2.4-.278.399.399 0 0 0 .373-.43c-.012-.227-.195-.426-.43-.377a26.624 26.624 0 0 0-1.754.177c-.722.097-1.402.223-2.022.372a12.31 12.31 0 0 0-1.513.461.403.403 0 0 0-.232.523.413.413 0 0 0 .006.015Z" fill="#0c0c0d" fill-rule="evenodd" data-name="Path 117"/></g><g data-name="Group 84"><path d="M356.535 2286.627a.402.402 0 0 0 .375.254.341.341 0 0 0 .142-.028c.729-.277 1.636-.508 2.658-.68a25.172 25.172 0 0 1 2.4-.282.398.398 0 0 0 .374-.4.414.414 0 0 0-.001-.03c-.011-.205-.167-.383-.376-.381a.377.377 0 0 0-.054.004 26.286 26.286 0 0 0-1.754.178c-.722.098-1.402.224-2.022.375a12.41 12.41 0 0 0-1.513.461.395.395 0 0 0-.26.374.41.41 0 0 0 .005.064.419.419 0 0 0 .023.085.407.407 0 0 0 .003.006Z" fill="#0c0c0d" fill-rule="evenodd" data-name="Path 118"/></g><g data-name="Group 85"><path d="M356.534 2289.011a.402.402 0 0 0 .376.255.342.342 0 0 0 .142-.028 10.738 10.738 0 0 1 .912-.297 16.977 16.977 0 0 1 1.746-.383 24.837 24.837 0 0 1 2.4-.278.402.402 0 0 0 .374-.403.428.428 0 0 0-.001-.03.432.432 0 0 0-.005-.045c-.032-.202-.205-.359-.425-.329a26.592 26.592 0 0 0-1.751.177c-.722.098-1.402.223-2.023.373a12.408 12.408 0 0 0-1.515.46.395.395 0 0 0-.26.374c0 .05.01.1.028.15a.41.41 0 0 0 .002.004Z" fill="#0c0c0d" fill-rule="evenodd" data-name="Path 119"/></g><g data-name="Group 86"><path d="M356.538 2291.407a.405.405 0 0 0 .372.248.422.422 0 0 0 .142-.028c1.261-.483 3.054-.824 5.058-.961a.398.398 0 0 0 .374-.4.414.414 0 0 0-.001-.03.392.392 0 0 0-.43-.378 26.287 26.287 0 0 0-1.754.178c-1.372.187-2.592.474-3.535.836a.397.397 0 0 0-.232.52.413.413 0 0 0 .006.015Z" fill="#0c0c0d" fill-rule="evenodd" data-name="Path 120"/></g><g data-name="Group 87"><path d="m375.147 2270.072 3.67-5.935a.41.41 0 0 1 .309-.19c.122-.029.251.04.336.134l4.67 5.184a.405.405 0 0 1-.007.55.411.411 0 0 1-.022.022.422.422 0 0 1-.195.094.402.402 0 0 1-.377-.123l-4.308-4.786-3.387 5.48a.412.412 0 0 1-.263.182.398.398 0 0 1-.082.008.413.413 0 0 1-.176-.04.474.474 0 0 1-.039-.02.407.407 0 0 1-.137-.548.416.416 0 0 1 .008-.012Z" fill="#0c0c0d" fill-rule="evenodd" data-name="Path 121"/></g><g data-name="Group 88"><path d="M369.078 2281.109a.41.41 0 0 0 .394.304.411.411 0 0 0 .006 0c.03 0 .065-.004.095-.008 3.602-.913 6.616-3.204 8.494-6.453a14.162 14.162 0 0 0 1.851-8.33 14.49 14.49 0 0 0-.39-2.306.4.4 0 0 0-.387-.31h-.006a.392.392 0 0 0-.098.014.412.412 0 0 0-.297.495 13.695 13.695 0 0 1 .364 2.118 13.368 13.368 0 0 1-1.739 7.913 12.792 12.792 0 0 1-7.99 6.068.412.412 0 0 0-.308.398c0 .022.002.045.005.067a.408.408 0 0 0 .006.03Z" fill="#0c0c0d" fill-rule="evenodd" data-name="Path 122"/></g><g data-name="Group 89"><path d="M353.867 2240.57h-.04l-6.717-.669a.408.408 0 0 1-.368-.41.405.405 0 0 1 .031-.145l2.523-6.263c.081-.203.32-.3.527-.223a.408.408 0 0 1 .248.442.415.415 0 0 1-.025.089l-2.32 5.756 6.182.612a.406.406 0 0 1 .363.402.408.408 0 0 1-.002.044.401.401 0 0 1-.402.366Z" fill="#0c0c0d" fill-rule="evenodd" data-name="Path 123"/></g><g data-name="Group 90"><path d="M365.717 2241.25a.374.374 0 0 0 .031.002.39.39 0 0 0 .26-.097.418.418 0 0 0 .036-.034.402.402 0 0 0 .103-.352.402.402 0 0 0-.09-.186c-4.787-5.655-13.382-6.283-19.15-1.404a.414.414 0 0 0-.023.022.405.405 0 0 0-.022.55c.094.113.234.161.366.142a.39.39 0 0 0 .202-.093 13.283 13.283 0 0 1 .916-.71 12.99 12.99 0 0 1 8.343-2.36 12.467 12.467 0 0 1 8.75 4.376.408.408 0 0 0 .278.145Z" fill="#0c0c0d" fill-rule="evenodd" data-name="Path 124"/></g><g data-name="Group 91"><path d="m334.203 2281.799 6.38-.933-2.685-5.87a.404.404 0 0 1 .199-.535.391.391 0 0 1 .145-.037c.161-.008.322.08.39.235l2.916 6.36a.397.397 0 0 1 .037.181.41.41 0 0 1-.049.18.4.4 0 0 1-.296.208l-6.92 1.014-.057.004a.402.402 0 0 1-.401-.345.421.421 0 0 1-.005-.06.404.404 0 0 1 .346-.402Z" fill="#0c0c0d" fill-rule="evenodd" data-name="Path 125"/></g><g data-name="Group 92"><path d="M341.015 2281.533a.374.374 0 0 0 .067.006.4.4 0 0 0 .115-.017.415.415 0 0 0 .27-.255.411.411 0 0 0 .019-.074.41.41 0 0 0-.266-.445c-6.908-2.438-10.57-9.958-8.173-16.76a.4.4 0 0 0-.03-.338.41.41 0 0 0-.218-.182.36.36 0 0 0-.122-.024.416.416 0 0 0-.393.272 13.708 13.708 0 0 0-.657 2.705 13.79 13.79 0 0 0 .897 7.061 14.158 14.158 0 0 0 8.424 8.033.41.41 0 0 0 .067.018Z" fill="#0c0c0d" fill-rule="evenodd" data-name="Path 126"/></g><g data-name="Group 93"><path d="M363.01 2259.968H348.92a2.166 2.166 0 0 1-2.166-2.166v-7.046c0-1.197.97-2.17 2.166-2.17h14.091a2.173 2.173 0 0 1 2.17 2.17v7.046a2.17 2.17 0 0 1-2.17 2.166Zm-15.446-9.212v7.046c0 .746.608 1.354 1.355 1.354h14.091a1.36 1.36 0 0 0 1.36-1.354v-7.046a1.362 1.362 0 0 0-1.36-1.359H348.92c-.747 0-1.355.608-1.355 1.359Z" fill="#0c0c0d" fill-rule="evenodd" data-name="Path 127"/></g><g data-name="Group 94"><path d="M351.267 2256.447a2.168 2.168 0 0 1-2.166-2.166 2.17 2.17 0 0 1 2.166-2.17 2.173 2.173 0 0 1 2.17 2.17 2.172 2.172 0 0 1-2.17 2.166Zm0-3.525a1.358 1.358 0 0 0-1.354 1.359 1.357 1.357 0 0 0 1.354 1.355 1.36 1.36 0 0 0 1.36-1.355 1.362 1.362 0 0 0-1.36-1.36Z" fill="#0c0c0d" fill-rule="evenodd" data-name="Path 128"/></g><g data-name="Group 95"><path d="M358.496 2254.28a2.17 2.17 0 0 0 2.166 2.167c1.196 0 2.17-.974 2.17-2.166 0-1.197-.974-2.17-2.17-2.17a2.172 2.172 0 0 0-2.166 2.17Zm2.166-1.358c-.747 0-1.355.608-1.355 1.359a1.357 1.357 0 0 0 1.355 1.355 1.358 1.358 0 0 0 1.359-1.355 1.359 1.359 0 0 0-1.36-1.36Z" fill="#0c0c0d" fill-rule="evenodd" data-name="Path 129"/></g><g data-name="Group 96"><path d="M357.729 2262.316h-3.525a.404.404 0 0 1-.406-.405c0-.223.183-.406.406-.406h3.525c.223 0 .406.183.406.406a.404.404 0 0 1-.406.405Z" fill="#0c0c0d" fill-rule="evenodd" data-name="Path 130"/></g><g data-name="Group 97"><path d="M357.729 2264.669h-3.525a.408.408 0 0 1 0-.815h3.525a.407.407 0 0 1 0 .815Z" fill="#0c0c0d" fill-rule="evenodd" data-name="Path 131"/></g><g data-name="Group 98"><path d="M363.01 2275.24H348.92a.408.408 0 0 1-.398-.325l-1.76-8.218a.438.438 0 0 1-.006-.04.404.404 0 0 1 .087-.3.406.406 0 0 1 .316-.155h17.617c.121 0 .235.057.312.154a.398.398 0 0 1 .091.253c0 .03-.003.059-.01.088l-1.764 8.218a.404.404 0 0 1-.394.325Zm-13.763-.816h13.435l1.59-7.407h-16.61l1.585 7.407Z" fill="#0c0c0d" fill-rule="evenodd" data-name="Path 132"/></g><g data-name="Group 99"><path d="m364.434 2270.45-.499-.638 3.914-3.07-.535-2.398.795-.174.588 2.645a.398.398 0 0 1 .009.068.401.401 0 0 1-.159.337l-4.113 3.23Z" fill="#0c0c0d" fill-rule="evenodd" data-name="Path 133"/></g><g data-name="Group 100"><path d="M363.862 2263.33a3.358 3.358 0 0 0 2.673 1.339 3.348 3.348 0 0 0 3.343-3.343 3.303 3.303 0 0 0-.67-2.007.418.418 0 0 0-.039-.045.407.407 0 0 0-.298-.118.396.396 0 0 0-.23.082.407.407 0 0 0-.027.02.404.404 0 0 0-.055.547 2.496 2.496 0 0 1 .507 1.521 2.53 2.53 0 0 1-2.53 2.528c-.792 0-1.55-.378-2.029-1.01a.402.402 0 0 0-.418-.15.4.4 0 0 0-.146.072.395.395 0 0 0-.08.564Z" fill="#0c0c0d" fill-rule="evenodd" data-name="Path 134"/></g><g data-name="Group 101"><path d="m347.49 2270.45-4.108-3.23a.404.404 0 0 1-.15-.378.42.42 0 0 1 .004-.027l.584-2.645.795.174-.531 2.398 3.91 3.07-.503.637Z" fill="#0c0c0d" fill-rule="evenodd" data-name="Path 135"/></g><g data-name="Group 102"><path d="M342.051 2261.326a3.348 3.348 0 0 0 3.343 3.343 3.337 3.337 0 0 0 2.673-1.335.41.41 0 0 0 .074-.327.397.397 0 0 0-.151-.24.402.402 0 0 0-.568.077 2.528 2.528 0 0 1-2.028 1.01 2.53 2.53 0 0 1-2.531-2.528c0-.555.174-1.083.507-1.52a.398.398 0 0 0 .063-.37.401.401 0 0 0-.144-.198.415.415 0 0 0-.017-.012.407.407 0 0 0-.356-.05.396.396 0 0 0-.195.143 3.303 3.303 0 0 0-.67 2.007Z" fill="#0c0c0d" fill-rule="evenodd" data-name="Path 136"/></g><g data-name="Group 103"><path d="M360.078 2275.235h-8.223a.407.407 0 0 1-.405-.405v-4.697c0-.223.182-.406.405-.406h8.223a.407.407 0 0 1 .405.406v4.697a.407.407 0 0 1-.405.405Zm-7.817-.81h7.41v-3.887h-7.41v3.886Z" fill="#0c0c0d" fill-rule="evenodd" data-name="Path 137"/></g></g></svg>