<svg xmlns="http://www.w3.org/2000/svg" width="55" height="76.147" viewBox="414 2225 55 76.147"><g data-name="icon"><g data-name="Group 7"><path d="M450.298 2301.147h-29.364c-3.823 0-6.934-3.119-6.934-6.957v-62.233c0-3.834 3.11-6.957 6.934-6.957h29.364a6.951 6.951 0 0 1 6.93 6.957v62.233a6.948 6.948 0 0 1-6.93 6.957Zm-35.488-69.19v62.233a6.14 6.14 0 0 0 6.124 6.144h29.364a6.14 6.14 0 0 0 6.12-6.144v-62.233a6.14 6.14 0 0 0-6.12-6.144h-29.364a6.14 6.14 0 0 0-6.124 6.144Z" fill="#0c0c0d" fill-rule="evenodd" data-name="Path 41"/></g><g data-name="Group 8"><path d="M457.612 2239.115h-43.2a.414.414 0 0 1-.412-.412c0-.227.186-.413.412-.413h43.2c.227 0 .412.186.412.413a.414.414 0 0 1-.412.412Z" fill="#0c0c0d" fill-rule="evenodd" data-name="Path 42"/></g><g data-name="Group 9"><path d="M457.612 2287.857h-43.2a.411.411 0 0 1-.412-.413c0-.227.186-.412.412-.412h43.2a.414.414 0 0 1 .412.412.411.411 0 0 1-.412.413Z" fill="#0c0c0d" fill-rule="evenodd" data-name="Path 43"/></g><g data-name="Group 10"><path d="M444.042 2232.47H427.43a.415.415 0 0 1-.417-.412.415.415 0 0 1 .417-.413h16.61c.232 0 .413.186.413.413a.411.411 0 0 1-.412.412Z" fill="#0c0c0d" fill-rule="evenodd" data-name="Path 44"/></g><g data-name="Group 11"><path d="M435.707 2296.168a2.077 2.077 0 0 1-2.08-2.074 2.08 2.08 0 0 1 2.08-2.075 2.079 2.079 0 0 1 2.075 2.075 2.076 2.076 0 0 1-2.075 2.074Zm0-3.324a1.249 1.249 0 1 0 0 2.5 1.248 1.248 0 0 0 1.245-1.25 1.248 1.248 0 0 0-1.245-1.25Z" fill="#0c0c0d" fill-rule="evenodd" data-name="Path 45"/></g><g data-name="Group 12"><path d="m451.82 2271.094-6.785-6.65a.409.409 0 0 1-.126-.262.383.383 0 0 1-.001-.03.409.409 0 0 1 .127-.297l6.786-6.646a.415.415 0 0 1 .574-.003.406.406 0 0 1 .007.008.413.413 0 0 1 .117.288.413.413 0 0 1-.125.297l-6.48 6.353 6.48 6.352a.411.411 0 0 1 .109.18.41.41 0 0 1-.393.525.402.402 0 0 1-.29-.115Z" fill="#0c0c0d" fill-rule="evenodd" data-name="Path 46"/></g><g data-name="Group 13"><path d="m461.513 2270.504 6.485-6.352-6.485-6.353a.411.411 0 0 1-.113-.201.415.415 0 0 1 .105-.384.396.396 0 0 1 .194-.113.415.415 0 0 1 .388.108l6.785 6.646a.409.409 0 0 1 .128.297.406.406 0 0 1-.117.281.417.417 0 0 1-.01.011l-6.786 6.65a.394.394 0 0 1-.217.11.423.423 0 0 1-.068.005.418.418 0 0 1-.265-.095.432.432 0 0 1-.032-.029.41.41 0 0 1 .008-.581Z" fill="#0c0c0d" fill-rule="evenodd" data-name="Path 47"/></g><g data-name="Group 14"><path d="M431.848 2256.44h-15.113a.414.414 0 0 1-.413-.412v-15.114c0-.227.186-.412.413-.412h15.113a.414.414 0 0 1 .413.412v15.114a.414.414 0 0 1-.413.412Zm-14.7-.825h14.288v-14.288h-14.289v14.288Z" fill="#0c0c0d" fill-rule="evenodd" data-name="Path 48"/></g><g data-name="Group 15"><path d="m431.56 2256.32-15.114-15.109a.411.411 0 0 1-.117-.236.415.415 0 0 1 .104-.336.414.414 0 0 1 .013-.014.41.41 0 0 1 .205-.111.41.41 0 0 1 .377.111l15.113 15.114c.16.16.16.42 0 .581a.402.402 0 0 1-.29.124.415.415 0 0 1-.003 0 .4.4 0 0 1-.289-.124Z" fill="#0c0c0d" fill-rule="evenodd" data-name="Path 49"/></g><g data-name="Group 16"><path d="m416.446 2255.739 15.113-15.114a.41.41 0 0 1 .205-.111.41.41 0 0 1 .353.09.419.419 0 0 1 .024.021.41.41 0 0 1 .112.206.41.41 0 0 1-.09.352.419.419 0 0 1-.022.024l-15.113 15.113a.402.402 0 0 1-.292.124.282.282 0 0 1-.001 0 .392.392 0 0 1-.039-.002.4.4 0 0 1-.25-.122.41.41 0 0 1 0-.581Z" fill="#0c0c0d" fill-rule="evenodd" data-name="Path 50"/></g><g data-name="Group 17"><path d="M452.181 2243.107h-16.705a.414.414 0 0 1-.413-.413c0-.227.186-.412.413-.412h16.705c.227 0 .413.185.413.412a.414.414 0 0 1-.413.413Z" fill="#0c0c0d" fill-rule="evenodd" data-name="Path 51"/></g><g data-name="Group 18"><path d="M450.884 2246.35H435.58a.414.414 0 0 1-.412-.412.414.414 0 0 1 .412-.412h15.304a.414.414 0 0 1 .412.412.414.414 0 0 1-.412.413Z" fill="#0c0c0d" fill-rule="evenodd" data-name="Path 52"/></g><g data-name="Group 19"><path d="M448.827 2249.977h-13.315a.414.414 0 0 1-.412-.412.414.414 0 0 1 .412-.413h13.315a.414.414 0 0 1 .413.413.414.414 0 0 1-.413.412Z" fill="#0c0c0d" fill-rule="evenodd" data-name="Path 53"/></g><g data-name="Group 20"><path d="M451.464 2253.323h-15.98a.415.415 0 0 1-.412-.417c0-.227.185-.412.412-.412h15.98a.414.414 0 0 1 .412.412.415.415 0 0 1-.412.417Z" fill="#0c0c0d" fill-rule="evenodd" data-name="Path 54"/></g><g data-name="Group 21"><path d="M441.632 2264.108H418.48a.414.414 0 0 1-.413-.412.414.414 0 0 1 .413-.413h23.152a.414.414 0 0 1 0 .825Z" fill="#0c0c0d" fill-rule="evenodd" data-name="Path 55"/></g><g data-name="Group 22"><path d="M441.632 2268.023H418.48a.414.414 0 0 1-.413-.413.411.411 0 0 1 .413-.412h23.152c.227 0 .413.181.413.412a.414.414 0 0 1-.413.413Z" fill="#0c0c0d" fill-rule="evenodd" data-name="Path 56"/></g><g data-name="Group 23"><path d="M441.632 2271.84H418.48a.414.414 0 0 1-.413-.412.414.414 0 0 1 .413-.413h23.152a.414.414 0 0 1 .413.413.414.414 0 0 1-.413.412Z" fill="#0c0c0d" fill-rule="evenodd" data-name="Path 57"/></g><g data-name="Group 24"><path d="M441.632 2275.755H418.48a.414.414 0 0 1-.413-.412.414.414 0 0 1 .413-.413h23.152a.414.414 0 0 1 0 .825Z" fill="#0c0c0d" fill-rule="evenodd" data-name="Path 58"/></g><g data-name="Group 25"><path d="M453.339 2279.406h-34.86a.414.414 0 0 1-.412-.413c0-.227.186-.412.413-.412h34.859a.415.415 0 0 1 .416.412.415.415 0 0 1-.416.413Z" fill="#0c0c0d" fill-rule="evenodd" data-name="Path 59"/></g><g data-name="Group 26"><path d="M453.442 2283.642h-34.86a.414.414 0 0 1-.412-.413c0-.227.186-.412.413-.412h34.859c.227 0 .412.185.412.412a.414.414 0 0 1-.412.413Z" fill="#0c0c0d" fill-rule="evenodd" data-name="Path 60"/></g><g data-name="Group 27"><path d="m452.781 2271.185 7.47-14.565a.414.414 0 0 1 .232-.204.39.39 0 0 1 .321.023.411.411 0 0 1 .177.557l-7.47 14.56a.405.405 0 0 1-.367.227.439.439 0 0 1-.063-.004.347.347 0 0 1-.122-.041.413.413 0 0 1-.214-.273.395.395 0 0 1 .034-.275.392.392 0 0 1 .002-.005Z" fill="#0c0c0d" fill-rule="evenodd" data-name="Path 61"/></g></g></svg>