<svg xmlns="http://www.w3.org/2000/svg" width="67.87" height="40.002" viewBox="330.131 871.999 67.87 40.002"><path d="M372.99 908.024h-30.81a11.615 11.615 0 0 1-8.403-3.41 14.072 14.072 0 0 1-.111-.11c-2.357-2.346-3.535-5.179-3.535-8.498 0-3.005.982-5.627 2.947-7.865 1.964-2.238 4.41-3.574 7.335-4.006 1.218-3.613 3.388-6.54 6.51-8.777 3.121-2.239 6.597-3.358 10.427-3.358a17.257 17.257 0 0 1 12.033 4.67 17.395 17.395 0 0 1 5.787 11.471 9.813 9.813 0 0 1 5.67 3.491c1.503 1.837 2.254 3.942 2.254 6.318a9.673 9.673 0 0 1-2.868 7.035 11.678 11.678 0 0 1-.092.093 9.755 9.755 0 0 1-7.014 2.945 11.822 11.822 0 0 1-.13.001Zm-30.81-4.507h30.81c1.552 0 2.873-.545 3.964-1.635a5.338 5.338 0 0 0 1.632-3.85v-.072a6.342 6.342 0 0 0 0-.01 5.262 5.262 0 0 0-1-3.137 5.66 5.66 0 0 0-2.563-2.017 15.61 15.61 0 0 1-.483 2.107 17.873 17.873 0 0 1-.194.603 1.988 1.988 0 0 1-.81 1.12 2.28 2.28 0 0 1-1.31.413 2.89 2.89 0 0 1-.707-.088 2.24 2.24 0 0 1-.839-.476 2.192 2.192 0 0 1-.487-.66 2.189 2.189 0 0 1-.147-1.63 2.575 2.575 0 0 1 .029-.092 13.6 13.6 0 0 0 .676-4.212 13.063 13.063 0 0 0-1.796-6.702 13.316 13.316 0 0 0-4.89-4.877 13.118 13.118 0 0 0-6.71-1.796 10.274 10.274 0 0 0-.007 0 13.134 13.134 0 0 0-7.275 2.15c-2.219 1.435-3.858 3.34-4.919 5.715a12.196 12.196 0 0 1 5.539 3.122 2.259 2.259 0 0 1 .648 1.619 2.256 2.256 0 0 1-.194.943 2.198 2.198 0 0 1-.454.648 2.16 2.16 0 0 1-1.562.648 2.719 2.719 0 0 1-.03 0 2.259 2.259 0 0 1-1.619-.648c-1.473-1.473-3.24-2.21-5.303-2.21a7.282 7.282 0 0 0-5.262 2.127 8.758 8.758 0 0 0-.069.068c-1.473 1.463-2.21 3.236-2.21 5.318a7.203 7.203 0 0 0 2.142 5.248 8.68 8.68 0 0 0 .068.068 7.295 7.295 0 0 0 5.283 2.194 8.873 8.873 0 0 0 .048 0ZM398 897.95h-.002a22.845 22.845 0 0 1-3.948 13.049 2.322 2.322 0 0 1-.665.666c-.348.223-.754.335-1.22.335a2.144 2.144 0 0 1-1.236-.383 2.261 2.261 0 0 1-.958-1.444 2.335 2.335 0 0 1-.05-.413 2.068 2.068 0 0 1 .39-1.266 18.79 18.79 0 0 0 3.181-10.546c0-3.83-1.06-7.335-3.182-10.516a2.148 2.148 0 0 1-.351-.815c-.055-.28-.05-.572.012-.878a2.264 2.264 0 0 1 .357-.853 2.163 2.163 0 0 1 .6-.574 2.135 2.135 0 0 1 1.68-.354c.61.117 1.091.44 1.444.973A22.71 22.71 0 0 1 398 897.95Zm-7.543.002v-.002a16.45 16.45 0 0 1-2.858 9.395 2.261 2.261 0 0 1-.737.69c-.295.168-.63.261-1.007.28a2.89 2.89 0 0 1-.14.003c-.472 0-.894-.127-1.268-.382a2.102 2.102 0 0 1-.93-1.372 2.67 2.67 0 0 1-.012-.057c-.118-.619 0-1.183.354-1.693a11.9 11.9 0 0 0 2.09-6.864 11.9 11.9 0 0 0-2.09-6.864 2.132 2.132 0 0 1-.36-1.652 2.588 2.588 0 0 1 .006-.028 2.194 2.194 0 0 1 .936-1.44 2.693 2.693 0 0 1 .006-.004 2.161 2.161 0 0 1 .797-.348c.267-.055.545-.056.835-.003a2.61 2.61 0 0 1 .061.012 2.267 2.267 0 0 1 1.46.961 16.228 16.228 0 0 1 2.857 9.368Z" fill="#f22a73" fill-rule="evenodd" data-name="mixcloud"/></svg>