<svg xmlns="http://www.w3.org/2000/svg" width="24" height="40" viewBox="330 872 24 40"><path d="M354 876v32a3.834 3.834 0 0 1-1.15 2.775 4.866 4.866 0 0 1-.038.037c-.792.791-1.729 1.187-2.812 1.188h-16a3.834 3.834 0 0 1-2.775-1.15 4.866 4.866 0 0 1-.037-.038 4.046 4.046 0 0 1-.926-1.385A3.88 3.88 0 0 1 330 908v-32a3.834 3.834 0 0 1 1.15-2.775 4.866 4.866 0 0 1 .038-.037 4.046 4.046 0 0 1 1.385-.926A3.88 3.88 0 0 1 334 872h16a3.834 3.834 0 0 1 2.775 1.15 4.866 4.866 0 0 1 .037.038 4.046 4.046 0 0 1 .926 1.385A3.88 3.88 0 0 1 354 876Zm-3 27v-22a.96.96 0 0 0-.287-.694 1.216 1.216 0 0 0-.01-.01 1.009 1.009 0 0 0-.346-.23A.97.97 0 0 0 350 880h-16a.96.96 0 0 0-.694.287 1.211 1.211 0 0 0-.01.01 1.009 1.009 0 0 0-.23.346.97.97 0 0 0-.066.357v22a.96.96 0 0 0 .287.694 1.211 1.211 0 0 0 .01.01 1.009 1.009 0 0 0 .346.23.97.97 0 0 0 .357.066h16a.96.96 0 0 0 .694-.287 1.216 1.216 0 0 0 .01-.01 1.009 1.009 0 0 0 .23-.346A.97.97 0 0 0 351 903Zm-6.5 5a2.404 2.404 0 0 0-.712-1.743 2.94 2.94 0 0 0-.022-.023 2.405 2.405 0 0 0-1.734-.734 2.878 2.878 0 0 0-.032 0c-.687 0-1.276.245-1.766.734a2.405 2.405 0 0 0-.734 1.734 2.878 2.878 0 0 0 0 .032 2.404 2.404 0 0 0 .712 1.743 2.94 2.94 0 0 0 .022.023 2.405 2.405 0 0 0 1.734.734 2.878 2.878 0 0 0 .032 0 2.404 2.404 0 0 0 1.743-.712 2.94 2.94 0 0 0 .023-.022 2.405 2.405 0 0 0 .734-1.734 2.878 2.878 0 0 0 0-.032Zm0-32h-5a.72.72 0 0 0-.198.025.382.382 0 0 0-.28.29.737.737 0 0 0-.022.185c0 .333.167.5.5.5h5a.72.72 0 0 0 .198-.025.382.382 0 0 0 .28-.29.737.737 0 0 0 .022-.185c0-.333-.167-.5-.5-.5Z" fill="#f22a73" fill-rule="evenodd" data-name="mobile"/></svg>