<svg xmlns="http://www.w3.org/2000/svg" width="50" height="50" viewBox="35 34.655 50 50"><path d="M58.658 52.317 76.48 36.162a6.114 6.114 0 0 1 1.479-1.017 4.92 4.92 0 0 1 2.153-.49v.002c1.304 0 2.444.432 3.422 1.297.978.865 1.467 1.948 1.467 3.251 0 1.172-.419 2.576-1.257 4.213a375 375 0 0 1-3.282 6.084c-3.362 6.086-6.028 10.406-8 12.96a15.966 15.966 0 0 1-1.707 1.937 9.814 9.814 0 0 1-2.57 1.769 8.253 8.253 0 0 1-3.52.77 8.145 8.145 0 0 1-5.927-2.461 10.269 10.269 0 0 1-.12-.12 8.684 8.684 0 0 1-2.11-3.404 8.736 8.736 0 0 1-.418-2.72 8.106 8.106 0 0 1 .642-3.265 7.758 7.758 0 0 1 1.927-2.65ZM61.9 69.254l.028 1.98a18.274 18.274 0 0 1 .003.37c-.002 1.6-.218 3.078-.648 4.433a11.929 11.929 0 0 1-2.973 4.88c-2.486 2.492-5.73 3.738-9.734 3.738a15.527 15.527 0 0 1-3.24-.324 12.284 12.284 0 0 1-2.849-.973 11.406 11.406 0 0 1-3.273-2.363 10.712 10.712 0 0 1-.987-1.195 16.398 16.398 0 0 1-2.298-4.708 18.607 18.607 0 0 1-.117-.398 21.445 21.445 0 0 1-.746-4.32A25.48 25.48 0 0 1 35 68.555c.13.092.513.371 1.146.837.633.466 1.21.88 1.732 1.242a18.579 18.579 0 0 0 1.648 1.018c.576.316 1.005.475 1.285.475a1.94 1.94 0 0 0 .613-.091c.382-.127.666-.386.854-.778a2.105 2.105 0 0 0 .07-.163 17.053 17.053 0 0 1 .7-1.607c.282-.562.583-1.072.905-1.532.605-.865 1.252-1.572 1.941-2.12a7.813 7.813 0 0 1 1.565-.962 9.68 9.68 0 0 1 .893-.364 15.203 15.203 0 0 1 2.877-.71c.968-.14 2.132-.238 3.492-.294v-.001a11.063 11.063 0 0 0 2.975 3.628 11.31 11.31 0 0 0 4.203 2.12Z" fill="#f22a73" fill-rule="evenodd" data-name="paint-brush"/></svg>