<svg version="1.2" xmlns="http://www.w3.org/2000/svg" viewBox="0 0 30 30" width="30" height="30">
	<title>phone-svg</title>
	<style>
		.s0 { fill: #ffffff } 
	</style>
	<path id="phone" fill-rule="evenodd" class="s0" d="m30 23.7q0 0 0 0.1 0 0 0 0.1 0 0 0 0.1 0 0 0 0.1 0 0.1-0.1 0.2 0 0.2 0 0.3 0 0.1 0 0.3-0.1 0.1-0.1 0.2 0 0 0 0 0 0 0 0.1 0 0 0 0 0 0 0 0-0.2 0.9-0.5 1.5 0 0 0 0.1-0.1 0.1-0.1 0.2-0.1 0.1-0.2 0.1 0 0.1-0.1 0.2-0.5 0.6-1.4 1.2-0.1 0-0.2 0.1-0.1 0-0.2 0.1-0.1 0-0.2 0.1-0.1 0.1-0.2 0.1-0.2 0.1-0.4 0.3-0.3 0.1-0.5 0.2-0.3 0.1-0.5 0.2-0.3 0-0.5 0.1-0.3 0.1-0.5 0.1-0.3 0.1-0.5 0.1-0.3 0.1-0.5 0.1-0.3 0-0.5 0-0.2 0-0.3 0-0.1 0-0.3 0-0.1 0-0.3 0-0.1-0.1-0.3-0.1-0.1 0-0.3 0-0.1 0-0.2-0.1-0.2 0-0.3-0.1-0.2 0-0.3 0 0 0 0 0-0.1 0-0.1 0 0 0 0 0 0 0 0 0 0-0.1-0.1-0.1 0 0 0 0-0.1 0-0.1 0-0.1 0-0.1 0-0.4-0.2-0.7-0.3-0.3 0-0.9-0.3 0 0 0 0-0.1 0-0.1 0-0.1 0-0.1-0.1 0 0-0.1 0 0 0 0 0-0.1 0-0.1 0 0-0.1-0.1-0.1 0 0-0.1 0-0.1 0-0.1-0.1-0.1 0-0.2 0-0.1-0.1-0.2-0.1-0.1 0-0.2-0.1-2.1-0.7-3.7-1.7-2.7-1.7-5.7-4.6-2.6-2.7-4.2-5.1 0-0.1-0.1-0.1 0-0.1-0.1-0.2 0 0-0.1-0.1 0-0.1-0.1-0.2-0.1-0.2-0.3-0.5-0.1-0.3-0.3-0.6-0.1-0.2-0.3-0.5-0.1-0.3-0.2-0.6-0.1-0.2-0.2-0.4-0.1-0.2-0.1-0.3-0.1-0.2-0.2-0.4-0.1-0.2-0.1-0.4-0.1-0.2-0.4-0.9 0 0 0-0.1 0 0 0 0 0 0 0 0 0 0 0 0 0-0.1 0-0.1-0.1-0.1-0.1-0.1 0-0.1 0-0.1 0-0.1-0.1-0.1-0.1-0.4-0.2-0.7 0 0 0 0 0 0 0-0.1 0 0 0 0 0 0 0 0-0.1 0-0.1-0.1 0 0 0 0 0 0 0-0.1 0 0 0 0 0-0.1-0.1-0.1 0-0.1 0-0.2 0 0 0-0.1-0.1-0.1-0.1-0.1 0-0.1 0-0.1 0 0 0-0.1 0 0 0 0 0-0.1-0.1-0.1 0-0.2 0-0.3-0.1-0.1-0.1-0.3 0-0.1-0.1-0.3 0-0.1 0-0.3 0 0 0 0 0 0 0 0 0 0 0 0 0 0 0 0 0-0.2-0.1-0.3 0-0.2 0-0.3 0-0.1 0-0.3 0-0.1 0-0.3 0 0 0 0 0 0 0 0 0 0 0 0 0 0 0 0 0-0.3 0-0.7 0.1-0.3 0.1-0.6 0.1-0.4 0.2-0.7 0.1-0.3 0.2-0.6 0.1-0.2 0.1-0.4 0.1-0.1 0.2-0.3 0-0.2 0.1-0.3 0.1-0.2 0.2-0.3 1.2-2.2 2.2-2.6 0.6-0.3 1.4-0.5 0 0 0 0 0.1 0 0.1 0 0 0 0 0 0 0 0 0 0.9-0.2 1.5-0.2 0 0 0 0 0.1 0 0.1 0 0 0 0 0 0 0 0.1 0 0.1 0 0.2 0 0 0 0 0.1 0 0 0 0 0 0 0 0 0 0 0.1 0 0.3 0.1 1.1 1.5 0 0 0 0.1 0 0 0 0 0 0 0 0 0 0 0 0 0 0 0 0 0 0.1 0 0.1 0.1 0 0.1 0.1 0 0 0 0 0.2 0.3 0.3 0.6 0.1 0 0.1 0.1 0 0 0 0.1 0.1 0 0.1 0.1 0 0 0 0 0.1 0.1 0.1 0.2 0.1 0.1 0.1 0.2 0.1 0.1 0.1 0.2 0.1 0.1 0.1 0.1 0.1 0.1 0.1 0.2 0 0.1 0.1 0.2 0 0 0.1 0.1 0 0.1 0.1 0.2 0 0.1 0.1 0.1 0 0.1 0 0.2 0.1 0.1 0.1 0.1 0.1 0.1 0.1 0.2 0 0 0.1 0.1 0 0.1 0.1 0.2 0 0 0 0.1 0.1 0.1 0.1 0.1 0 0 0 0 0 0 0 0 0 0.1 0.1 0.1 0 0 0 0 0 0.1 0.2 0.3 0 0.1 0 0.1 0 0 0.1 0 0 0 0 0 0 0 0 0.1 0.3 0.4 0.5 0.7 0 0.1 0 0.1 0 0 0 0.1 0 0 0.1 0.1 0 0 0 0 0 0.2 0 0.3 0 0.1 0 0.1 0 0 0 0.1 0 0 0 0 0 0.1-0.1 0.1-0.1 0.3-0.5 0.8-0.2 0.1-0.3 0.3-0.2 0.2-0.3 0.3-0.2 0.1-0.4 0.3-0.1 0.1-0.3 0.3-0.7 0.5-1.3 1.1-0.6 0.6-0.6 1 0 0.2 0.1 0.4 0.1 0.3 0.1 0.5 0.1 0.1 0.3 0.4 0 0 0 0 0 0 0 0 0 0.1 0 0.1 0 0 0 0 0 0 0.1 0 0 0 0 0 0 0.1 0 0.1 0 0 0 0 0.2 0.3 0.2 0.3 0.2 0.4 0.5 0.9 0.2 0.4 0.5 0.8 0.3 0.4 0.6 0.8 0.3 0.4 0.6 0.8 0.1 0.2 0.3 0.4 0.2 0.3 0.4 0.5 0.2 0.2 0.4 0.4 0.2 0.2 0.4 0.4 0.4 0.4 0.8 0.7 0.3 0.4 0.8 0.7 0.4 0.3 0.8 0.7 0.4 0.3 0.9 0.6 0.2 0.1 0.4 0.2 0.2 0.2 0.4 0.3 0.2 0.1 0.5 0.3 0.2 0.1 0.4 0.2 0 0 0 0 0 0 0 0 0 0 0 0 0 0 0 0 0.1 0.1 0.4 0.2 0 0 0 0 0 0 0 0 0 0.1 0 0.1 0 0 0 0 0.3 0.2 0.5 0.2 0 0 0 0 0 0 0 0.1 0 0 0 0 0 0 0 0 0.1 0 0.3 0.1 0 0 0.1 0 0 0 0 0 0 0 0 0 0 0 0.1 0 0 0 0 0.1 0 0 0 0 0.1 0 0.1 0 0 0 0 0 0.1 0 0.2 0 0 0 0 0 0 0 0.1 0 0 0 0 0 0 0 0 0 0.3 0 0.8-0.3 0-0.1 0-0.1 0.1 0 0.1 0 0-0.1 0.1-0.1 0 0 0-0.1 0.2-0.1 0.3-0.3 0.2-0.1 0.3-0.3 0.1-0.2 0.3-0.3 0.1-0.2 0.2-0.4 0.2-0.2 0.3-0.3 0.2-0.2 0.3-0.4 0.1-0.1 0.3-0.3 0.2-0.1 0.3-0.3 0 0 0.1-0.1 0 0 0.1 0 0-0.1 0-0.1 0.1 0 0.1-0.1 0.5-0.3 0.8-0.3 0 0 0.1 0 0 0 0.1 0 0 0 0.1 0 0 0 0.1 0.1 0 0 0 0 0.1 0 0.1 0 0 0 0 0 0.1 0 0.1 0 0 0.1 0 0.1 0.1 0 0.1 0 0 0 0.1 0 0 0 0 0.1 0.1 0 0.3 0.1 0 0 0 0.1 0.1 0 0.1 0 0 0 0.1 0.1 0 0 0 0 0.1 0 0.1 0 0 0 0 0.1 0 0 0.1 0 0 0 0 0 0.2 0.2 0.3 0.2 0 0.1 0 0.1 0.1 0 0.1 0 0 0 0 0 0 0 0 0 0 0 0.1 0.1 0.1 0 0.1 0 0.1 0.1 0.2 0.1 0.1 0.1 0.1 0.1 0.1 0 0.2 0.1 0 0 0.1 0.1 0.1 0 0.2 0 0 0.1 0.1 0.1 0.1 0.1 0.2 0.1 0.1 0.1 0.1 0.1 0.1 0.1 0.2 0.1 0.1 0 0.2 0.1 0 0 0.1 0.1 0.1 0 0.2 0.1 0.1 0 0.2 0.1 0.1 0 0.2 0.1 0 0 0.1 0 0 0 0 0.1 0.1 0 0.1 0 0.1 0 0.1 0.1 0.4 0.2 0.6 0.3 0 0 0.1 0 0 0 0 0.1 0 0 0.1 0 0 0 0 0 0.1 0 0.1 0.1 0.1 0 0.2 0 0 0.1 0.1 0.1 0.1 0 0.1 0.1 0.8 0.4 1 0.7 0 0 0.1 0 0 0 0 0 0 0.1 0 0.1 0 0 0 0 0.1 0.2 0.1 0.4 0 0 0 0 0 0.1 0 0.1 0 0 0 0 0 0 0 0z"/>
</svg>