<svg xmlns="http://www.w3.org/2000/svg" width="30" height="29.999" viewBox="254 765 30 29.999"><path d="M284 788.693h-.001a4.09 4.09 0 0 1-.02.393 8.611 8.611 0 0 1-.174 1.025 13.656 13.656 0 0 1-.02.084c-.142.618-.29 1.105-.447 1.46a2.453 2.453 0 0 1-.416.643c-.324.376-.797.762-1.419 1.16a14.056 14.056 0 0 1-.764.455 9.406 9.406 0 0 1-1.961.806 7.437 7.437 0 0 1-2.002.28 8.503 8.503 0 0 1-1.13-.074 8.55 8.55 0 0 1-1.182-.255 11.806 11.806 0 0 1-.042-.012 38.418 38.418 0 0 1-.314-.091c-.293-.087-.522-.16-.688-.218-.181-.064-.48-.174-.896-.33a195.671 195.671 0 0 1-.286-.106 156.54 156.54 0 0 0-.297-.111 28.037 28.037 0 0 0-.747-.273c-1.393-.497-2.635-1.086-3.729-1.768-1.804-1.122-3.678-2.656-5.625-4.602-1.74-1.741-3.152-3.425-4.233-5.052a22.602 22.602 0 0 1-.369-.573 17.888 17.888 0 0 1-1.17-2.226 22.034 22.034 0 0 1-.598-1.503c-.04-.12-.155-.432-.344-.937a216.64 216.64 0 0 0-.04-.107 231.575 231.575 0 0 1-.142-.382c-.105-.28-.187-.503-.246-.666a24.732 24.732 0 0 1-.048-.134 7.763 7.763 0 0 1-.064-.186 18.53 18.53 0 0 1-.16-.52 36.258 36.258 0 0 1-.085-.296 9.031 9.031 0 0 1-.257-1.15 6.404 6.404 0 0 1-.01-.075 8.304 8.304 0 0 1-.074-1.116 8.7 8.7 0 0 1 0-.013 7.66 7.66 0 0 1 .49-2.653 9.916 9.916 0 0 1 .596-1.31c.796-1.434 1.549-2.3 2.259-2.6.339-.148.797-.29 1.375-.427a16.196 16.196 0 0 1 .084-.02c.618-.142 1.118-.213 1.502-.213a2.23 2.23 0 0 1 .156.005c.1.007.183.021.25.043a.513.513 0 0 1 .042.016c.252.084.622.61 1.11 1.58a19.168 19.168 0 0 1 .019.04 25.721 25.721 0 0 1 .128.223c.095.169.205.367.33.596a97.786 97.786 0 0 1 .181.331 130.377 130.377 0 0 0 .39.711 96.983 96.983 0 0 0 .356.642 48.22 48.22 0 0 0 .336.59 40.623 40.623 0 0 0 .325.55 2.508 2.508 0 0 1 .032.045c.05.068.135.19.256.366a107.14 107.14 0 0 1 .084.122c.206.298.359.55.459.756a1.54 1.54 0 0 1 .115.32c.023.096.034.193.034.288a.801.801 0 0 1-.06.287c-.087.226-.27.485-.548.778a10.408 10.408 0 0 1-1.32 1.172c-.476.355-.916.73-1.321 1.129-.405.397-.608.724-.608.98 0 .127.036.287.107.479.07.191.131.337.18.436.041.082.116.212.224.39a19.988 19.988 0 0 0 .075.122 66.002 66.002 0 0 1 .053.086c.116.188.18.294.192.32a24.035 24.035 0 0 0 2.177 3.286 20.053 20.053 0 0 0 1.53 1.72 21.103 21.103 0 0 0 3.264 2.65 25.592 25.592 0 0 0 1.744 1.058.43.43 0 0 1 .015.008c.045.026.162.097.35.212a88.411 88.411 0 0 1 .04.025c.215.132.373.226.476.28a1.938 1.938 0 0 0 .035.018c.076.038.18.083.31.133a8.432 8.432 0 0 0 .127.048 2.352 2.352 0 0 0 .17.056c.058.016.111.028.161.037a.919.919 0 0 0 .148.014c.202 0 .448-.126.738-.378a4.238 4.238 0 0 0 .242-.23 12.857 12.857 0 0 0 1.13-1.32 10.408 10.408 0 0 1 1.17-1.321 4.152 4.152 0 0 1 .298-.259c.297-.233.553-.349.768-.349a1.3 1.3 0 0 1 .415.07 1.65 1.65 0 0 1 .192.08 3.708 3.708 0 0 1 .23.12c.077.045.16.096.248.152a9.215 9.215 0 0 1 .279.186 122.963 122.963 0 0 1 .155.107c.17.117.284.198.345.242a2.488 2.488 0 0 1 .032.023 40.613 40.613 0 0 0 .552.325 48.214 48.214 0 0 0 .588.336 97.047 97.047 0 0 0 .643.357 130.34 130.34 0 0 0 .71.389 96.654 96.654 0 0 1 .352.192c.227.124.424.233.591.328a25.296 25.296 0 0 1 .209.119 15.248 15.248 0 0 1 .511.267c.49.268.819.494.987.677a.54.54 0 0 1 .12.185c.039.09.06.218.064.387a2.563 2.563 0 0 1 0 .06Z" fill="#f22a73" fill-rule="evenodd" data-name="phone"/></svg>