<svg xmlns="http://www.w3.org/2000/svg" width="40.025" height="40" viewBox="329.976 872 40.025 40"><path d="m357.157 896.484-.49 9.29a.896.896 0 0 1-.393.638l-9.411 5.49a.74.74 0 0 1-.298.093.922.922 0 0 1-.094.005.81.81 0 0 1-.4-.108 1.122 1.122 0 0 1-.164-.113l-1.57-1.569a.922.922 0 0 1-.153-.218.756.756 0 0 1-.057-.505 1.002 1.002 0 0 1 .015-.06l2.083-6.765-6.887-6.887-6.764 2.084a.36.36 0 0 1-.05.012.974.974 0 0 1-.17.012.764.764 0 0 1-.565-.22l-1.57-1.57a1.154 1.154 0 0 1-.138-.188.687.687 0 0 1-.055-.622.95.95 0 0 1 .072-.146l5.49-9.411a.992.992 0 0 1 .247-.248.872.872 0 0 1 .39-.144l9.29-.49a102.991 102.991 0 0 1 1.983-2.29 69.045 69.045 0 0 1 2.33-2.49c3.072-3.056 5.997-5.164 8.774-6.324 2.16-.902 4.768-1.453 7.826-1.654a41.827 41.827 0 0 1 2.738-.086.822.822 0 0 1 .588.233.811.811 0 0 1 .174.234.721.721 0 0 1 .071.318l.001-.001a33.84 33.84 0 0 1-.348 4.981c-.265 1.78-.681 3.424-1.25 4.932a20.183 20.183 0 0 1-.252.638 23.21 23.21 0 0 1-2.454 4.399 32.947 32.947 0 0 1-3.088 3.745 40.569 40.569 0 0 1-.672.691c-1.323 1.308-2.916 2.746-4.779 4.314Zm7.353-16.641a2.267 2.267 0 0 0-.665-1.645 2.703 2.703 0 0 0-.021-.022 2.266 2.266 0 0 0-1.636-.686 2.778 2.778 0 0 0-.03 0 2.267 2.267 0 0 0-1.646.665 2.699 2.699 0 0 0-.021.021 2.266 2.266 0 0 0-.686 1.636 2.778 2.778 0 0 0 0 .03c0 .654.228 1.21.686 1.667a2.266 2.266 0 0 0 1.636.687 2.778 2.778 0 0 0 .03 0 2.267 2.267 0 0 0 1.645-.666 2.699 2.699 0 0 0 .022-.02 2.266 2.266 0 0 0 .686-1.637 2.778 2.778 0 0 0 0-.03Z" fill="#f22a73" fill-rule="evenodd" data-name="rocket"/></svg>