<svg xmlns="http://www.w3.org/2000/svg" width="63.636" height="50"><path d="M63.636 0v13.636H0V.002h63.636V0Zm0 36.364V50H0V36.364h63.636Zm0-18.182v13.636H0V18.184h63.636v-.002ZM4.545 9.092h36.362V4.547H4.545v4.547Zm0 36.363h36.362v-4.544H4.545v4.544Zm0-18.182h36.362V22.73H4.545v4.544Zm55.68-2.271a3.337 3.337 0 0 0-.388-1.61 3.45 3.45 0 0 0-.606-.805 3.292 3.292 0 0 0-2.37-.995 4.035 4.035 0 0 0-.045 0 3.946 3.946 0 0 0-.005 0c-.944 0-1.747.332-2.41.995a3.287 3.287 0 0 0-.994 2.37 4.014 4.014 0 0 0 0 .045 3.288 3.288 0 0 0 .964 2.383 3.937 3.937 0 0 0 .03.031c.664.665 1.469.997 2.415.996a3.294 3.294 0 0 0 2.384-.965 3.928 3.928 0 0 0 .03-.03 3.28 3.28 0 0 0 .996-2.37 4.033 4.033 0 0 0 0-.045Zm0 18.18a3.337 3.337 0 0 0-.388-1.61 3.45 3.45 0 0 0-.606-.805 3.292 3.292 0 0 0-2.37-.994 4.028 4.028 0 0 0-.045 0c-.946-.002-1.751.33-2.415.994a3.287 3.287 0 0 0-.994 2.37 4.014 4.014 0 0 0 0 .045 3.288 3.288 0 0 0 .964 2.383 3.937 3.937 0 0 0 .03.032 3.274 3.274 0 0 0 2.366.995h.05a3.294 3.294 0 0 0 2.383-.964 3.928 3.928 0 0 0 .03-.031c.664-.663.996-1.467.996-2.415Zm0-36.362a3.337 3.337 0 0 0-.388-1.61 3.45 3.45 0 0 0-.606-.805 3.292 3.292 0 0 0-2.37-.995 4.035 4.035 0 0 0-.045 0 3.94 3.94 0 0 0-.005 0c-.944 0-1.747.332-2.41.995a3.287 3.287 0 0 0-.994 2.37 4.014 4.014 0 0 0 0 .045c0 .945.331 1.75.994 2.414.664.665 1.469.997 2.415.995a3.294 3.294 0 0 0 2.384-.964 3.928 3.928 0 0 0 .03-.03 3.28 3.28 0 0 0 .996-2.371 4.033 4.033 0 0 0 0-.044Z" fill="#f22a73" fill-rule="evenodd" data-name="server"/></svg>