<svg version="1.2" xmlns="http://www.w3.org/2000/svg" viewBox="0 0 368 234" width="368" height="234"><style>.a{fill:#fff}</style><path fill-rule="evenodd" class="a" d="m187.1 39.7q1.4-1.9 3-3.7 1.5-1.9 3.2-3.7 1.6-1.8 3.3-3.5 3.7-3.7 7.8-7 4.1-3.3 8.6-6.2 4.4-2.8 9.1-5.1 4.8-2.3 9.7-4.1 4.4-1.4 8.8-2.5 4.4-1.1 8.9-1.9 4.5-0.7 9-1 4.6-0.4 9.1-0.3 0.6 0 1.2 0 0.6 0 1.1 0 0.6 0 1.2 0 0.6 0 1.2 0c6.1 0.1 12.3 0.8 18.3 2.1 6 1.2 11.9 3.1 17.6 5.5 5.7 2.4 11.1 5.3 16.2 8.8 5.1 3.4 9.9 7.4 14.2 11.7q3.3 3.3 6.3 6.8 3 3.5 5.6 7.4 2.6 3.8 4.8 7.8 2.2 4 4 8.3 2 4.6 3.4 9.4 1.5 4.7 2.4 9.6 1 4.9 1.5 9.9 0.4 5 0.4 10 0 0.1 0 0.3 0 0.1 0 0.3 0 0.1 0 0.3 0 0.2 0 0.3c0 6.3-0.6 12.6-1.8 18.7-1.2 6.2-3 12.2-5.5 18-2.4 5.8-5.4 11.3-8.9 16.5-3.6 5.1-7.6 9.9-12.2 14.3q-3.7 3.7-7.8 7-4.1 3.3-8.5 6.1-4.5 2.8-9.2 5.1-4.7 2.3-9.7 4-4.3 1.5-8.7 2.6-4.4 1.1-8.9 1.8-4.5 0.7-9.1 1.1-4.5 0.3-9.1 0.3-0.8 0-1.6 0-0.8 0-1.7-0.1-0.8 0-1.6 0-0.8-0.1-1.7-0.1c-5.9-0.2-11.9-0.9-17.7-2.2-5.9-1.3-11.6-3.2-17.1-5.6-5.5-2.4-10.8-5.2-15.7-8.6-5-3.4-9.6-7.2-13.9-11.4q-1.7-1.7-3.3-3.5-1.7-1.8-3.2-3.6-1.6-1.9-3-3.8-1.5-1.9-2.8-3.9v9.3q0 1-0.1 2 0 0.9 0 1.9 0 0.9 0 1.9-0.1 1-0.1 1.9c-1.3 29.2-10 52.2-26 69.2-17.2 18.4-39.6 27.6-66.8 27.6q-1.4 0-2.7-0.1-1.3 0-2.7 0-1.3-0.1-2.7-0.2-1.3-0.1-2.6-0.2-6-0.5-11.9-1.7-6-1.2-11.7-3.2-5.7-1.9-11.1-4.6-5.4-2.7-10.4-6-3.1-2-6-4.4-2.9-2.3-5.5-4.8-2.7-2.5-5.2-5.3-2.5-2.7-4.7-5.7-2.2-3-4.2-6.1-2-3.1-3.8-6.3-1.7-3.2-3.3-6.6-1.5-3.4-2.8-6.8l45.1-19.5c9.2 24.6 24.2 37 45.4 37 13.2 0 23.9-4.9 31.8-14.9q1.8-2.3 3.3-4.8 1.6-2.5 2.9-5.1 1.2-2.7 2.2-5.4 0.9-2.8 1.6-5.7 0.5-2 0.8-4.1 0.4-2 0.6-4.1 0.2-2.1 0.3-4.2 0.1-2.1 0.1-4.1 0-0.1 0-0.2 0-0.2 0-0.3 0-0.1 0-0.2 0-0.1 0-0.2 0-0.7 0-1.4 0-0.7-0.1-1.4 0-0.7-0.1-1.3-0.1-0.7-0.2-1.4c-14.6 10.3-31.3 15.4-49.9 15.4q-2.8 0-5.5-0.1-2.7-0.1-5.4-0.4-2.7-0.2-5.4-0.6-2.7-0.4-5.4-0.9c-36.1-7-54-33.3-54-79v-92.9h52.6v76.2q0 1.1 0 2.1 0 1.1 0 2.2 0 1 0.1 2.1 0 1.1 0.1 2.1c0.6 14.2 3 24.5 7.3 31q0.6 0.9 1.4 1.9 0.7 0.9 1.5 1.7 0.9 0.8 1.8 1.6 0.9 0.7 1.9 1.4 4.2 2.7 9.8 3.9 1.2 0.2 2.4 0.4 1.2 0.2 2.3 0.3 1.2 0.1 2.4 0.2 1.2 0 2.4 0 0.2 0 0.3 0 0.2 0 0.3 0 0.2 0 0.4 0 0.1 0 0.3 0c11.6-0.3 20.5-4 26.5-11.1q0.7-0.9 1.4-1.8 0.7-0.9 1.3-1.9 0.6-0.9 1.2-1.9 0.5-1.1 1-2.1 2.4-5.2 3.6-11.7 0.2-1.5 0.4-2.9 0.2-1.5 0.3-3 0.1-1.4 0.1-2.9 0.1-1.5 0.1-3v-85.2h53v40.2q1.3-2 2.8-4zm81.5 110.1q4.6 0 9.1-0.9 4.5-1 8.7-2.8 4.2-1.9 7.9-4.6 3.7-2.7 6.8-6.2 2-2.2 3.7-4.6 1.7-2.5 3.1-5.1 1.4-2.6 2.5-5.4 1-2.8 1.8-5.7 0.5-2 0.9-4.1 0.4-2.1 0.6-4.2 0.3-2.1 0.4-4.2 0.1-2.1 0.1-4.2c0-15.4-4.5-28-13.1-37.8q-1.7-2-3.7-3.7-1.9-1.8-4.1-3.3-2.1-1.5-4.4-2.7-2.3-1.2-4.8-2.1-1.9-0.8-4-1.3-2-0.5-4.1-0.9-2.1-0.3-4.2-0.5-2.1-0.2-4.2-0.1-0.2 0-0.4 0-0.1 0-0.3 0-0.2 0-0.4 0-0.2 0-0.4 0-4.6 0-9 1-4.4 1-8.5 2.9-4.2 1.9-7.8 4.6-3.6 2.7-6.6 6.1-2 2.2-3.7 4.6-1.7 2.5-3.1 5.1-1.4 2.6-2.5 5.4-1 2.7-1.8 5.6-0.5 2.1-0.9 4.2-0.4 2.1-0.7 4.3-0.2 2.1-0.3 4.3-0.2 2.1-0.1 4.3 0 1.7 0 3.4 0.1 1.7 0.3 3.4 0.1 1.7 0.4 3.4 0.2 1.7 0.6 3.4 0.6 3.3 1.7 6.5 1.1 3.2 2.6 6.3 1.5 3 3.4 5.8 1.9 2.8 4.1 5.3 1.7 2 3.7 3.7 1.9 1.7 4.1 3.2 2.1 1.5 4.4 2.7 2.3 1.2 4.7 2.1 2 0.7 4.1 1.2 2 0.6 4.1 0.9 2 0.4 4.1 0.5 2.1 0.2 4.2 0.2 0.2 0 0.3 0 0.1 0 0.2 0 0.1 0 0.3 0 0.1 0 0.2 0z"/></svg>