<svg xmlns="http://www.w3.org/2000/svg" width="45.715" height="40" viewBox="330.286 872 45.715 40"><path d="M373.143 894.857h-.335l-2.567 14.777a2.761 2.761 0 0 1-.981 1.697 2.778 2.778 0 0 1-1.83.669h-28.573a2.778 2.778 0 0 1-1.83-.67 2.761 2.761 0 0 1-.981-1.696l-2.567-14.777h-.335a2.75 2.75 0 0 1-1.994-.81 3.326 3.326 0 0 1-.026-.027 2.754 2.754 0 0 1-.838-1.983 3.328 3.328 0 0 1 0-.037 3.208 3.208 0 0 1 0-.004c0-.775.27-1.438.81-1.99a3.322 3.322 0 0 1 .026-.026 2.752 2.752 0 0 1 1.984-.837 3.316 3.316 0 0 1 .037 0h40a2.75 2.75 0 0 1 1.994.81 3.326 3.326 0 0 1 .026.027 2.75 2.75 0 0 1 .837 1.983 3.323 3.323 0 0 1 0 .037 2.75 2.75 0 0 1-.811 1.994 3.326 3.326 0 0 1-.026.026 2.75 2.75 0 0 1-1.983.837 3.323 3.323 0 0 1-.037 0Zm-32.233-16.339-2.076 9.196h-2.946l2.254-9.844a5.43 5.43 0 0 1 1.986-3.202 5.598 5.598 0 0 1 3.572-1.24h3.729a1.37 1.37 0 0 1 .41-.99 1.747 1.747 0 0 1 .014-.014 1.443 1.443 0 0 1 .494-.33 1.384 1.384 0 0 1 .51-.094h8.571a1.37 1.37 0 0 1 .992.411 1.747 1.747 0 0 1 .013.013 1.443 1.443 0 0 1 .33.494 1.384 1.384 0 0 1 .094.51h3.728a5.592 5.592 0 0 1 3.572 1.24 5.426 5.426 0 0 1 1.986 3.202l2.254 9.844h-2.946l-2.076-9.196a2.93 2.93 0 0 0-1.016-1.608 2.727 2.727 0 0 0-1.77-.624 2.94 2.94 0 0 0-.004 0h-3.728a1.37 1.37 0 0 1-.41.99 1.742 1.742 0 0 1-.014.014 1.373 1.373 0 0 1-1.005.424h-8.57a1.37 1.37 0 0 1-.992-.41 1.742 1.742 0 0 1-.013-.014 1.373 1.373 0 0 1-.424-1.004H343.7c-.67 0-1.26.208-1.774.624a2.933 2.933 0 0 0-1.016 1.608Zm1.52 26.942-.716-9.286a1.37 1.37 0 0 0-.488-.96 1.747 1.747 0 0 0-.015-.011 1.473 1.473 0 0 0-.463-.274 1.346 1.346 0 0 0-.454-.077 1.523 1.523 0 0 0-.12.005 1.38 1.38 0 0 0-.96.489 1.76 1.76 0 0 0-.012.014c-.261.305-.376.65-.345 1.037l.715 9.287c.03.371.182.684.457.937a1.388 1.388 0 0 0 .972.38h.111-.001a1.37 1.37 0 0 0 .96-.489 1.747 1.747 0 0 0 .011-.014c.261-.306.377-.652.347-1.038Zm24.285.224.715-9.287a1.539 1.539 0 0 0 .004-.116c0-.33-.109-.628-.328-.895a1.736 1.736 0 0 0-.022-.026 1.436 1.436 0 0 0-.483-.377 1.399 1.399 0 0 0-.49-.126 1.542 1.542 0 0 0-.12-.005c-.335 0-.636.113-.904.34a1.72 1.72 0 0 0-.013.01c-.303.261-.47.585-.503.972l-.715 9.286c-.028.376.08.714.324 1.012a1.737 1.737 0 0 0 .022.026 1.44 1.44 0 0 0 .476.373 1.393 1.393 0 0 0 .495.13h.112c.372 0 .695-.127.971-.38a1.373 1.373 0 0 0 .458-.937Zm-16.43-.112v-9.286a1.37 1.37 0 0 0-.41-.991 1.747 1.747 0 0 0-.013-.014 1.443 1.443 0 0 0-.495-.33 1.384 1.384 0 0 0-.51-.094 1.37 1.37 0 0 0-.991.411 1.742 1.742 0 0 0-.013.013 1.443 1.443 0 0 0-.331.494 1.384 1.384 0 0 0-.093.51v9.287a1.37 1.37 0 0 0 .41.991 1.747 1.747 0 0 0 .014.014 1.443 1.443 0 0 0 .494.33 1.384 1.384 0 0 0 .51.094 1.37 1.37 0 0 0 .991-.411 1.742 1.742 0 0 0 .014-.013 1.443 1.443 0 0 0 .33-.495 1.384 1.384 0 0 0 .094-.51Zm8.572 0v-9.286a1.37 1.37 0 0 0-.41-.991 1.742 1.742 0 0 0-.014-.014 1.373 1.373 0 0 0-1.005-.424 1.37 1.37 0 0 0-.99.411 1.742 1.742 0 0 0-.014.013 1.373 1.373 0 0 0-.424 1.005v9.286a1.37 1.37 0 0 0 .41.991 1.742 1.742 0 0 0 .014.014c.283.282.618.424 1.004.424a1.37 1.37 0 0 0 .992-.411 1.742 1.742 0 0 0 .013-.013 1.443 1.443 0 0 0 .33-.495 1.384 1.384 0 0 0 .094-.51Z" fill="#f22a73" fill-rule="evenodd" data-name="shopping-basket"/></svg>