<svg xmlns="http://www.w3.org/2000/svg" width="100" height="90.619" viewBox="320 910.455 100 90.619"><g data-name="DDos"><path d="M369.967 984.397v-5.473c0-.26-.26-.521-.52-.521a.548.548 0 0 0-.422.237.492.492 0 0 0-.1.284v5.473h-5.472a.548.548 0 0 0-.421.236.492.492 0 0 0-.1.285.548.548 0 0 0 .236.42.492.492 0 0 0 .285.1h5.472v5.473a.548.548 0 0 0 .237.421.492.492 0 0 0 .284.1.548.548 0 0 0 .422-.236.492.492 0 0 0 .1-.285v-5.472h5.472a.548.548 0 0 0 .421-.237.492.492 0 0 0 .1-.284.548.548 0 0 0-.237-.422.492.492 0 0 0-.284-.1h-5.473Z" fill="#0c0c0d" fill-rule="evenodd" data-name="Path 345"/><path d="M373.355 931.237V926.286a8.27 8.27 0 0 0-.242-1.891 11.585 11.585 0 0 0-.279-.976l-1.303-3.648 1.303-2.606V911.172a1.912 1.912 0 0 0-.012-.27c-.02-.129-.069-.228-.198-.248a.33.33 0 0 0-.05-.003h-.522l-2.606 2.084v-.26a.706.706 0 0 0-.181-.23c-.308-.254-.783-.208-.852.14a.46.46 0 0 0-.009.09v.26l-2.606-2.084c-.26-.261-.521-.261-.521 0a.265.265 0 0 0-.116.023c-.115.055-.139.202-.143.367a4.506 4.506 0 0 0-.002.13v5.733l1.303 2.606-1.303 3.649a13.53 13.53 0 0 0-.52 3.029 6.353 6.353 0 0 0 0 .098v4.95a3.721 3.721 0 0 0-.09.732c-.041 2.034 1.64 3.726 3.737 3.96h.522c1.042 0 2.345-.522 3.127-1.304a4.202 4.202 0 0 0 1.563-3.387Zm-4.69-16.678 3.127 9.12a6.212 6.212 0 0 1 .122.417c.113.439.163.814.276 1.253a6.212 6.212 0 0 0 .123.416h-6.775c0-.758.244-1.27.496-2.013a13.05 13.05 0 0 0 .025-.072l2.606-9.12Zm3.387 15.114v2.346h-6.775a.601.601 0 0 0-.04-.2c-.06-.167-.166-.358-.206-.63a1.483 1.483 0 0 1-.015-.212v-1.304h7.036Zm-6.775-2.866h7.036v1.563h-7.036v-1.563Zm.782 6.254h5.733a1.14 1.14 0 0 0-.096.11c-.157.202-.196.381-.377.408a.335.335 0 0 1-.049.003c-1.019 1.02-2.038 1.291-2.814 1.059a1.773 1.773 0 0 1-.052-.017 2.578 2.578 0 0 1-1.898-.98 5.229 5.229 0 0 1-.447-.583Zm5.733-20.586v4.169l-.782 1.303-1.303-3.909 2.085-1.563Zm-6.254 3.908v-3.908l2.084 1.303-1.303 3.908-.781-1.303Z" fill="#0c0c0d" fill-rule="evenodd" data-name="Path 346"/><path d="m394.202 936.71 1.042-2.086 1.043-2.605c.52-1.043.782-1.824.782-2.867l.52-3.909 2.085-1.824s0-.26.26-.26l2.346-4.951v-.522a30.01 30.01 0 0 0-.046-.046c-.212-.21-.23-.214-.463-.214a42.14 42.14 0 0 0-.012 0l-3.127.782v-.261a1.913 1.913 0 0 0-.012-.269c-.02-.13-.069-.228-.198-.248a.33.33 0 0 0-.05-.004c-.24 0-.481 0-.721.204a1.027 1.027 0 0 0-.061.056l-.26.26-1.564-2.866a.265.265 0 0 0-.024-.115c-.07-.145-.283-.145-.498-.145a.62.62 0 0 0-.298.093c-.13.075-.223.167-.223.167l-2.345 4.952v3.127l-2.606 2.866a9.104 9.104 0 0 0-1.702 2.366 16.087 16.087 0 0 0-.122.24v.26l-.26.522-.782 1.824-.782 1.824a4.135 4.135 0 0 0-.618 1.174c-.14.42-.208.852-.208 1.277a3.952 3.952 0 0 0 2.129 3.542c.39.261.782.391 1.172.456a7.08 7.08 0 0 0 1.173.066 6.276 6.276 0 0 0 .782-.033c.203-.025.407-.07.61-.151a2.175 2.175 0 0 0 .172-.077 5.79 5.79 0 0 0 1.905-1.173 4.07 4.07 0 0 0 .961-1.433Zm-3.909-9.903 6.515-7.036-1.042 9.642a3.292 3.292 0 0 1-.038.497c-.077.512-.266.946-.46 1.515a13.042 13.042 0 0 0-.024.072l-6.254-2.866a3.355 3.355 0 0 1 .554-1.01 8.876 8.876 0 0 1 .75-.814Zm-2.866 5.212 6.254 2.866-.782 1.564a.548.548 0 0 1-.236.42.492.492 0 0 1-.285.1l-5.994-2.866a2.268 2.268 0 0 1 .018-.335c.019-.133.058-.286.14-.482a3.587 3.587 0 0 1 .103-.225l.782-1.042Zm1.042-2.346 6.515 2.867-.521 1.303-6.515-2.867.521-1.303Zm-2.085 5.994 5.212 2.345c-.26 0-.521.26-.782.26a6.472 6.472 0 0 1-.609.125c-.735.11-1.379.036-2.167-.34a5.63 5.63 0 0 1-.09-.045 3.604 3.604 0 0 1-1.355-1.699 4.906 4.906 0 0 1-.209-.646Zm6.776-15.375 1.563-3.648 1.303 2.085-2.866 3.127v-1.564Zm7.296-1.303-1.824 3.648-1.042 1.043.52-4.17 2.346-.52Z" fill="#0c0c0d" fill-rule="evenodd" data-name="Path 347"/><path d="M390.554 984.397h-8.6V972.67a1.912 1.912 0 0 0-.012-.269c-.019-.13-.069-.228-.197-.248a.33.33 0 0 0-.051-.004h-.521a14.35 14.35 0 0 1-1.757 1.059c-2.805 1.417-5.24 1.318-7.112.46a7.163 7.163 0 0 1-2.597-2.04c-.238-.238-.694-.259-.97-.062a.58.58 0 0 0-.072.062c-2.05 2.563-6.118 4.117-11.21.697a16.194 16.194 0 0 1-.256-.176.67.67 0 0 1-.222-.047c-.169-.06-.3-.138-.3.047a.265.265 0 0 0-.115.023c-.145.07-.145.284-.145.498v11.727h-10.163a7.797 7.797 0 0 1-.273-.006c-1.009-.034-4.522-.3-7.395-2.37a9.721 9.721 0 0 1-1.192-1.012 9.588 9.588 0 0 1-2.458-4.336 12.358 12.358 0 0 1-.408-3.221 10.593 10.593 0 0 1 1.641-5.678 12.32 12.32 0 0 1 2.268-2.66 11.177 11.177 0 0 1 7.12-2.503 13.142 13.142 0 0 1 2 .157h.521c.217 0 .253-.18.26-.39a4.504 4.504 0 0 0 0-.131c.783-10.945 9.643-19.544 20.848-19.544a20.676 20.676 0 0 1 18.762 11.987.265.265 0 0 0 .023.115c.07.145.284.145.498.145a14.338 14.338 0 0 1 .895-.028 13.616 13.616 0 0 1 9.79 4.198 14.76 14.76 0 0 1 4.43 10.684 18.795 18.795 0 0 1 .003.383c0 12.422-12.517 14.21-13.033 14.21Zm-44.04 1.302h10.164V991.171c0 .243 1.806 5.906 10.466 9.21a29.532 29.532 0 0 0 2.042.693h.52a27.616 27.616 0 0 0 2.617-.84c7.585-2.868 9.545-7.78 9.847-8.857a1.134 1.134 0 0 0 .045-.205v-5.473h8.6c.246 0 12.892-1.871 14.22-13.816a18.823 18.823 0 0 0 .112-2.08c0-4.43-1.824-8.338-4.951-11.465a16.842 16.842 0 0 0-7.484-4.024 15.078 15.078 0 0 0-3.461-.406 22.775 22.775 0 0 0-19.805-12.248 21.873 21.873 0 0 0-21.889 20.065 11.436 11.436 0 0 0-1.74-.132 12.296 12.296 0 0 0-7.641 2.738c-2.867 2.346-4.43 5.733-4.43 9.381a13.643 13.643 0 0 0 .598 4.126 10.257 10.257 0 0 0 2.529 4.213c3.43 3.43 8.24 3.635 9.455 3.648a17.47 17.47 0 0 0 .187 0Zm10.945 5.212v-16.938a13.994 13.994 0 0 0 1.858.941c4.318 1.783 7.768.354 9.832-1.686a8.944 8.944 0 0 0 .037-.037 7.802 7.802 0 0 0 3.767 2.337c1.782.482 3.91.368 6.297-.688a15.127 15.127 0 0 0 1.662-.867v16.938a6.099 6.099 0 0 1-.214.545c-.67 1.504-2.94 5.318-9.534 7.688a28.037 28.037 0 0 1-1.978.627 26.955 26.955 0 0 1-2.416-.812c-6.746-2.639-8.85-6.854-9.257-7.9a3.234 3.234 0 0 1-.054-.148Zm31.792-37.003c-.26 0-.26 0 0 0" fill="#0c0c0d" fill-rule="evenodd" data-name="Path 348"/><path d="m337.915 924.983 2.346 2.084.52 3.91a5.646 5.646 0 0 0 .45 2.256 4.063 4.063 0 0 0 .333.61v.26l2.084 4.43a4.5 4.5 0 0 0 2.39 2.398 7.894 7.894 0 0 0 .477.208c.26.13.52.196.781.228a6.276 6.276 0 0 0 .782.033 4.845 4.845 0 0 0 1.173-.163 16.093 16.093 0 0 0 1.172-.358 4.83 4.83 0 0 0 2.284-4.127c0-.68-.138-1.377-.427-2.054a5.56 5.56 0 0 0-.032-.074l-.782-1.824-.521-1.303-.521-1.042v-.26a11.811 11.811 0 0 0-.705-1.238 8.596 8.596 0 0 0-1.12-1.368l-2.605-2.867V921.596l-2.346-4.952a.265.265 0 0 0-.023-.116c-.07-.145-.284-.145-.498-.145a1.912 1.912 0 0 0-.269.013c-.13.019-.228.068-.248.197a.33.33 0 0 0-.004.051l-2.085 2.606-.26-.26a.82.82 0 0 0-.391-.229 1.586 1.586 0 0 0-.391-.032c-.26 0-.26.26-.26.52v.261l-3.128-.52a1.913 1.913 0 0 0-.269.011c-.13.02-.228.07-.248.198a.33.33 0 0 0-.004.05.963.963 0 0 0-.088.101c-.168.223-.139.421.088.421l2.345 5.212Zm10.684 4.95-6.254 2.867c-.23-.69-.46-1.177-.51-1.82a3.358 3.358 0 0 1-.01-.264l-1.043-9.381 6.514 7.035a1.697 1.697 0 0 1 .555.464c.184.223.359.502.576.838a24.457 24.457 0 0 0 .172.262Zm1.564 3.389.521 1.302a.8.8 0 0 1 .241.503c.02.146.02.32.02.54l-5.994 2.866-.521-.52-.782-1.564 6.515-3.127Zm-1.042-2.346.26.26.521 1.043-6.514 2.867-.522-1.303 6.255-2.867Zm-6.515-13.03 1.824 3.91v1.563l-2.866-3.387 1.042-2.085Zm3.127 21.63 5.212-2.346a2.077 2.077 0 0 1-.055.462 2.873 2.873 0 0 1-1.509 1.884 2.736 2.736 0 0 1-1.42.428 4.827 4.827 0 0 1-1.163-.104 6.507 6.507 0 0 1-.283-.064c-.26 0-.521-.26-.782-.26Zm-6.254-18.502.521 4.17-1.042-1.043-1.824-3.648 2.345.521Z" fill="#0c0c0d" fill-rule="evenodd" data-name="Path 349"/><path d="m418.958 929.934-3.127.782v-.26a1.913 1.913 0 0 0-.012-.27c-.02-.13-.07-.228-.198-.248a.33.33 0 0 0-.05-.004c-.261 0-.522 0-.783.26l-.26.261-1.564-2.866a.265.265 0 0 0-.023-.116c-.07-.145-.284-.145-.498-.145a.62.62 0 0 0-.299.093c-.13.075-.222.168-.222.168l-2.345 4.95v3.128l-2.606 2.866a9.104 9.104 0 0 0-1.702 2.366 16.085 16.085 0 0 0-.122.24v.26l-.521 1.304-.522 1.042-.781 1.824a5.37 5.37 0 0 0-.357 1.113c-.41 2.015.422 4.042 2.18 5.141a2.893 2.893 0 0 0 .416.23c.643.291 1.287.291 1.93.291a9.388 9.388 0 0 0 .521-.01c.282-.015.565-.056.847-.164a2.176 2.176 0 0 0 .195-.086c1.303-.521 2.346-1.303 2.867-2.606l1.042-2.085 1.043-2.606c.484-.969.743-1.713.778-2.65a5.95 5.95 0 0 0 .003-.216l.522-3.909 2.084-1.824s0-.26.26-.26l2.346-4.952c-.26-.52-.26-.52-.26-.781l-.261-.261h-.521Zm-10.945 8.86 6.515-7.036-1.043 9.642a3.292 3.292 0 0 1-.037.497c-.08.534-.282.983-.484 1.587l-6.254-3.127a5.114 5.114 0 0 0 .37-.415c.308-.383.55-.765.933-1.148Zm2.345 10.423-5.993-2.866c0-.22 0-.44.157-.817a3.587 3.587 0 0 1 .103-.225l.522-1.303 6.514 2.866-.781 1.564a1.064 1.064 0 0 0-.114.134c-.153.213-.19.425-.399.638a1.096 1.096 0 0 1-.009.01Zm1.564-3.387-6.515-2.867.521-1.303v-.26l6.515 2.866-.521 1.564Zm-7.557 1.824 5.212 2.345a1.324 1.324 0 0 0-.124.006c-.366.034-.414.22-.603.25a.344.344 0 0 1-.055.005c-1.042.26-1.824.26-2.867-.26a3.604 3.604 0 0 1-1.355-1.7 4.906 4.906 0 0 1-.208-.646Zm6.515-15.375 1.824-3.648 1.303 2.085-2.867 3.127-.26-1.564Zm5.732 2.606-1.042 1.042.521-4.169 2.346-.521-1.825 3.648Z" fill="#0c0c0d" fill-rule="evenodd" data-name="Path 350"/><path d="m336.352 947.654-1.824-4.17v-.26a11.811 11.811 0 0 0-.704-1.238 8.596 8.596 0 0 0-1.12-1.368l-2.606-2.866v-3.127l-2.346-4.952a.265.265 0 0 0-.023-.115c-.055-.116-.202-.14-.367-.144a4.506 4.506 0 0 0-.13-.001c-.261 0-.522 0-.522.26l-1.563 2.867-.261-.26a.914.914 0 0 0-.177-.14.808.808 0 0 0-.302-.106 2.032 2.032 0 0 0-.303-.015.265.265 0 0 0-.115.023c-.145.07-.145.284-.145.498v.26l-3.127-.52a1.912 1.912 0 0 0-.27.011c-.145.022-.252.082-.252.249a.963.963 0 0 0-.087.1c-.147.195-.144.37.01.412a.296.296 0 0 0 .077.009l2.346 4.951s0 .26.26.26l1.824 1.825.522 3.909a5.646 5.646 0 0 0 .449 2.256 4.063 4.063 0 0 0 .332.61l1.043 2.606 1.042 2.085a4.5 4.5 0 0 0 2.39 2.397 7.894 7.894 0 0 0 .477.208 2.227 2.227 0 0 0 .476.173c.102.025.203.043.305.055a6.276 6.276 0 0 0 .782.033c.782 0 1.564-.26 2.345-.521a4.996 4.996 0 0 0 2.03-3.979 5.346 5.346 0 0 0-.434-2.202 5.563 5.563 0 0 0-.032-.073Zm-3.388-4.43-6.254 2.866a12.244 12.244 0 0 0-.003-.009c-.229-.685-.457-1.17-.508-1.81a3.358 3.358 0 0 1-.01-.265l-1.042-9.382 6.514 7.036c.521.26.782 1.043 1.303 1.564Zm-4.17 8.078-.78-1.564 6.514-2.866.52 1.303c.261.26.261.521.261 1.042l-5.993 2.606-.521-.521Zm4.691-7.036.522 1.303-6.515 2.867-.521-1.303 6.514-2.867Zm-3.387 8.6 5.211-2.346a4.488 4.488 0 0 1-.463 1.17 3.507 3.507 0 0 1-1.1 1.176c-.782.52-1.824.52-2.866.26a.6.6 0 0 1-.226-.053c-.139-.057-.277-.144-.416-.185a.497.497 0 0 0-.14-.022Zm-3.127-21.63 1.824 3.65v1.563l-2.867-2.867 1.043-2.345Zm-3.648 6.255-1.825-3.648 2.346.52.52 4.17-1.041-1.042Z" fill="#0c0c0d" fill-rule="evenodd" data-name="Path 351"/><path d="M354.853 958.598v8.6h2.085a7.18 7.18 0 0 0 2.375-.402c.45-.161.853-.365 1.18-.602a2.929 2.929 0 0 0 .354-.3 4.276 4.276 0 0 0 .877-1.333 5.267 5.267 0 0 0 .426-2.054 4.4 4.4 0 0 0-.25-1.484 4.41 4.41 0 0 0-1.053-1.643 10.45 10.45 0 0 0-2.01-.83 6.173 6.173 0 0 0-1.296-.204 6.796 6.796 0 0 0-.342-.008c-.692 0-1.589 0-2.147.18a1.433 1.433 0 0 0-.199.08Zm1.043 7.818v-6.775h1.303c2.345 0 3.648 1.303 3.648 3.387-.21 1.676-1.092 2.846-2.647 3.241a5.119 5.119 0 0 1-1.262.147h-1.042Z" fill="#0c0c0d" fill-rule="evenodd" data-name="Path 352"/><path d="M363.453 958.598v8.6h2.085a7.18 7.18 0 0 0 2.374-.402c.45-.161.853-.365 1.18-.602a2.929 2.929 0 0 0 .354-.3 4.276 4.276 0 0 0 .878-1.333 5.267 5.267 0 0 0 .425-2.054 4.4 4.4 0 0 0-.25-1.484 4.41 4.41 0 0 0-1.053-1.643 10.45 10.45 0 0 0-2.009-.83 6.173 6.173 0 0 0-1.297-.204 6.796 6.796 0 0 0-.342-.008c-.692 0-1.589 0-2.147.18a1.433 1.433 0 0 0-.198.08Zm1.042 7.818v-6.775h1.303c2.345 0 3.648 1.303 3.648 3.387a4.39 4.39 0 0 1-.57 1.746c-.45.74-1.141 1.257-2.077 1.495a5.119 5.119 0 0 1-1.261.147h-1.043Z" fill="#0c0c0d" fill-rule="evenodd" data-name="Path 353"/><path d="M374.658 960.683a3.11 3.11 0 0 0-1.883.588c-.519.386-.902.951-1.098 1.66a4.282 4.282 0 0 0-.146 1.14c0 1.839 1.014 2.867 2.505 3.083a4.326 4.326 0 0 0 .622.044c1.414 0 2.828-.852 3.085-2.75a4.738 4.738 0 0 0 .042-.638 4.112 4.112 0 0 0-.692-1.79 2.982 2.982 0 0 0-2.435-1.337Zm-2.085 3.388a3.2 3.2 0 0 0 .01.25c.093 1.184.84 2.095 1.814 2.095 1.303 0 2.085-1.042 1.825-2.345a3.274 3.274 0 0 0-.045-.536c-.11-.657-.426-1.315-1.008-1.625a1.615 1.615 0 0 0-.772-.185 2.13 2.13 0 0 0-.374.032c-1.03.184-1.45 1.144-1.45 2.314Z" fill="#0c0c0d" fill-rule="evenodd" data-name="Path 354"/><path d="m382.997 959.901.26-1.042a1.028 1.028 0 0 0-.237-.167c-.362-.194-.974-.354-1.587-.354-1.454 0-2.682.901-2.847 2.075a1.937 1.937 0 0 0-.02.27 2.376 2.376 0 0 0 .219 1.046c.33.685 1.04 1.118 2.127 1.3a5.579 5.579 0 0 1 .538.245c.44.233.7.474.849.745a1.682 1.682 0 0 1 .177.834 1.457 1.457 0 0 1-.462 1.018 1.935 1.935 0 0 1-1.362.545 4.552 4.552 0 0 1-1.387-.236 5.14 5.14 0 0 1-.698-.285l-.26 1.042a4.622 4.622 0 0 0 .556.234 5.447 5.447 0 0 0 1.789.287c2.033 0 3.075-.992 3.125-2.492a3.433 3.433 0 0 0 .002-.113 2.533 2.533 0 0 0-.222-1.077c-.318-.69-.967-1.171-1.863-1.53a34.352 34.352 0 0 1-.31-.125c-1.003-.412-1.452-.682-1.508-1.297a1.537 1.537 0 0 1-.006-.14c0-.51.498-1.27 1.495-1.303a2.048 2.048 0 0 1 .068 0 3.118 3.118 0 0 1 .537.044c.356.062.634.183.835.319a1.329 1.329 0 0 1 .192.157Z" fill="#0c0c0d" fill-rule="evenodd" data-name="Path 355"/></g></svg>