<svg xmlns="http://www.w3.org/2000/svg" width="100.001" height="92.897" viewBox="320 911.104 100.001 92.897"><g data-name="G-suite"><g data-name="Group 244"><path d="m382.568 921.213.547.547-10.11 10.655-.546-.546a21.767 21.767 0 0 0-15.027-6.01 21.451 21.451 0 0 0-21.576 20.952 22.576 22.576 0 0 0-.009.632 21.63 21.63 0 0 0 21.585 21.584 21.282 21.282 0 0 0 20.218-14.207h-18.852v-14.754h34.7v7.377a36.459 36.459 0 0 1 .003.5c0 19.675-15.957 35.503-35.952 35.565a38.038 38.038 0 0 1-.117 0 36.499 36.499 0 0 1-36.34-36.338 36.623 36.623 0 0 1 36.34-36.066 36.26 36.26 0 0 1 25.136 10.11Zm9.836 26.23v-6.011h-31.967v12.022h19.126l-.273.82a22.874 22.874 0 0 1-21.858 16.12 23.09 23.09 0 0 1-22.951-22.951c0-12.569 10.382-22.951 22.95-22.951a22.435 22.435 0 0 1 15.301 6.01l8.47-8.742c-6.557-6.011-14.754-9.29-23.77-9.29a34.866 34.866 0 0 0-34.973 34.973 34.866 34.866 0 0 0 34.973 34.972 34.866 34.866 0 0 0 34.972-34.972Z" fill="#0c0c0d" fill-rule="evenodd" data-name="Path 404"/></g><g data-name="Group 245"><path d="m324.716 932.43.82-1.093 11.148 8.359-.82 1.093-11.148-8.36" fill="#0c0c0d" fill-rule="evenodd" data-name="Rectangle 64"/></g><g data-name="Group 246"><path d="m327.377 966.022-.82-1.093 10.93-7.923.819 1.093-10.929 7.923Z" fill="#0c0c0d" fill-rule="evenodd" data-name="Path 405"/></g><g data-name="Group 247"><path d="m370.421 965.744.966-.966 9.47 9.464-.966.966-9.47-9.464" fill="#0c0c0d" fill-rule="evenodd" data-name="Rectangle 65"/></g><g data-name="Group 248"><path d="M411.53 931.869h-11.475a1.722 1.722 0 0 1-1.325-.744 1.549 1.549 0 0 1-.315-.895v-9.563a1.722 1.722 0 0 1 .744-1.325 1.549 1.549 0 0 1 .896-.314h11.475a1.722 1.722 0 0 1 1.325.743 1.549 1.549 0 0 1 .314.896v9.563c0 1.078-.797 1.624-1.606 1.639a1.844 1.844 0 0 1-.033 0Zm-11.475-11.475-.274 9.836s0 .234.218.269a.357.357 0 0 0 .056.004h11.475s.235 0 .27-.218a.357.357 0 0 0 .003-.055v-9.563s0-.235-.217-.27a.357.357 0 0 0-.056-.003h-11.475Zm0 0c-.274 0-.274 0 0 0" fill="#0c0c0d" fill-rule="evenodd" data-name="Path 406"/></g><g data-name="Group 249"><path d="m419.18 931.05-5.19-2.733a.278.278 0 0 1-.122-.024c-.121-.058-.146-.212-.15-.385a4.725 4.725 0 0 1-.002-.137v-4.372a.65.65 0 0 1 .098-.313c.078-.136.175-.233.175-.233l5.191-2.733h.547a.278.278 0 0 1 .121.025c.12.058.146.211.15.385a4.725 4.725 0 0 1 .002.137v9.563a2.005 2.005 0 0 1-.013.282c-.02.135-.072.24-.207.26a.346.346 0 0 1-.053.004 4.644 4.644 0 0 1 0 .09c-.004.175-.032.183-.24.183a17.592 17.592 0 0 1-.033 0h-.274Zm-4.371-3.826 4.098 1.913v-7.377l-4.098 1.912v3.552Z" fill="#0c0c0d" fill-rule="evenodd" data-name="Path 407"/></g><g data-name="Group 250"><path d="M416.995 980.503H400.6c-1.093 0-1.912-.82-1.912-1.913v-10.109a1.93 1.93 0 0 1 .41-1.214 1.874 1.874 0 0 1 1.358-.694 2.147 2.147 0 0 1 .144-.005h16.394c1.092 0 1.912.82 1.912 1.913v10.11c0 1.092-.82 1.912-1.912 1.912Zm-17.214-11.749v10.11a.563.563 0 0 0 .013.11c.054.265.285.642.694.701a.783.783 0 0 0 .113.008h16.394a.563.563 0 0 0 .11-.012c.288-.059.71-.328.71-.807V968.48a.563.563 0 0 0-.013-.111c-.059-.288-.328-.709-.807-.709H400.6v.274a.563.563 0 0 0-.111.012c-.288.059-.709.328-.709.807Z" fill="#0c0c0d" fill-rule="evenodd" data-name="Path 408"/></g><g data-name="Group 251"><path d="m408.525 975.312-9.017-7.377a.924.924 0 0 1-.106-.125c-.144-.208-.13-.417.042-.625a1.02 1.02 0 0 1 .064-.07.924.924 0 0 1 .125-.106c.208-.145.416-.13.624.042a1.02 1.02 0 0 1 .07.064l8.744 6.83 8.743-6.83a.724.724 0 0 1 .334-.182c.243-.06.486 0 .486.182a.724.724 0 0 1 .182.334c.06.243 0 .486-.182.486l-9.017 7.377a4.093 4.093 0 0 1-.214.1c-.403.173-.605.173-.605.173a4.646 4.646 0 0 1-.09 0c-.175-.004-.183-.031-.183-.24a17.593 17.593 0 0 1 0-.033Z" fill="#0c0c0d" fill-rule="evenodd" data-name="Path 409"/></g><g data-name="Group 252"><path d="M415.902 957.825h-16.94c-.273 0-.273-.273-.273-.273v-15.3c0-.274.273-.274.273-.274h3.005c.273 0 .273.274.273.274l-.273.273h-2.732v14.754h16.12v-14.754h-2.732c-.273 0-.273-.273-.273-.273l.273-.274h3.005c.274 0 .274.274.274.274v15.3c.273.273.273.273 0 .273Z" fill="#0c0c0d" fill-rule="evenodd" data-name="Path 410"/></g><g data-name="Group 253"><path d="M404.153 944.164h-2.186c-.273 0-.273-.273-.273-.273v-3.006c0-.273.273-.273.273-.273h2.186c.273 0 .273.273.273.273v3.006a.309.309 0 0 1 .04.002c.16.021.036.175-.15.241a.492.492 0 0 1-.163.03Zm-1.64-.82h1.64v-2.185h-1.64v2.185Z" fill="#0c0c0d" fill-rule="evenodd" data-name="Path 411"/></g><g data-name="Group 254"><path d="M412.896 944.164h-2.186c-.273 0-.273-.273-.273-.273v-3.006c0-.273.273-.273.273-.273h2.186c.273 0 .273.273.273.273v3.006c.274 0 0 .273-.273.273Zm-1.64-.82h1.64v-2.185h-1.64v2.185Z" fill="#0c0c0d" fill-rule="evenodd" data-name="Path 412"/></g><g data-name="Group 255"><path d="M410.71 942.525h-6.557c-.273 0-.273-.273-.273-.273l.273-.274h6.557c.274 0 .274.274.274.274s0 .234-.218.269a.357.357 0 0 1-.056.004Z" fill="#0c0c0d" fill-rule="evenodd" data-name="Path 413"/></g><g data-name="Group 256"><path d="M415.902 946.35h-16.94a.347.347 0 0 1-.067-.006c-.197-.04-.206-.248-.206-.266a.069.069 0 0 1 0-.001c0-.274.273-.274.273-.274h16.94c.273 0 .273.274.273.274a.145.145 0 0 1 0 .006c-.002.042-.025.267-.273.267Z" fill="#0c0c0d" fill-rule="evenodd" data-name="Path 414"/></g><g data-name="Group 257"><path d="M403.333 956.186v-8.743c0-.273.274-.273.274-.273a.347.347 0 0 1 .067.006c.197.039.205.247.206.266v8.744c0 .273-.273.273-.273.273a.347.347 0 0 1-.068-.006c-.197-.039-.205-.248-.206-.266a.069.069 0 0 1 0-.001Z" fill="#0c0c0d" fill-rule="evenodd" data-name="Path 415"/></g><g data-name="Group 258"><path d="M406.885 956.186v-8.743c0-.273.273-.273.273-.273l.274.273v8.743a4.646 4.646 0 0 1 0 .09c-.004.174-.032.183-.24.183a17.593 17.593 0 0 1-.034 0 .347.347 0 0 1-.067-.006c-.197-.039-.205-.248-.206-.266a.069.069 0 0 1 0-.001Z" fill="#0c0c0d" fill-rule="evenodd" data-name="Path 416"/></g><g data-name="Group 259"><path d="M410.437 956.186v-8.743c0-.273.273-.273.273-.273l.274.273v8.743a.926.926 0 0 1 .04.042c.203.231-.055.231-.314.231a.347.347 0 0 1-.067-.006c-.197-.039-.205-.248-.206-.266a.069.069 0 0 1 0-.001Z" fill="#0c0c0d" fill-rule="evenodd" data-name="Path 417"/></g><g data-name="Group 260"><path d="M414.536 949.082H400.6c-.273 0-.273-.273-.273-.273l.273-.273h13.935a.347.347 0 0 1 .067.006c.197.039.205.247.206.266l-.273.274Z" fill="#0c0c0d" fill-rule="evenodd" data-name="Path 418"/></g><g data-name="Group 261"><path d="M414.536 952.088H400.6a.347.347 0 0 1-.067-.007c-.197-.038-.206-.247-.206-.265a.069.069 0 0 1 0-.002c0-.273.273-.273.273-.273h13.935c.273 0 .273.273.273.273a.347.347 0 0 1-.006.068c-.04.197-.248.205-.266.206a.069.069 0 0 1-.001 0Z" fill="#0c0c0d" fill-rule="evenodd" data-name="Path 419"/></g><g data-name="Group 262"><path d="M414.536 955.093H400.6c-.273 0-.273-.273-.273-.273 0-.273.273-.273.273-.273h13.935c.273 0 .273.273.273.273a4.32 4.32 0 0 1-.003.003l-.27.27Z" fill="#0c0c0d" fill-rule="evenodd" data-name="Path 420"/></g><g data-name="Group 263"><path d="m332.295 984.874-.82 1.913a13.49 13.49 0 0 1-.012-.004c-.797-.267-2.103-.784-3.918-.814a10.012 10.012 0 0 0-.168-.002c-2.576 0-3.747 1.205-4.029 2.41a2.62 2.62 0 0 0-.07.596c0 1.912 1.367 2.732 4.099 3.825 3.424 1.317 5.324 2.634 5.457 5.418a6.702 6.702 0 0 1 .008.32 4.896 4.896 0 0 1-2.462 4.292c-.674.412-1.486.73-2.436.931a12.026 12.026 0 0 1-2.48.241 13.25 13.25 0 0 1-3.052-.353 8.725 8.725 0 0 1-1.591-.536 4.548 4.548 0 0 1-.821-.477l.82-1.913c.787.591 2 1.04 3.333 1.245a10.483 10.483 0 0 0 1.585.122c1.4 0 2.513-.359 3.265-.966a2.891 2.891 0 0 0 1.106-2.313 3.268 3.268 0 0 0-.206-1.224c-.404-1.013-1.43-1.661-3.35-2.4a32.081 32.081 0 0 0-.542-.201 15.932 15.932 0 0 1-2.395-.93c-2.113-1.051-3.343-2.486-3.343-4.535a4.79 4.79 0 0 1 2.8-4.306c1.091-.564 2.46-.885 4.03-.885 1.795-.2 3.153-.108 4.18.169a5.379 5.379 0 0 1 1.012.377Z" fill="#0c0c0d" fill-rule="evenodd" data-name="Path 421"/></g><g data-name="Group 264"><path d="M358.251 1003.727h-2.459l-.273-2.186c-.82 1.093-2.459 2.46-5.191 2.46-2.46 0-5.191-1.094-5.191-6.012v-8.196h2.732v7.65a9.225 9.225 0 0 0 .136 1.682c.27 1.44.966 2.364 2.318 2.618a4.462 4.462 0 0 0 .825.071c1.912 0 3.278-1.092 3.551-2.185a.828.828 0 0 0 .202-.388c.036-.14.054-.296.063-.462a9.723 9.723 0 0 0 .009-.516v-8.47h2.732v10.109h.546v3.825Z" fill="#0c0c0d" fill-rule="evenodd" data-name="Path 422"/></g><g data-name="Group 265"><path d="M371.913 989.793h2.732v13.934h-2.732v-13.934Zm3.005-3.826c0 .82-.546 1.64-1.64 1.64-1.078 0-1.624-.798-1.638-1.607a1.844 1.844 0 0 1 0-.033 1.722 1.722 0 0 1 .743-1.325 1.549 1.549 0 0 1 .896-.314c.82 0 1.639.547 1.639 1.64Z" fill="#0c0c0d" fill-rule="evenodd" data-name="Path 423"/></g><g data-name="Group 266"><path d="M391.311 985.694v4.099h4.099v1.912h-4.099v7.377a4.984 4.984 0 0 0 .115 1.134c.233.99.848 1.598 2.071 1.598a25.276 25.276 0 0 0 .532-.003c.53-.012.898-.06 1.108-.27v1.913a2.232 2.232 0 0 1-.627.19c-.418.071-.928.081-1.529.083a129.757 129.757 0 0 1-.303 0 7.213 7.213 0 0 1-1.193-.088 3.528 3.528 0 0 1-1.038-.327 2.034 2.034 0 0 1-.775-.678 3.461 3.461 0 0 1-.933-1.777 7.002 7.002 0 0 1-.145-1.15 12.142 12.142 0 0 1-.015-.625v-7.65h-2.459v-1.913h2.46v-3.278l2.731-.547Z" fill="#0c0c0d" fill-rule="evenodd" data-name="Path 424"/></g><g data-name="Group 267"><path d="m418.087 1001.268.547 1.913a14.953 14.953 0 0 0-.017.004c-1.022.257-2.518.746-4.709.809a16.349 16.349 0 0 1-.465.006 9.193 9.193 0 0 1-3.176-.518c-2.688-.987-4.201-3.333-4.201-6.586a7.81 7.81 0 0 1 1.423-4.63c1.009-1.383 2.518-2.352 4.415-2.65a8.15 8.15 0 0 1 1.265-.097 7.277 7.277 0 0 1 1.973.255c2.87.805 3.998 3.36 4.253 5.39a7.372 7.372 0 0 1 .059.913v1.093h-10.656a5.931 5.931 0 0 0 .286 1.9c.724 2.15 2.728 3.018 4.905 3.018a16.098 16.098 0 0 0 1.332-.052c1.23-.102 2.152-.358 2.766-.768Zm-9.562-6.011h8.196a5.2 5.2 0 0 0-.052-.731c-.19-1.33-.929-2.855-2.764-3.263a4.642 4.642 0 0 0-1.009-.104c-2.455 0-3.807 1.985-4.254 3.577a4.93 4.93 0 0 0-.117.521Z" fill="#0c0c0d" fill-rule="evenodd" data-name="Path 425"/></g></g></svg>