<svg xmlns="http://www.w3.org/2000/svg" width="24.546" height="30" viewBox="257.727 765.999 24.546 30"><path d="M282.273 781.681v12.272a1.971 1.971 0 0 1-.578 1.43 2.348 2.348 0 0 1-.019.02 1.97 1.97 0 0 1-1.423.596 2.42 2.42 0 0 1-.026 0h-20.454a1.971 1.971 0 0 1-1.43-.578 2.344 2.344 0 0 1-.019-.019 1.973 1.973 0 0 1-.596-1.449V781.68a1.971 1.971 0 0 1 .578-1.43 2.348 2.348 0 0 1 .018-.019 1.97 1.97 0 0 1 1.423-.596 2.42 2.42 0 0 1 .026 0h.682v-4.09a9.172 9.172 0 0 1 2.725-6.645 11.337 11.337 0 0 1 .087-.089 9.391 9.391 0 0 1 3.785-2.365 9.557 9.557 0 0 1 2.948-.447c2.613 0 4.857.937 6.733 2.812a9.388 9.388 0 0 1 2.366 3.784c.298.924.446 1.908.446 2.95v4.09h.682a1.971 1.971 0 0 1 1.43.578 2.348 2.348 0 0 1 .019.019 1.97 1.97 0 0 1 .597 1.423 2.42 2.42 0 0 1 0 .026Zm-17.727-2.046h10.909v-4.09a5.249 5.249 0 0 0-1.55-3.807 6.357 6.357 0 0 0-.049-.05 5.25 5.25 0 0 0-3.786-1.598 6.342 6.342 0 0 0-.07 0 5.249 5.249 0 0 0-3.807 1.548 6.352 6.352 0 0 0-.05.05 5.25 5.25 0 0 0-1.598 3.786 6.342 6.342 0 0 0 0 .07v4.091Z" fill="#f22a73" fill-rule="evenodd" data-name="lock"/></svg>