<svg xmlns="http://www.w3.org/2000/svg" width="60.002" height="60.002" viewBox="299.999 1879.999 60.002 60.002"><path d="M330 1880c5.442 0 10.462 1.341 15.058 4.023 4.597 2.683 8.236 6.322 10.919 10.919A29.349 29.349 0 0 1 360 1910a29.349 29.349 0 0 1-4.023 15.058 29.861 29.861 0 0 1-10.919 10.919A29.349 29.349 0 0 1 330 1940a29.348 29.348 0 0 1-15.058-4.023 29.862 29.862 0 0 1-10.919-10.919A29.349 29.349 0 0 1 300 1910c0-5.442 1.341-10.462 4.023-15.058a29.861 29.861 0 0 1 10.919-10.919A29.349 29.349 0 0 1 330 1880Zm15 27.852-21.25-12.5c-.673-.412-1.363-.49-2.07-.234a3.092 3.092 0 0 0-.43.195 2.67 2.67 0 0 0-.774.671 2.358 2.358 0 0 0-.469 1.299 3.17 3.17 0 0 0-.007.219v25a2.631 2.631 0 0 0 .19 1.022c.171.408.456.753.855 1.033a3.203 3.203 0 0 0 .205.133c.363.182.726.285 1.089.308a2.498 2.498 0 0 0 .161.005 2.391 2.391 0 0 0 1.25-.351l21.25-12.504a2.56 2.56 0 0 0 .768-.64 2.27 2.27 0 0 0 .47-1.235 3.107 3.107 0 0 0 .012-.273 2.618 2.618 0 0 0-.169-.961c-.169-.432-.465-.789-.888-1.07a3.079 3.079 0 0 0-.193-.117Z" fill="#f22a73" fill-rule="evenodd" data-name="play-circle"/></svg>