<svg xmlns="http://www.w3.org/2000/svg" width="21.659" height="30" viewBox="258.171 765.999 21.659 30"><path d="M271.392 786.999h-5.625a.557.557 0 0 1-.375-.148 1.086 1.086 0 0 1-.222-.285 1.932 1.932 0 0 1-.196-.478 1.637 1.637 0 0 1-.051-.401v-1.055a5.047 5.047 0 0 1 .77-2.654 7.063 7.063 0 0 1 .753-1.015c1.016-1.149 2.133-1.996 3.352-2.542a9.99 9.99 0 0 0 .75-.38c.49-.276.872-.56 1.143-.849a2.677 2.677 0 0 0 .076-.084 2.344 2.344 0 0 0 .51-1.042c.05-.228.076-.473.076-.736a4.06 4.06 0 0 0 0-.003 1.76 1.76 0 0 0-.405-1.113 2.866 2.866 0 0 0-.483-.473 3.969 3.969 0 0 0-.202-.149c-.726-.5-1.565-.749-2.517-.749a4.197 4.197 0 0 0-.003 0c-.948 0-1.746.198-2.395.593a3.49 3.49 0 0 0-.137.087 4.681 4.681 0 0 0-.448.373c-.47.436-1.076 1.11-1.817 2.021a49.532 49.532 0 0 0-.242.301 1.143 1.143 0 0 1-.235.221.846.846 0 0 1-.492.154c-.188 0-.383-.062-.586-.187l-3.843-2.93a1.003 1.003 0 0 1-.232-.246.876.876 0 0 1-.131-.34 1.003 1.003 0 0 1-.014-.164.925.925 0 0 1 .143-.493 13.638 13.638 0 0 1 3.277-3.791c1.896-1.476 4.153-2.283 6.773-2.422a15.635 15.635 0 0 1 .825-.021 10.283 10.283 0 0 1 3.18.517 11.946 11.946 0 0 1 .593.21 12.716 12.716 0 0 1 3.422 1.945 9.713 9.713 0 0 1 2.484 2.988 7.687 7.687 0 0 1 .962 3.715 7.8 7.8 0 0 1-.188 1.735 6.92 6.92 0 0 1-.176.633 8.55 8.55 0 0 1-.61 1.446 5.116 5.116 0 0 1-.21.347 6.345 6.345 0 0 1-1.068 1.202 9.59 9.59 0 0 1-.221.192c-.457.386-.843.685-1.157.896a5.495 5.495 0 0 1-.19.123c-.263.162-.604.362-1.024.601a80.907 80.907 0 0 1-.406.23 4.563 4.563 0 0 0-1.52 1.395 5.36 5.36 0 0 0-.086.13c-.43.654-.644 1.178-.644 1.569a.964.964 0 0 0 0 .001 1.154 1.154 0 0 1-.156.572 1.543 1.543 0 0 1-.126.19c-.188.242-.407.363-.656.363Zm1.03 2.438v5.625a.893.893 0 0 1-.263.637 1.174 1.174 0 0 1-.018.018.986.986 0 0 1-.29.204.883.883 0 0 1-.366.078h-5.625a.897.897 0 0 1-.655-.282.986.986 0 0 1-.205-.29.883.883 0 0 1-.077-.365v-5.625a.893.893 0 0 1 .264-.638 1.174 1.174 0 0 1 .018-.018.986.986 0 0 1 .289-.204.883.883 0 0 1 .366-.078h5.625a.893.893 0 0 1 .638.264 1.172 1.172 0 0 1 .018.018.986.986 0 0 1 .204.29.883.883 0 0 1 .078.366Z" fill="#f22a73" fill-rule="evenodd" data-name="question"/></svg>