<svg xmlns="http://www.w3.org/2000/svg" width="18.001" height="18.001" viewBox="436 1202.999 18.001 18.001"><path d="m446.524 1216.851-4.22-2.109a3.614 3.614 0 0 1-2.554 1.008 3.612 3.612 0 0 1-2.62-1.062 4.33 4.33 0 0 1-.034-.034 3.607 3.607 0 0 1-1.096-2.604v-.05a3.614 3.614 0 0 1 1.062-2.62 4.326 4.326 0 0 1 .033-.034c.73-.73 1.615-1.096 2.655-1.096a3.614 3.614 0 0 1 2.554 1.008l4.22-2.11a8.81 8.81 0 0 1-.01-.121 3.767 3.767 0 0 1-.014-.277 3.612 3.612 0 0 1 1.062-2.62 4.33 4.33 0 0 1 .034-.035A3.608 3.608 0 0 1 450.2 1203a4.405 4.405 0 0 1 .049 0 3.614 3.614 0 0 1 2.62 1.062 4.326 4.326 0 0 1 .034.033 3.609 3.609 0 0 1 1.096 2.606 4.414 4.414 0 0 1 0 .049 3.61 3.61 0 0 1-1.062 2.62 4.317 4.317 0 0 1-.034.034 3.613 3.613 0 0 1-2.605 1.096 4.41 4.41 0 0 1-.049 0 3.614 3.614 0 0 1-2.555-1.008l-4.219 2.11a8.81 8.81 0 0 1 .01.121c.008.088.012.162.013.224a2.077 2.077 0 0 1 .001.053c0 .072-.005.166-.014.284a8.914 8.914 0 0 1-.01.115l4.22 2.109a3.614 3.614 0 0 1 2.554-1.008 3.612 3.612 0 0 1 2.62 1.062 4.33 4.33 0 0 1 .034.034A3.607 3.607 0 0 1 454 1217.2v.05c0 1.04-.365 1.924-1.096 2.654A3.609 3.609 0 0 1 450.3 1221a4.414 4.414 0 0 1-.049 0 3.61 3.61 0 0 1-2.62-1.062 4.322 4.322 0 0 1-.034-.034 3.613 3.613 0 0 1-1.096-2.605 4.41 4.41 0 0 1 0-.049c0-.072.005-.166.014-.284a8.914 8.914 0 0 1 .01-.115Z" fill="#f22a73" fill-rule="evenodd" data-name="share-alt"/></svg>