<svg xmlns="http://www.w3.org/2000/svg" width="140.002" height="140.004" viewBox="542 1605.998 140.002 140.004"><path d="M672.612 1711.136A68.48 68.48 0 0 0 682 1676a68.481 68.481 0 0 0-9.388-35.136c-6.258-10.726-14.75-19.218-25.476-25.476A68.48 68.48 0 0 0 612 1606a68.48 68.48 0 0 0-35.136 9.388c-10.726 6.258-19.218 14.75-25.476 25.476C545.129 1651.589 542 1663.3 542 1676c0 12.699 3.13 24.41 9.388 35.136 6.258 10.726 14.75 19.218 25.476 25.476A68.48 68.48 0 0 0 612 1746a68.48 68.48 0 0 0 35.136-9.388c10.726-6.258 19.218-14.75 25.476-25.476ZM670.326 1676h.007c0-7.9-1.549-15.45-4.647-22.649-3.098-7.2-7.245-13.397-12.44-18.593a58.433 58.433 0 0 0-17.09-11.771 66.888 66.888 0 0 0-1.503-.67 56.765 56.765 0 0 0-22.653-4.65 61.4 61.4 0 0 0-.02 0 56.598 56.598 0 0 0-22.629 4.647 60.078 60.078 0 0 0-15.563 9.63 55.982 55.982 0 0 0-3.03 2.81c-5.198 5.193-9.345 11.391-12.44 18.593-3.096 7.202-4.646 14.753-4.651 22.653-.006 7.9 1.544 15.45 4.647 22.649a60.123 60.123 0 0 0 9.63 15.564 55.942 55.942 0 0 0 2.81 3.029 58.26 58.26 0 0 0 16.923 11.695 66.765 66.765 0 0 0 1.67.745 56.743 56.743 0 0 0 22.65 4.647 56.743 56.743 0 0 0 22.648-4.647 59.856 59.856 0 0 0 15.502-9.572 55.657 55.657 0 0 0 3.09-2.868 58.552 58.552 0 0 0 11.695-16.924 67.04 67.04 0 0 0 .746-1.67 56.527 56.527 0 0 0 4.648-22.609 60.75 60.75 0 0 0 0-.039Zm-37.544 34.086a33.654 33.654 0 0 0 12.577-17.772 6.65 6.65 0 0 0 .068-.228c.403-1.441.258-2.84-.434-4.194a6.754 6.754 0 0 0-.034-.066 5.548 5.548 0 0 0-3.337-2.804c-1.52-.487-3.008-.365-4.465.366-1.457.73-2.429 1.886-2.916 3.465a22.63 22.63 0 0 1-8.432 11.803c-4.104 3.007-8.707 4.51-13.809 4.51a22.779 22.779 0 0 1-13.806-4.51c-4.101-3.008-6.911-6.942-8.43-11.803a7.004 7.004 0 0 0-.048-.147 5.54 5.54 0 0 0-2.823-3.318c-1.428-.731-2.902-.853-4.421-.366-1.58.485-2.734 1.442-3.465 2.87a6.643 6.643 0 0 0-.155.322 5.545 5.545 0 0 0-.49 2.689 6.014 6.014 0 0 0 .28 1.41c2.247 7.353 6.44 13.278 12.576 17.773A34.293 34.293 0 0 0 612 1716.83a34.293 34.293 0 0 0 20.782-6.743Zm10.906-49.278a11.226 11.226 0 0 0 3.312-8.141c0-3.22-1.14-5.97-3.418-8.249a13.592 13.592 0 0 0-.108-.106 11.226 11.226 0 0 0-8.14-3.312 13.553 13.553 0 0 0-.151 0 11.227 11.227 0 0 0-8.098 3.418c-2.279 2.28-3.418 5.029-3.418 8.249a13.553 13.553 0 0 0 0 .15 11.227 11.227 0 0 0 3.418 8.098c2.279 2.279 5.028 3.418 8.248 3.418 3.22 0 5.97-1.14 8.249-3.418a13.587 13.587 0 0 0 .106-.107Zm-46.667 0a11.226 11.226 0 0 0 3.312-8.141 13.553 13.553 0 0 0 0-.15 11.227 11.227 0 0 0-3.418-8.099c-2.279-2.279-5.028-3.418-8.248-3.418-3.22 0-5.97 1.14-8.249 3.418-2.279 2.28-3.418 5.029-3.418 8.249a13.553 13.553 0 0 0 0 .15 11.227 11.227 0 0 0 3.418 8.098c2.28 2.279 5.029 3.418 8.249 3.418 3.22 0 5.97-1.14 8.248-3.418a13.588 13.588 0 0 0 .106-.107Z" fill="#0c0c0d" fill-rule="evenodd" data-name="smile-o"/></svg>