<svg xmlns="http://www.w3.org/2000/svg" width="37.143" height="40" viewBox="1135 4139 37.143 40"><path d="M1137.857 4179h31.429a2.866 2.866 0 0 0 2.857-2.857v-19.018c0-1.045-.59-1.884-.938-2.25a62.944 62.944 0 0 1-.213-.216 36097.53 36097.53 0 0 1-13.92-14.195 4.86 4.86 0 0 0-3.5-1.464 4.832 4.832 0 0 0-3.5 1.473 16965.864 16965.864 0 0 0-.16.162 24959.35 24959.35 0 0 0-13.732 14 59.733 59.733 0 0 0-.242.249 2.578 2.578 0 0 0-.129.145 3.718 3.718 0 0 0-.757 1.627 3.065 3.065 0 0 0-.052.558v18.929a2.866 2.866 0 0 0 2.857 2.857Zm31.616-20.348-7.24 7.571a.185.185 0 0 0-.043.063.17.17 0 0 0 .02.16.193.193 0 0 0 .022.027l6.723 7.16a1.159 1.159 0 0 1 0 1.644 1.17 1.17 0 0 1-.683.33 1.17 1.17 0 0 1-.96-.33l-13.482-14.393a.36.36 0 0 0-.159-.099.344.344 0 0 0-.358.099l-13.474 14.384a1.17 1.17 0 0 1-.683.33 1.154 1.154 0 0 1-.05.006 1.136 1.136 0 0 1-.088.003 1.136 1.136 0 0 1-.089-.003 1.172 1.172 0 0 1-.704-.308 1.129 1.129 0 0 1-.029-.028 1.158 1.158 0 0 1-.07-1.566 1.19 1.19 0 0 1 .07-.077l6.724-7.16a.19.19 0 0 0 .046-.113.19.19 0 0 0-.046-.138l-7.268-7.571a1.356 1.356 0 0 1-.344-.68c-.218-1.044.463-2.517 1.781-2.517h28.965a1.382 1.382 0 0 1 .008 0c1.468 0 2.276 2.332 1.411 3.206Z" fill="#f22a73" fill-rule="evenodd" data-name="Icon ionic-ios-mail-open"/></svg>