<svg xmlns="http://www.w3.org/2000/svg" width="201.869" height="56" viewBox="139 52 201.869 56"><g data-name="logo_new"><path d="M195 80c0 15.467-12.533 28-28 28a27.995 27.995 0 0 1-28-28 27.995 27.995 0 0 1 28-28c15.467 0 28 12.532 28 28Z" fill="#f22973" fill-rule="evenodd" data-name="Path 140"/><path d="M203.362 78.858V92.3h-6.708V68.19h6.708v2.68c2.027-2.05 4.31-3.099 6.849-3.099a8.899 8.899 0 0 1 3.646.731 8.63 8.63 0 0 1 2.736 1.948 9.03 9.03 0 0 1 2.346 4.602 13.11 13.11 0 0 1 .24 2.573v14.675h-6.709V78.672a11.18 11.18 0 0 0-.16-1.992c-.433-2.372-1.734-3.552-3.916-3.552a4.847 4.847 0 0 0-3.459 1.41 6.277 6.277 0 0 0-.059.058 4.466 4.466 0 0 0-1.228 2.05 7.19 7.19 0 0 0-.268 1.609 10.016 10.016 0 0 0-.018.603Z" fill="#fff" fill-rule="evenodd" data-name="Path 141"/><path d="m241.938 83.61 3.843 4.17a17.345 17.345 0 0 1-3.626 2.981 12.892 12.892 0 0 1-6.786 1.91 15.322 15.322 0 0 1-4.018-.499 11.335 11.335 0 0 1-5.23-3.04 11.923 11.923 0 0 1-3.364-7.363 16.36 16.36 0 0 1-.084-1.676 12.911 12.911 0 0 1 .674-4.257 11.03 11.03 0 0 1 3.123-4.641 12.674 12.674 0 0 1 8.712-3.401 14.415 14.415 0 0 1 4.004.533 11.57 11.57 0 0 1 4.243 2.239 9.736 9.736 0 0 1 3.55 6.731 12.218 12.218 0 0 1 .037.443v.862l-16.027 6.639a4.814 4.814 0 0 0 3.017 1.796 7.014 7.014 0 0 0 1.293.114 8.006 8.006 0 0 0 3.508-.834 9.483 9.483 0 0 0 .242-.12 8.056 8.056 0 0 0 2.224-1.722 7.438 7.438 0 0 0 .665-.865Zm-12.65-3.098 10.483-4.263a3.012 3.012 0 0 0-1.973-2.275c-.62-.238-1.383-.357-2.29-.357-1.653 0-3.098.536-4.356 1.607a5.223 5.223 0 0 0-1.843 3.443 7.698 7.698 0 0 0-.067 1.03c0 .349.024.628.047.815Z" fill="#fff" fill-rule="evenodd" data-name="Path 142"/><path d="m248.46 88.852 2.959-4.217a14.738 14.738 0 0 0 3.634 2.087 11.975 11.975 0 0 0 4.379.825c.614 0 1.146-.083 1.578-.257a2.269 2.269 0 0 0 .472-.255c.512-.35.768-.792.768-1.375a1.445 1.445 0 0 0-.246-.79 2.307 2.307 0 0 0-.402-.463 3.518 3.518 0 0 0-.4-.307c-.684-.456-1.68-.912-2.966-1.324a21.245 21.245 0 0 0-.085-.027c-1.095-.346-1.983-.644-2.653-.908a12.77 12.77 0 0 1-.399-.164 14.044 14.044 0 0 1-.9-.43 19.29 19.29 0 0 1-1.5-.874 5.836 5.836 0 0 1-1.856-1.797c-.489-.766-.771-1.653-.848-2.662a7.596 7.596 0 0 1-.02-.573 6.56 6.56 0 0 1 2.122-4.97 8.429 8.429 0 0 1 .556-.48 9.595 9.595 0 0 1 3.827-1.771 13.846 13.846 0 0 1 2.906-.325 17.095 17.095 0 0 1 .209-.001 13.663 13.663 0 0 1 5.456 1.175 18.574 18.574 0 0 1 3.046 1.69l-2.516 4.472a13.432 13.432 0 0 0-2.496-1.374 9.758 9.758 0 0 0-3.746-.769 8.604 8.604 0 0 0-1.058.06c-1.372.17-2.064.713-2.064 1.64a1.497 1.497 0 0 0 .585 1.21 2.433 2.433 0 0 0 .394.258 8.379 8.379 0 0 0 .571.275c.445.196 1.003.41 1.671.643a49.223 49.223 0 0 0 1.019.34 994.61 994.61 0 0 1 1.056.342c.873.283 1.552.508 2.024.69a9.311 9.311 0 0 1 .158.063 10.781 10.781 0 0 1 .783.347c.462.226.97.506 1.523.841a5.012 5.012 0 0 1 2.464 3.64 8.35 8.35 0 0 1 .121 1.461 7.767 7.767 0 0 1-.488 2.803 6.894 6.894 0 0 1-2.144 2.905 9.168 9.168 0 0 1-4.271 1.936 13.205 13.205 0 0 1-2.391.207 16.827 16.827 0 0 1-3.796-.455 21.38 21.38 0 0 1-1.795-.5 16.82 16.82 0 0 1-5.24-2.842Z" fill="#fff" fill-rule="evenodd" data-name="Path 143"/><path d="m289.994 83.33 3.983 4.473c-3.098 3.215-6.476 4.846-10.086 4.846a14.17 14.17 0 0 1-4.961-.843 12.702 12.702 0 0 1-4.194-2.582 11.354 11.354 0 0 1-3.711-7.862 15.454 15.454 0 0 1-.04-1.106 13.105 13.105 0 0 1 .725-4.443 11.31 11.31 0 0 1 3.073-4.572c2.516-2.306 5.52-3.47 8.991-3.47a13.51 13.51 0 0 1 3.938.599 15.278 15.278 0 0 1 1.327.472 13.307 13.307 0 0 1 4.682 3.191l-3.494 4.566a7.849 7.849 0 0 0-2.842-2.143 9.76 9.76 0 0 0-.009-.004c-1.115-.51-2.23-.765-3.322-.765-1.77 0-3.285.582-4.543 1.724a5.566 5.566 0 0 0-1.76 3.174 8.372 8.372 0 0 0-.15 1.624 7.992 7.992 0 0 0 .224 1.95 5.469 5.469 0 0 0 1.686 2.826c1.235 1.141 2.726 1.7 4.426 1.7 2.136 0 4.08-1.02 5.813-3.06a13.525 13.525 0 0 0 .244-.294Z" fill="#fff" fill-rule="evenodd" data-name="Path 144"/><path d="M313.964 70.216V68.19h6.755V92.3h-6.755v-1.98c-1.91 1.56-4.1 2.329-6.546 2.329a10.968 10.968 0 0 1-7.842-3.235 14.445 14.445 0 0 1-.218-.213 11.627 11.627 0 0 1-3.3-6.837 16.292 16.292 0 0 1-.147-2.224 14.398 14.398 0 0 1 .52-3.972 11.048 11.048 0 0 1 3.02-5.02 11.562 11.562 0 0 1 8.2-3.354c2.423 0 4.52.815 6.313 2.422ZM302.666 80.28a8.244 8.244 0 0 0 .267 2.15 6.166 6.166 0 0 0 1.48 2.672c1.165 1.235 2.516 1.864 4.077 1.864a4.947 4.947 0 0 0 3.668-1.572 6.675 6.675 0 0 0 .268-.292 6.44 6.44 0 0 0 1.443-3.026 9.102 9.102 0 0 0 .165-1.772 8.84 8.84 0 0 0-.297-2.344 6.984 6.984 0 0 0-1.31-2.571 5.737 5.737 0 0 0-1.494-1.312 4.784 4.784 0 0 0-2.49-.668c-1.584 0-2.935.652-4.076 1.956a6.984 6.984 0 0 0-1.651 3.935 9.427 9.427 0 0 0-.05.98Z" fill="#fff" fill-rule="evenodd" data-name="Path 145"/><path d="M332.74 60.992v7.22h5.823v5.219h-5.824v10.39c0 .706.134 1.292.412 1.758a2.29 2.29 0 0 0 .31.407 2.783 2.783 0 0 0 .678.532 2.105 2.105 0 0 0 1.023.26 3.711 3.711 0 0 0 2.718-1.162 5.665 5.665 0 0 0 .473-.538l2.516 4.705a12.629 12.629 0 0 1-2.35 1.718 8.649 8.649 0 0 1-4.266 1.148 8.256 8.256 0 0 1-5.87-2.283 7.45 7.45 0 0 1-2.21-4.132 11.015 11.015 0 0 1-.19-2.088V60.992h6.756Z" fill="#fff" fill-rule="evenodd" data-name="Path 146"/><path d="M147.153 78.719V67.188h6.522v9.434c0 1.81.187 3.203.571 4.181a3.849 3.849 0 0 0 .361.71 2.977 2.977 0 0 0 1.726 1.232c.355.103.749.164 1.182.183a6.938 6.938 0 0 0 .307.007 5.908 5.908 0 0 0 1.37-.15c.855-.203 1.545-.614 2.077-1.224a4.53 4.53 0 0 0 .843-1.564c.214-.668.322-1.438.322-2.303V67.14h6.546V86.71c0 4.076-1.072 7.244-3.215 9.527a10.712 10.712 0 0 1-7.512 3.403 14.388 14.388 0 0 1-.78.021 13.33 13.33 0 0 1-3.913-.553 11.284 11.284 0 0 1-3.006-1.427 11.337 11.337 0 0 1-3.811-4.377 14.428 14.428 0 0 1-.592-1.33l5.591-2.423a9.74 9.74 0 0 0 1.018 2.058c.561.842 1.228 1.475 1.998 1.898a5.364 5.364 0 0 0 2.621.633 5.395 5.395 0 0 0 1.844-.301 4.657 4.657 0 0 0 2.093-1.539 6.645 6.645 0 0 0 1.324-2.99 9.27 9.27 0 0 0 .144-1.669 5.65 5.65 0 0 0-.015-.384 17.088 17.088 0 0 0-.032-.384 10.642 10.642 0 0 1-6.196 1.886c-4.98 0-7.973-2.117-8.993-6.34a15.802 15.802 0 0 1-.395-3.7Z" fill="#13110c" fill-rule="evenodd" data-name="Path 147"/><path d="M190.656 83.765a12.036 12.036 0 0 0 .99-4.93 14.475 14.475 0 0 0-.004-.315 11.505 11.505 0 0 0-3.514-8.234 11.55 11.55 0 0 0-4.365-2.777 13.26 13.26 0 0 0-4.44-.717c-3.541 0-6.476 1.165-8.806 3.494-2.352 2.33-3.517 5.171-3.517 8.55a14.307 14.307 0 0 0 0 .157 11.527 11.527 0 0 0 3.517 8.368 11.621 11.621 0 0 0 4.365 2.755 13.315 13.315 0 0 0 4.44.716 15.47 15.47 0 0 0 .674-.015 11.914 11.914 0 0 0 8.132-3.456 11.591 11.591 0 0 0 2.528-3.596Zm-17.11-4.93a8.236 8.236 0 0 0 .241 2.052 6.067 6.067 0 0 0 1.39 2.607c1.07 1.188 2.468 1.794 4.146 1.794a5.764 5.764 0 0 0 2.235-.424 5.308 5.308 0 0 0 1.91-1.37c1.072-1.188 1.632-2.749 1.632-4.659 0-1.91-.536-3.47-1.631-4.682a5.273 5.273 0 0 0-3.951-1.814 6.834 6.834 0 0 0-.195-.003 5.704 5.704 0 0 0-2.268.44 5.263 5.263 0 0 0-1.879 1.377c-1.095 1.235-1.63 2.795-1.63 4.682Z" fill="#13110c" fill-rule="evenodd" data-name="Path 148"/><path d="M168.98 72.126v-4.985h-6.546v10.576c0 1.677-.396 2.958-1.165 3.867a3.723 3.723 0 0 1-1.894 1.179 5.672 5.672 0 0 1-1.395.193 7.21 7.21 0 0 1-.158.002 5.75 5.75 0 0 1-1.173-.11c-.909-.19-1.59-.624-2.042-1.31-.629-.956-.932-2.586-.932-4.893v-9.457h-6.522v11.53a15.642 15.642 0 0 0 .432 3.857c.846 3.315 2.934 5.292 6.269 5.943a14.034 14.034 0 0 0 2.687.24 10.497 10.497 0 0 0 6.196-1.91c.023.257.047.513.047.77a8.933 8.933 0 0 1-.224 2.053 6.549 6.549 0 0 1-1.244 2.605 4.703 4.703 0 0 1-3.486 1.824 6.248 6.248 0 0 1-.45.016 5.208 5.208 0 0 1-4.392-2.222c-.422-.566-.792-1.239-1.11-2.02a12.647 12.647 0 0 1-.136-.347l-5.59 2.423a12.919 12.919 0 0 0 1.748 3.2 10.966 10.966 0 0 0 2.654 2.507 11.729 11.729 0 0 0 5.59 1.922 14.941 14.941 0 0 0 1.328.058 12.248 12.248 0 0 0 4.084-.655 10.473 10.473 0 0 0 4.21-2.77 11.385 11.385 0 0 0 2.656-4.85c.314-1.137.501-2.378.56-3.726a21.638 21.638 0 0 0 .021-.95v-1.142a12.632 12.632 0 0 0 1.538 1.84 11.847 11.847 0 0 0 7.986 3.45 15.537 15.537 0 0 0 .819.021 13.315 13.315 0 0 0 4.44-.715 11.622 11.622 0 0 0 4.365-2.756 11.527 11.527 0 0 0 3.517-8.368 14.307 14.307 0 0 0 0-.158 12.325 12.325 0 0 0-.981-4.887 11.777 11.777 0 0 0-2.56-3.685 11.859 11.859 0 0 0-8.232-3.484 15.53 15.53 0 0 0-.572-.01c-3.541 0-6.476 1.165-8.806 3.494a12.631 12.631 0 0 0-1.537 1.84Zm14.489 11.368c-1.072 1.188-2.47 1.794-4.146 1.794a5.851 5.851 0 0 1-2.047-.346 5.266 5.266 0 0 1-2.1-1.448c-1.071-1.188-1.63-2.749-1.63-4.659a8.277 8.277 0 0 1 .256-2.117 6.074 6.074 0 0 1 1.374-2.565 5.273 5.273 0 0 1 3.951-1.814 6.834 6.834 0 0 1 .196-.003 5.807 5.807 0 0 1 2.046.348 5.214 5.214 0 0 1 2.1 1.469 6.378 6.378 0 0 1 1.495 3.133 8.544 8.544 0 0 1 .136 1.55 8.289 8.289 0 0 1-.247 2.076 5.933 5.933 0 0 1-1.384 2.582Z" fill="#fff" fill-rule="evenodd" data-name="Path 149"/></g></svg>